<svg xmlns="http://www.w3.org/2000/svg" viewBox="143 7.5 100 33" width="100" height="33" overflow="hidden">
<g xmlns="http://www.w3.org/2000/svg" id="PL-base-master-nobg">
<path id="Vector_73" d="M151.753 16.9836C152.154 16.9593 151.923 16.0972 151.923 16.0972C154.006 14.9129 159.683 14.9315 159.683 17.3115C159.683 19.041 156.169 19.3312 153.998 19.3627C154.005 19.1751 154.017 18.9794 154.036 18.7746C154.218 16.7951 153.89 16.8256 153.562 16.7588C153.562 16.7588 153.35 16.6676 153.332 17.196C153.332 17.196 153.312 18.2071 153.3 19.3651C152.835 19.3618 152.499 19.3503 152.377 19.3517C151.727 19.358 152.264 19.9589 152.264 19.9589C152.618 19.979 152.962 19.9928 153.296 20.0014C153.287 21.297 153.296 22.5815 153.357 22.7219C153.484 23.0135 153.843 23.6875 154.231 23.499C154.62 23.3109 154.729 23.2441 154.498 22.5882C154.32 22.0822 154.035 21.2655 153.996 20.01C158.07 20.0086 160.328 19.0419 160.328 17.0929C160.328 14.8828 156.988 14.2388 154.875 14.2388C152.416 14.2388 151.42 14.7548 151.05 14.9916C150.679 15.2284 151.353 17.0075 151.754 16.9831L151.753 16.9836Z" fill="white" />
<path id="Vector_74" d="M159.825 23.403C160.789 23.9052 162.489 22.8283 163.728 22.0588C164.966 21.2898 166.059 20.4964 166.642 21.4597C167.225 22.423 167.565 22.0588 167.857 21.8807C168.148 21.7027 168.407 21.484 167.209 20.6177C166.011 19.7513 164.893 20.3666 163.177 21.5409C161.46 22.7147 160.108 23.0712 160.003 22.3017C159.898 21.5327 161.436 20.8282 162.448 20.5045C163.46 20.1809 163.328 19.1775 162.707 19.387C158.416 20.8363 158.861 22.9008 159.825 23.403H159.825Z" fill="white" />
<path id="Vector_75" d="M172.528 22.7504C174.043 21.5685 176.585 20.5885 177.856 21.4387C177.856 21.4387 178.147 21.8435 178.568 21.4549C178.989 21.0663 178.811 20.6453 177.613 20.5804C176.415 20.5155 174.828 20.6453 173.014 21.7141C171.201 22.7829 170.697 23.0077 170.649 22.2468C170.6 21.4859 171.12 20.451 170.051 20.5809C169.102 20.6959 169.201 22.1194 169.727 22.8641C170.254 23.6087 171.015 23.9328 172.529 22.7509L172.528 22.7504Z" fill="white" />
<path id="Vector_76" d="M179.597 14.2159C180.091 14.4589 180.269 17.3979 180.212 19.7536C180.155 22.1099 179.645 24.2956 179.92 24.1257C180.195 23.9558 180.649 24.1176 180.746 20.4014C180.844 16.6852 181.175 13.1552 180.244 13.0822C179.429 13.0182 179.102 13.9729 179.596 14.2159H179.597Z" fill="white" />
<path id="Vector_77" d="M186.535 24.4823C186.535 24.4823 186.894 24.5449 187.005 24.1907C187.158 23.7042 186.074 23.3973 185.175 23.3486C184.277 23.2999 182.441 23.2183 182.326 21.7132C182.236 20.5556 184.675 20.359 186.131 19.2033C187.151 18.3937 186.949 17.9565 186.05 18.1507C185.151 18.345 182.091 20.094 180.852 21.6645C180.596 21.9886 183.88 24.1826 186.536 24.4819L186.535 24.4823Z" fill="white" />
<path id="Vector_78" d="M194.175 23.6994C195.693 23.8937 199.312 22.8373 200.393 22.8249C200.393 22.8249 200.708 22.3633 199.616 22.485C198.523 22.6063 196.324 23.2746 195.001 22.9466C193.677 22.6187 193.641 21.5867 194.296 20.0563C194.952 18.5259 196.3 14.9553 195.827 14.9314C195.148 14.8966 194.357 15.5267 194.296 16.7287C194.207 18.4887 193.653 20.5179 193.446 21.1251C193.239 21.7323 192.657 23.5056 194.175 23.6999L194.175 23.6994Z" fill="white" />
<path id="Vector_79" d="M206.76 15.8127C206.704 15.6346 206.525 15.521 206.323 15.6184C206.121 15.7157 205.878 15.4809 206.161 15.2623C206.445 15.0436 206.534 14.7682 206.307 14.7119C205.677 14.5544 204.866 15.562 205.384 16.1368C205.902 16.7115 206.817 15.9912 206.76 15.8131L206.76 15.8127Z" fill="white" />
<path id="Vector_80" d="M204.995 23.6179C205.303 23.6179 205.292 23.2737 204.574 23.0837C204.024 22.9381 202.218 22.2903 201.837 21.3671C201.457 20.4439 202.161 19.6668 202.858 19.2782C203.554 18.8897 204.307 18.7598 203.7 19.4888C203.092 20.2177 202.185 20.8168 202.615 21.1404C202.912 21.3648 204.25 20.517 204.865 19.5537C205.481 18.5904 205.44 18.0152 204.444 18.0314C203.448 18.0476 200.874 19.5212 201.027 21.2698C201.181 23.0188 203.739 23.6179 204.995 23.6179H204.995Z" fill="white" />
<path id="Vector_81" d="M207.343 21.2535C207.619 21.4802 208.315 21.5208 208.104 20.6219C207.894 19.7231 207.319 18.282 207.116 18.4519C206.939 18.6013 207.068 21.0267 207.343 21.2535Z" fill="white" />
<path id="Vector_82" d="M216.484 22.4679C217.492 22.4192 218.865 20.5733 219.107 20.306C219.35 20.0387 219.957 20.9738 220.322 21.6659C220.686 22.3581 221.099 22.1151 221.439 21.9089C221.779 21.7022 222.01 21.6416 221.706 21.253C221.403 20.8645 220.807 21.1074 220.807 21.1074C220.807 21.1074 219.86 19.7594 219.35 19.6257C218.84 19.4921 217.881 20.7552 217.31 21.496C216.739 22.2369 216.011 21.9576 215.245 21.6903C214.48 21.423 214.711 20.9494 214.711 20.6458C214.711 20.3422 214.678 19.2353 214.298 19.3097C213.557 19.4553 213.254 19.9169 213.764 20.9857C214.274 22.0545 215.476 22.5161 216.485 22.4674L216.484 22.4679Z" fill="white" />
<path id="Vector_83" d="M224.925 22.286C225.507 21.9705 228.398 19.9178 230.196 19.8816C231.993 19.8453 231.386 20.7074 231.993 20.3675C232.6 20.0276 232.867 19.3593 231.556 19.3474C230.244 19.3355 228.58 19.3593 226.649 20.5374C224.718 21.7155 224.232 21.6425 224.342 21.0477C224.451 20.453 224.779 19.0075 223.637 19.3231C222.93 19.5188 222.969 20.6711 223.224 21.2907C223.479 21.9103 224.342 22.6025 224.925 22.2865V22.286Z" fill="white" />
<path id="Vector_84" d="M236.657 23.6216C237.434 23.719 237.446 23.3911 237.361 23.33C237.276 23.2693 235.017 22.3586 234.228 21.5327C233.438 20.7069 235.284 19.1402 235.855 19.0309C236.426 18.9216 236.171 19.5775 236.025 19.7112C235.879 19.8448 234.726 21.0105 234.981 21.1685C235.235 21.3265 235.685 21.0349 236.389 20.537C237.094 20.0391 238.075 18.6891 237.409 18.1564C236.438 17.3793 233.256 19.3952 233.401 21.2411C233.547 23.087 235.879 23.5242 236.656 23.6216H236.657Z" fill="white" />
<path id="Vector_85" d="M219.796 29.5413C201.257 29.5413 189.489 31.3729 172.199 31.3729C165.287 31.3729 157.115 30.9051 151.581 30.5217C150.018 30.4048 151.784 31.7218 152.559 31.8287C153.334 31.9357 164.46 32.3987 172.396 32.3987C187.78 32.3987 207.897 30.0177 220.322 30.0177C232.747 30.0177 239.519 31.2263 239.519 31.2263C239.519 31.2263 232.945 29.5413 219.796 29.5413Z" fill="white" />
<path id="Vector_86" d="M211.676 22.1934C212.505 22.8498 210.975 24.9878 210.556 25.27C210.138 25.5521 210.343 25.6853 210.343 25.6853C211.385 25.2618 212.891 23.3147 212.579 22.3595C212.267 21.4044 210.839 20.4492 210.346 20.1337C209.854 19.8181 210.642 19.4773 210.855 19.4525C211.068 19.4276 212.029 19.0787 212.366 18.8376C212.702 18.5966 212.259 17.7163 211.89 17.8409C211.52 17.9655 209.443 18.9374 209.443 19.5522C209.443 20.7318 210.847 21.5375 211.676 22.1934Z" fill="white" />
</g>

</svg>