<svg preserveAspectRatio="none" width="100%" height="100%" overflow="visible" style="display: block;" viewBox="0 0 24 24" fill="none" xmlns="http://www.w3.org/2000/svg">
<g id="menu">
<path id="Icon" fill-rule="evenodd" clip-rule="evenodd" d="M20.4574 7.23404H3.54255C3.27818 7.23404 3.06383 7.01969 3.06383 6.75532V5.47872C3.06383 5.21435 3.27818 5 3.54255 5H20.4574C20.7218 5 20.9362 5.21435 20.9362 5.47872V6.75532C20.9362 7.01969 20.7218 7.23404 20.4574 7.23404ZM20.4574 13.617H3.54255C3.27818 13.617 3.06383 13.4027 3.06383 13.1383V11.8617C3.06383 11.5973 3.27818 11.383 3.54255 11.383H20.4574C20.7218 11.383 20.9362 11.5973 20.9362 11.8617V13.1383C20.9362 13.4027 20.7218 13.617 20.4574 13.617ZM3.54255 20H20.4574C20.7218 20 20.9362 19.7857 20.9362 19.5213V18.2447C20.9362 17.9803 20.7218 17.766 20.4574 17.766H3.54255C3.27818 17.766 3.06383 17.9803 3.06383 18.2447V19.5213C3.06383 19.7857 3.27818 20 3.54255 20Z" fill="var(--fill-0, white)"/>
</g>
</svg>
