<svg preserveAspectRatio="none" width="100%" height="100%" overflow="visible" style="display: block;" viewBox="0 0 85 77" fill="none" xmlns="http://www.w3.org/2000/svg">
<g id="icon/wi-fi 4 day ">
<rect width="85" height="77" fill="white"/>
<path id="Primary" d="M24.6097 17.7232C31.3801 11.8482 40.2624 8.28571 49.9966 8.28571C59.7309 8.28571 68.6131 11.8482 75.3836 17.7232C76.2809 18.5089 77.6585 18.4196 78.4561 17.5268C79.2537 16.6339 79.1631 15.2857 78.2567 14.5C70.7249 7.96429 60.8275 4 49.9966 4C39.1657 4 29.2683 7.96429 21.7366 14.5C20.8393 15.2857 20.7486 16.6339 21.5372 17.5268C22.3257 18.4196 23.7033 18.5 24.6097 17.7232ZM49.9966 24C55.8517 24 61.1901 26.2054 65.1871 29.8214C66.0753 30.625 67.4439 30.5625 68.2596 29.6875C69.0754 28.8125 69.0119 27.4643 68.1237 26.6607C63.3563 22.3482 56.9846 19.7143 49.9966 19.7143C43.0086 19.7143 36.637 22.3482 31.8605 26.6696C30.9723 27.4732 30.9179 28.8214 31.7246 29.6964C32.5312 30.5714 33.9089 30.625 34.7971 29.8304C38.8032 26.2054 44.1416 24 49.9966 24ZM55.0722 39C55.0722 38.3434 54.9409 37.6932 54.6858 37.0866C54.4308 36.48 54.0569 35.9288 53.5856 35.4645C53.1143 35.0002 52.5548 34.6319 51.939 34.3806C51.3232 34.1293 50.6632 34 49.9966 34C49.3301 34 48.6701 34.1293 48.0543 34.3806C47.4385 34.6319 46.879 35.0002 46.4077 35.4645C45.9363 35.9288 45.5625 36.48 45.3074 37.0866C45.0523 37.6932 44.9211 38.3434 44.9211 39C44.9211 39.6566 45.0523 40.3068 45.3074 40.9134C45.5625 41.52 45.9363 42.0712 46.4077 42.5355C46.879 42.9998 47.4385 43.3681 48.0543 43.6194C48.6701 43.8707 49.3301 44 49.9966 44C50.6632 44 51.3232 43.8707 51.939 43.6194C52.5548 43.3681 53.1143 42.9998 53.5856 42.5355C54.0569 42.0712 54.4308 41.52 54.6858 40.9134C54.9409 40.3068 55.0722 39.6566 55.0722 39Z" fill="var(--fill-0, #62593A)"/>
<path id="Primary_2" d="M40.25 53C40.25 48.6902 38.538 44.557 35.4905 41.5095C32.443 38.462 28.3098 36.75 24 36.75C19.6902 36.75 15.557 38.462 12.5095 41.5095C9.46205 44.557 7.75 48.6902 7.75 53C7.75 57.3098 9.46205 61.443 12.5095 64.4905C15.557 67.538 19.6902 69.25 24 69.25C28.3098 69.25 32.443 67.538 35.4905 64.4905C38.538 61.443 40.25 57.3098 40.25 53ZM4 53C4 47.6957 6.10714 42.6086 9.85786 38.8579C13.6086 35.1071 18.6957 33 24 33C29.3043 33 34.3914 35.1071 38.1421 38.8579C41.8929 42.6086 44 47.6957 44 53C44 58.3043 41.8929 63.3914 38.1421 67.1421C34.3914 70.8929 29.3043 73 24 73C18.6957 73 13.6086 70.8929 9.85786 67.1421C6.10714 63.3914 4 58.3043 4 53ZM21.4688 43.0937C22.4531 43.4219 22.9844 44.4844 22.6563 45.4688L19.7266 54.25H25.25V49.875C25.25 48.8359 26.0859 48 27.125 48C28.1641 48 29 48.8359 29 49.875V54.25H29.625C30.6641 54.25 31.5 55.0859 31.5 56.125C31.5 57.1641 30.6641 58 29.625 58H29V61.125C29 62.1641 28.1641 63 27.125 63C26.0859 63 25.25 62.1641 25.25 61.125V58H17.125C16.5234 58 15.9531 57.7109 15.6016 57.2188C15.25 56.7266 15.1562 56.1016 15.3437 55.5312L19.0937 44.2812C19.4219 43.2969 20.4844 42.7656 21.4688 43.0937Z" fill="var(--fill-0, #62593A)"/>
</g>
</svg>
