<svg preserveAspectRatio="none" width="100%" height="100%" overflow="visible" style="display: block;" viewBox="0 0 85 77" fill="none" xmlns="http://www.w3.org/2000/svg">
<g id="icon/wi-fi 1 day ">
<rect width="85" height="77" fill="white"/>
<path id="Primary" d="M40.25 53C40.25 48.6902 38.538 44.557 35.4905 41.5095C32.443 38.462 28.3098 36.75 24 36.75C19.6902 36.75 15.557 38.462 12.5095 41.5095C9.46205 44.557 7.75 48.6902 7.75 53C7.75 57.3098 9.46205 61.443 12.5095 64.4905C15.557 67.538 19.6902 69.25 24 69.25C28.3098 69.25 32.443 67.538 35.4905 64.4905C38.538 61.443 40.25 57.3098 40.25 53ZM4 53C4 47.6957 6.10714 42.6086 9.85786 38.8579C13.6086 35.1071 18.6957 33 24 33C29.3043 33 34.3914 35.1071 38.1421 38.8579C41.8929 42.6086 44 47.6957 44 53C44 58.3043 41.8929 63.3914 38.1421 67.1421C34.3914 70.8929 29.3043 73 24 73C18.6957 73 13.6086 70.8929 9.85786 67.1421C6.10714 63.3914 4 58.3043 4 53ZM24.9375 43.25C25.5156 43.5859 25.875 44.2031 25.875 44.875V59.25H29C30.0391 59.25 30.875 60.0859 30.875 61.125C30.875 62.1641 30.0391 63 29 63H24H19C17.9609 63 17.125 62.1641 17.125 61.125C17.125 60.0859 17.9609 59.25 19 59.25H22.125V48.1094L20.5547 49.0078C19.6562 49.5234 18.5078 49.2109 18 48.3125C17.4922 47.4141 17.7969 46.2656 18.6953 45.7578L23.0703 43.2578C23.6484 42.9297 24.3672 42.9297 24.9453 43.2656L24.9375 43.25Z" fill="var(--fill-0, #62593A)"/>
<path id="Primary_2" d="M24.6097 17.7232C31.3801 11.8482 40.2624 8.28571 49.9966 8.28571C59.7309 8.28571 68.6131 11.8482 75.3836 17.7232C76.2809 18.5089 77.6585 18.4196 78.4561 17.5268C79.2537 16.6339 79.1631 15.2857 78.2567 14.5C70.7249 7.96429 60.8275 4 49.9966 4C39.1657 4 29.2683 7.96429 21.7366 14.5C20.8393 15.2857 20.7486 16.6339 21.5372 17.5268C22.3257 18.4196 23.7033 18.5 24.6097 17.7232ZM49.9966 24C55.8517 24 61.1901 26.2054 65.1871 29.8214C66.0753 30.625 67.4439 30.5625 68.2596 29.6875C69.0754 28.8125 69.0119 27.4643 68.1237 26.6607C63.3563 22.3482 56.9846 19.7143 49.9966 19.7143C43.0086 19.7143 36.637 22.3482 31.8605 26.6696C30.9723 27.4732 30.9179 28.8214 31.7246 29.6964C32.5312 30.5714 33.9089 30.625 34.7971 29.8304C38.8032 26.2054 44.1416 24 49.9966 24ZM55.0722 39C55.0722 38.3434 54.9409 37.6932 54.6858 37.0866C54.4308 36.48 54.0569 35.9288 53.5856 35.4645C53.1143 35.0002 52.5548 34.6319 51.939 34.3806C51.3232 34.1293 50.6632 34 49.9966 34C49.3301 34 48.6701 34.1293 48.0543 34.3806C47.4385 34.6319 46.879 35.0002 46.4077 35.4645C45.9363 35.9288 45.5625 36.48 45.3074 37.0866C45.0523 37.6932 44.9211 38.3434 44.9211 39C44.9211 39.6566 45.0523 40.3068 45.3074 40.9134C45.5625 41.52 45.9363 42.0712 46.4077 42.5355C46.879 42.9998 47.4385 43.3681 48.0543 43.6194C48.6701 43.8707 49.3301 44 49.9966 44C50.6632 44 51.3232 43.8707 51.939 43.6194C52.5548 43.3681 53.1143 42.9998 53.5856 42.5355C54.0569 42.0712 54.4308 41.52 54.6858 40.9134C54.9409 40.3068 55.0722 39.6566 55.0722 39Z" fill="var(--fill-0, #62593A)"/>
</g>
</svg>
