<svg preserveAspectRatio="none" width="100%" height="100%" overflow="visible" style="display: block;" viewBox="0 0 24 24" fill="none" xmlns="http://www.w3.org/2000/svg">
<g id="icon/youtube">
<path id="Vector" d="M21.5789 7.19115C21.3519 6.32708 20.6708 5.64896 19.8103 5.41927C18.2541 5 12 5 12 5C12 5 5.74588 5 4.18601 5.41927C3.32552 5.64896 2.64811 6.32708 2.41743 7.19115C2 8.75521 2 12.0146 2 12.0146C2 12.0146 2 15.274 2.41743 16.838C2.64811 17.6984 3.32552 18.351 4.18601 18.5807C5.74588 19 12 19 12 19C12 19 18.2541 19 19.814 18.5807C20.6745 18.351 21.3519 17.6984 21.5826 16.838C22 15.274 22 12.0146 22 12.0146C22 12.0146 22 8.75521 21.5826 7.19115H21.5789ZM9.95313 14.975V9.05417L15.1783 12.0146L9.95313 14.975Z" fill="#ffffff"/>
</g>
</svg>
