<svg viewBox="0 0 100 33" fill="none" xmlns="http://www.w3.org/2000/svg">
  <!-- P letter: x=7.94, y=21.33, w=9.39, h=9.29 -->
  <g transform="translate(7.94, 21.33)">
    <svg viewBox="0 0 9.38578 9.29292" width="9.38578" height="9.29292" overflow="visible">
      <path d="M0.811106 2.74477C1.21208 2.72043 0.981043 1.85833 0.981043 1.85833C3.06373 0.674021 8.74135 0.692638 8.74135 3.07272C8.74135 4.80216 5.22709 5.09239 3.05609 5.1239C3.06325 4.9363 3.07519 4.74058 3.0938 4.5358C3.27615 2.55622 2.94821 2.58677 2.62027 2.51994C2.62027 2.51994 2.40785 2.42877 2.38971 2.9572C2.38971 2.9572 2.36966 3.96823 2.3582 5.12628C1.89326 5.12294 1.55673 5.11149 1.43453 5.11292C0.784852 5.11912 1.3214 5.72011 1.3214 5.72011C1.67607 5.74016 2.02024 5.754 2.35343 5.76259C2.34532 7.05813 2.35343 8.34268 2.41453 8.48302C2.54198 8.77469 2.90048 9.44871 3.28904 9.26015C3.67761 9.07208 3.78692 9.00525 3.55636 8.34937C3.3783 7.84337 3.09237 7.02662 3.05418 5.77119C7.1279 5.76975 9.38578 4.80312 9.38578 2.85409C9.38578 0.643948 6.04623 0 3.93299 0C1.47367 0 0.477914 0.516017 0.107489 0.752784C-0.262936 0.989551 0.411085 2.76864 0.812061 2.7443L0.811106 2.74477Z" fill="white"/>
    </svg>
  </g>
  <!-- a letter: x=16.18, y=26.45, w=8.92, h=4.17 -->
  <g transform="translate(16.18, 26.45)">
    <svg viewBox="0 0 8.91977 4.17318" width="8.91977" height="4.17318" overflow="visible">
      <path d="M0.643563 4.04448C1.60686 4.54665 3.30719 3.46975 4.54592 2.70026C5.78465 1.93124 6.87778 1.13788 7.46063 2.10118C8.04347 3.06448 8.38383 2.70026 8.67501 2.5222C8.96667 2.34415 9.2254 2.12553 8.02725 1.25913C6.82909 0.392737 5.71161 1.00804 3.99505 2.18233C2.2785 3.35614 0.926633 3.71272 0.821138 2.94323C0.716121 2.17421 2.25415 1.46964 3.26614 1.146C4.27812 0.822353 4.14637 -0.181041 3.52534 0.0285166C-0.76558 1.47776 -0.320687 3.5423 0.643087 4.04448H0.643563Z" fill="white"/>
    </svg>
  </g>
  <!-- r letter: x=26.33, y=27.66, w=9.44, h=2.97 -->
  <g transform="translate(26.33, 27.66)">
    <svg viewBox="0 0 9.44215 2.96552" width="9.44215" height="2.96552" overflow="visible">
      <path d="M3.19584 2.18386C4.71 1.00194 7.25237 0.021931 8.52309 0.872095C8.52309 0.872095 8.81475 1.27689 9.23577 0.888325C9.6568 0.49976 9.47874 0.0787368 8.28059 0.0138169C7.08244 -0.051103 5.49524 0.0787368 3.68178 1.14753C1.86832 2.21632 1.36471 2.44115 1.31602 1.68025C1.26733 0.919352 1.78717 -0.115546 0.718379 0.0142933C-0.230597 0.129335 -0.131783 1.5528 0.394736 2.29747C0.921255 3.04214 1.68215 3.36626 3.19632 2.18434L3.19584 2.18386Z" fill="white"/>
    </svg>
  </g>
  <!-- k tall stroke: x=36.36, y=20.17, w=1.52, h=11.06 -->
  <g transform="translate(36.36, 20.17)">
    <svg viewBox="0 0 1.52048 11.0559" width="1.52048" height="11.0559" overflow="visible">
      <path d="M0.233576 1.13678C0.727635 1.37975 0.905685 4.31881 0.848881 6.67454C0.792076 9.03075 0.282264 11.2165 0.557219 11.0466C0.832174 10.8767 1.28614 11.0385 1.38304 7.32231C1.48042 3.60612 1.81218 0.0761031 0.880865 0.00306824C0.0655479 -0.0608969 -0.260961 0.893807 0.233098 1.13678H0.233576Z" fill="white"/>
    </svg>
  </g>
  <!-- k lower arc: x=37.84, y=25.20, w=6.18, h=6.38 -->
  <g transform="translate(37.84, 25.20)">
    <svg viewBox="0 0 6.18164 6.38167" width="6.18164" height="6.38167" overflow="visible">
      <path d="M5.69743 6.37741C5.69743 6.37741 6.05592 6.43995 6.16714 6.08575C6.31989 5.59933 5.23583 5.29239 4.33745 5.2437C3.4386 5.19501 1.60318 5.11339 1.48766 3.60829C1.3984 2.45072 3.83671 2.25405 5.29311 1.09838C6.31321 0.288789 6.11082 -0.148465 5.21196 0.045817C4.31311 0.240099 1.2528 1.98912 0.0140747 3.55961C-0.241786 3.88373 3.04192 6.07764 5.69791 6.37694L5.69743 6.37741Z" fill="white"/>
    </svg>
  </g>
  <!-- L/space letter: x=50.16, y=22.02, w=7.28, h=8.79 -->
  <g transform="translate(50.16, 22.02)">
    <svg viewBox="0 0 7.27291 8.79322" width="7.27291" height="8.79322" overflow="visible">
      <path d="M1.01263 8.76937C2.53061 8.96366 6.14989 7.90728 7.23062 7.89486C7.23062 7.89486 7.54614 7.43326 6.45348 7.55499C5.36035 7.67624 3.16214 8.34453 1.83844 8.01659C0.514745 7.68865 0.478466 6.65661 1.13387 5.12622C1.78975 3.59583 3.1378 0.0252389 2.66426 0.00137128C1.98547 -0.0334754 1.19497 0.596629 1.13387 1.7986C1.04508 3.5586 0.490403 5.58782 0.283709 6.19501C0.0770157 6.8022 -0.505831 8.57557 1.01215 8.76985L1.01263 8.76937Z" fill="white"/>
    </svg>
  </g>
  <!-- i dot: x=62.22, y=21.79, w=1.54, h=1.66 -->
  <g transform="translate(62.22, 21.79)">
    <svg viewBox="0 0 1.54365 1.65995" width="1.54365" height="1.65995" overflow="visible">
      <path d="M1.5416 1.11728C1.4848 0.939225 1.30675 0.825616 1.10435 0.922995C0.901954 1.02038 0.658981 0.785518 0.942528 0.56689C1.22608 0.348263 1.31486 0.0728311 1.08812 0.0165035C0.45849 -0.141023 -0.353007 0.866668 0.16492 1.4414C0.683324 2.01613 1.59793 1.29581 1.54112 1.11776L1.5416 1.11728Z" fill="white"/>
    </svg>
  </g>
  <!-- s/e letter: x=58.02, y=25.13, w=4.25, h=5.59 -->
  <g transform="translate(58.02, 25.13)">
    <svg viewBox="0 0 4.25065 5.58679" width="4.25065" height="5.58679" overflow="visible">
      <path d="M3.97434 5.58679C4.28224 5.58679 4.27174 5.24261 3.55332 5.05263C3.00293 4.90704 1.19711 4.25927 0.816659 3.33607C0.436209 2.41287 1.1403 1.63574 1.83676 1.24718C2.53322 0.858613 3.286 0.728774 2.67881 1.45769C2.07162 2.18661 1.16465 2.78568 1.59379 3.10933C1.89118 3.33368 3.2292 2.48591 3.84451 1.52261C4.45981 0.559314 4.41924 -0.0158954 3.42348 0.000334558C2.42773 0.0165645 -0.147114 1.49015 0.00659372 3.23869C0.160301 4.98771 2.71843 5.58679 3.97387 5.58679H3.97434Z" fill="white"/>
    </svg>
  </g>
  <!-- u/i stroke: x=64.03, y=25.53, w=1.11, h=2.95 -->
  <g transform="translate(64.03, 25.53)">
    <svg viewBox="0 0 1.10828 2.95275" width="1.10828" height="2.95275" overflow="visible">
      <path d="M0.308324 2.81536C0.583756 3.0421 1.27973 3.08267 1.06922 2.18382C0.858708 1.28497 0.283979 -0.15616 0.0815815 0.0137778C-0.0959935 0.163189 0.0328916 2.58861 0.308324 2.81536Z" fill="white"/>
    </svg>
  </g>
  <!-- s letter: x=70.51, y=26.40, w=8.34, h=3.17 -->
  <g transform="translate(70.51, 26.40)">
    <svg viewBox="0 0 8.33644 3.16474" width="8.33644" height="3.16474" overflow="visible">
      <path d="M2.97299 3.16175C3.98116 3.11306 5.35355 1.26714 5.59604 0.999818C5.83901 0.732501 6.44621 1.66763 6.81043 2.35979C7.17465 3.05195 7.58755 2.80898 7.92791 2.60277C8.26778 2.39607 8.49882 2.33545 8.19523 1.94689C7.89163 1.55832 7.29637 1.80129 7.29637 1.80129C7.29637 1.80129 6.3493 0.45325 5.83901 0.319592C5.32872 0.185933 4.36972 1.44901 3.79881 2.18986C3.2279 2.93071 2.49946 2.65146 1.73426 2.38414C0.969067 2.11682 1.20011 1.64329 1.20011 1.33969C1.20011 1.0361 1.16717 -0.0708819 0.787198 0.00358499C0.0463475 0.149177 -0.257246 0.610777 0.253044 1.67957C0.763333 2.74836 1.96531 3.20996 2.97347 3.16127L2.97299 3.16175Z" fill="white"/>
    </svg>
  </g>
  <!-- u letter: x=80.06, y=26.37, w=9.43, h=3.09 -->
  <g transform="translate(80.06, 26.37)">
    <svg viewBox="0 0 9.43941 3.08698" width="9.43941" height="3.08698" overflow="visible">
      <path d="M1.86885 3.00742C2.4517 2.69189 5.34207 0.639278 7.13978 0.602999C8.93701 0.56672 8.32982 1.42882 8.93701 1.08894C9.5442 0.749069 9.81152 0.080776 8.49975 0.0688421C7.18799 0.0569083 5.52442 0.0807756 3.59353 1.25888C1.66264 2.43699 1.1767 2.36395 1.28601 1.76917C1.39532 1.17439 1.72326 -0.271032 0.581437 0.0444975C-0.125999 0.240212 -0.0863795 1.39254 0.168526 2.01214C0.423432 2.63174 1.28601 3.32391 1.86885 3.0079V3.00742Z" fill="white"/>
    </svg>
  </g>
  <!-- r2 letter: x=90.40, y=25.08, w=4.23, h=5.65 -->
  <g transform="translate(90.40, 25.08)">
    <svg viewBox="0 0 4.2342 5.65434" width="4.2342" height="5.65434" overflow="visible">
      <path d="M3.2599 5.6364C4.03703 5.73378 4.04944 5.40583 3.96447 5.34473C3.8795 5.28411 1.62067 4.37332 0.83113 3.5475C0.0415902 2.72168 1.88751 1.15501 2.45842 1.0457C3.02933 0.936387 2.77395 1.59227 2.62836 1.72593C2.48277 1.85959 1.32901 3.02528 1.58392 3.18328C1.83882 3.34129 2.28849 3.04963 2.99258 2.55175C3.69715 2.05387 4.67859 0.703917 4.01268 0.171192C3.04127 -0.605937 -0.140755 1.40992 0.00483717 3.25584C0.15043 5.10176 2.48229 5.53902 3.25942 5.6364H3.2599Z" fill="white"/>
    </svg>
  </g>
  <!-- underline: x=7.96, y=36.64, w=88.56, h=2.86 (clipped by container at 33px) -->
  <!-- connector/e2: x=66.44, y=24.92, w=3.18, h=7.86 -->
  <g transform="translate(66.44, 24.92)">
    <svg viewBox="0 0 3.17787 7.85634" width="3.17787" height="7.85634" overflow="visible">
      <path d="M2.23305 4.36451C3.06222 5.02087 1.53182 7.15893 1.11318 7.44104C0.694545 7.72316 0.899808 7.85634 0.899808 7.85634C1.94234 7.43293 3.44791 5.48581 3.1362 4.53063C2.82401 3.57544 1.39577 2.62026 0.903146 2.30473C0.410519 1.9892 1.19863 1.64837 1.41201 1.62355C1.62538 1.59873 2.58582 1.24978 2.92283 1.00872C3.25936 0.767659 2.8159 -0.112578 2.44643 0.0120108C2.07696 0.1366 0 1.10849 0 1.72332C0 2.90285 1.40389 3.70862 2.23305 4.36451Z" fill="white"/>
    </svg>
  </g>
</svg>
