<svg viewBox="0 0 75 24" fill="none" xmlns="http://www.w3.org/2000/svg">
  <!-- bottom shadow layer: ml=0, mt=0.62 -->
  <g transform="translate(0, 0.62)">
    <svg viewBox="0 0 73.9384 11.14" width="73.9384" height="11.14" overflow="visible">
      <path opacity="0.6" d="M17.6141 3.77656C17.6141 2.47719 16.5631 1.68594 15.3828 1.68594H12.8047V8.59719H14.4191V5.87844H15.0153L16.8781 8.59719H18.7531L16.5528 5.51C16.8755 5.3509 17.1464 5.10362 17.3342 4.79682C17.5221 4.49001 17.6191 4.13626 17.6141 3.77656ZM15.1334 4.55656H14.4181V3.00781H15.1334C15.5666 3.00781 15.9997 3.25719 15.9997 3.77656C16.0006 4.31844 15.5666 4.55656 15.1334 4.55656Z" fill="white" stroke="white" stroke-linecap="round" stroke-linejoin="round"/>
      <path opacity="0.6" d="M24.7494 1.68594H22.9184L20.7959 4.65406V1.68594H19.1169V8.59719H20.7959V5.74812L22.8753 8.59719H24.8253L22.3334 5.12L24.7494 1.68594Z" fill="white" stroke="white" stroke-linecap="round" stroke-linejoin="round"/>
      <path opacity="0.6" d="M6.37437 3.43719C6.37437 1.58656 4.81344 0.697812 3.43719 0.697812H0.5V10.4591H1.96812V6.17562H3.43719C4.81344 6.17562 6.37437 5.29156 6.37437 3.43719ZM3.17656 4.92125H1.96812V1.95312H3.17656C4.04844 1.95312 4.85937 2.4275 4.85937 3.43719C4.85938 4.46281 4.04844 4.92125 3.17656 4.92125Z" fill="white" stroke="white" stroke-linecap="round" stroke-linejoin="round"/>
      <path opacity="0.6" d="M8.22312 1.63531L5.50437 8.6H7.08594L7.61469 7.15625H9.88906L10.4309 8.59719H12.0987L9.38281 1.63531H8.22312ZM8.02813 5.88875L8.52688 4.50219C8.61524 4.27312 8.68637 4.03778 8.73969 3.79812H8.76125C8.82086 4.0365 8.89315 4.27152 8.97781 4.50219L9.47656 5.88875H8.02813Z" fill="white" stroke="white" stroke-linecap="round" stroke-linejoin="round"/>
      <path opacity="0.6" d="M37.0822 1.52375C35.1753 1.52375 33.3669 2.92063 33.3669 5.13031C33.3669 7.36156 35.1753 8.75844 37.0822 8.75844C38.9891 8.75844 40.8078 7.36156 40.8078 5.13031C40.8078 2.92156 38.9994 1.52375 37.0822 1.52375ZM37.0822 7.27531C36.0425 7.27531 35.0675 6.43156 35.0675 5.13031C35.0675 3.82906 36.0425 2.99656 37.0822 2.99656C38.1219 2.99656 39.1072 3.84031 39.1072 5.13031C39.1072 6.42031 38.1219 7.27531 37.0822 7.27531Z" fill="white" stroke="white" stroke-linecap="round" stroke-linejoin="round"/>
      <path opacity="0.6" d="M58.4487 1.63531L55.73 8.6H57.3116L57.8422 7.15906H60.1147L60.6566 8.6H62.3244L59.6075 1.63531H58.4487ZM58.2537 5.8925L58.7525 4.50594C58.8421 4.27697 58.9145 4.04163 58.9691 3.80188H58.9897C59.0493 4.04025 59.1216 4.27527 59.2062 4.50594L59.705 5.8925H58.2537Z" fill="white" stroke="white" stroke-linecap="round" stroke-linejoin="round"/>
      <path opacity="0.6" d="M31.2678 4.41594H28.5922V1.68594H26.9131V8.59719H28.5922V5.85687H31.2678V8.59719H32.9356V1.68594H31.2678V4.41594Z" fill="white" stroke="white" stroke-linecap="round" stroke-linejoin="round"/>
      <path opacity="0.6" d="M70.5922 4.56969C69.5675 4.21719 69.0209 3.69781 69.0209 3.05469C69.0209 2.33562 69.6331 1.72344 70.6269 1.72344C71.4228 1.72344 72.1878 2.045 72.5244 2.28594L72.815 1.0625C72.4625 0.802812 71.6525 0.5 70.6888 0.5C68.6084 0.5 67.595 1.80031 67.595 3.16156C67.595 4.50781 68.5128 5.48656 70.2566 6.05281C71.435 6.43531 71.9544 7.00156 71.9544 7.8425C71.9544 8.74531 71.2353 9.35656 70.1497 9.35656C69.0941 9.35656 68.1453 9.02 67.2125 8.36281L67.5491 9.98375C68.0534 10.3203 69.0181 10.64 70.0728 10.64C72.2759 10.64 73.4384 9.44656 73.4384 7.70281C73.4375 6.05375 72.29 5.15094 70.5922 4.56969Z" fill="white" stroke="white" stroke-linecap="round" stroke-linejoin="round"/>
      <path opacity="0.6" d="M65.8334 1.68594L64.6925 3.35469C64.5406 3.5825 64.3241 3.90687 64.1722 4.17781H64.1506C63.9999 3.89449 63.8338 3.6197 63.6528 3.35469L62.5147 1.68594H60.7278L63.3022 5.54187V8.59719H64.9269V5.51L67.4938 1.68687L65.8334 1.68594Z" fill="white" stroke="white" stroke-linecap="round" stroke-linejoin="round"/>
      <path opacity="0.6" d="M43.4609 1.68594H41.7819V8.59719H46.2341V7.15625H43.4609V1.68594Z" fill="white" stroke="white" stroke-linecap="round" stroke-linejoin="round"/>
      <path opacity="0.6" d="M48.7119 1.68594H47.0328V8.59625H48.7119V1.68594Z" fill="white" stroke="white" stroke-linecap="round" stroke-linejoin="round"/>
      <path opacity="0.6" d="M52.3391 1.68594H50.0103V8.59719H52.3391C54.3322 8.59719 56.0431 7.29781 56.0431 5.14156C56.0431 2.98531 54.3322 1.68594 52.3391 1.68594ZM52.1459 7.15625H51.6256V3.125H52.1459C53.3488 3.125 54.3659 3.79625 54.3659 5.13969C54.3659 6.48312 53.3459 7.15625 52.1459 7.15625Z" fill="white" stroke="white" stroke-linecap="round" stroke-linejoin="round"/>
    </svg>
  </g>
  <!-- middle outline layer (blue shadow): ml=0.54, mt=0 -->
  <g transform="translate(0.54, 0)">
    <svg viewBox="0 0 73.9347 11.1409" width="73.9347" height="11.1409" overflow="visible">
      <path d="M8.22406 1.63156L5.50531 8.59625H7.08688L7.6175 7.15531H9.89188L10.4337 8.59625H12.1016L9.38281 1.63156H8.22406ZM8.02906 5.88781L8.52688 4.50406C8.61651 4.2751 8.6889 4.03976 8.74344 3.8H8.765C8.82461 4.03837 8.8969 4.2734 8.98156 4.50406L9.48031 5.89062L8.02906 5.88781Z" fill="#004A91" stroke="#004A91" stroke-linecap="round" stroke-linejoin="round"/>
      <path d="M65.8297 1.68594L64.6925 3.35375C64.5406 3.58156 64.3241 3.90594 64.1722 4.17687H64.1506C63.9999 3.89356 63.8338 3.61877 63.6528 3.35375L62.5156 1.68594H60.7287L63.3069 5.54187V8.59625H64.9316V5.50906L67.4984 1.68594H65.8297Z" fill="#004A91" stroke="#004A91" stroke-linecap="round" stroke-linejoin="round"/>
      <path d="M70.5922 4.56875C69.5675 4.21719 69.0162 3.69687 69.0162 3.05469C69.0162 2.33562 69.6284 1.72344 70.6222 1.72344C71.4181 1.72344 72.1831 2.045 72.5197 2.28594L72.8103 1.0625C72.4578 0.802812 71.6478 0.5 70.6841 0.5C68.6037 0.5 67.5903 1.80031 67.5903 3.16156C67.5903 4.50781 68.5081 5.48656 70.2519 6.05281C71.4303 6.43531 71.9497 7.00156 71.9497 7.8425C71.9497 8.74531 71.2306 9.3575 70.145 9.3575C69.0894 9.3575 68.1406 9.02094 67.2078 8.36281L67.5444 9.98469C68.0497 10.3212 69.0134 10.6409 70.0691 10.6409C72.2722 10.6409 73.4347 9.4475 73.4347 7.70375C73.4384 6.05281 72.2909 5.15 70.5922 4.56875Z" fill="#004A91" stroke="#004A91" stroke-linecap="round" stroke-linejoin="round"/>
      <path d="M48.7128 1.68594H47.0337V8.59625H48.7128V1.68594Z" fill="#004A91" stroke="#004A91" stroke-linecap="round" stroke-linejoin="round"/>
      <path d="M17.6141 3.77562C17.6141 2.47625 16.5631 1.685 15.3828 1.685H12.8047V8.59625H14.4191V5.8775H15.0144L16.8772 8.59625H18.7522L16.5528 5.50906C16.8755 5.34996 17.1464 5.10268 17.3342 4.79588C17.5221 4.48908 17.6191 4.13532 17.6141 3.77562ZM15.1353 4.55562H14.42V3.00406H15.1353C15.5684 3.00406 16.0016 3.25344 16.0016 3.77281C16.0006 4.31656 15.5675 4.55562 15.1353 4.55562Z" fill="#004A91" stroke="#004A91" stroke-linecap="round" stroke-linejoin="round"/>
      <path d="M6.37438 3.43625C6.37438 1.58563 4.81344 0.697812 3.43719 0.697812H0.5V10.4581H1.96812V6.17469H3.43719C4.81344 6.17469 6.37438 5.28781 6.37438 3.43625ZM3.1775 4.92031H1.96812V1.95312H3.1775C4.04938 1.95312 4.86031 2.4275 4.86031 3.43719C4.85938 4.46187 4.04844 4.92031 3.1775 4.92031Z" fill="#004A91" stroke="#004A91" stroke-linecap="round" stroke-linejoin="round"/>
      <path d="M52.3391 1.68594H50.0103V8.59625H52.3391C54.3322 8.59625 56.0431 7.29687 56.0431 5.14062C56.0431 2.98437 54.3322 1.68594 52.3391 1.68594ZM52.1441 7.15625H51.6238V3.125H52.1441C53.3469 3.125 54.3641 3.79625 54.3641 5.13969C54.3641 6.48312 53.3469 7.15531 52.1441 7.15531V7.15625Z" fill="#004A91" stroke="#004A91" stroke-linecap="round" stroke-linejoin="round"/>
      <path d="M43.4609 1.685H41.7819V8.59625H46.2341V7.15531H43.4609V1.685Z" fill="#004A91" stroke="#004A91" stroke-linecap="round" stroke-linejoin="round"/>
      <path d="M37.0822 1.52281C35.1753 1.52281 33.3669 2.91969 33.3669 5.12937C33.3669 7.36062 35.1753 8.75844 37.0822 8.75844C38.9891 8.75844 40.8078 7.36156 40.8078 5.12937C40.8078 2.92062 38.9994 1.52281 37.0822 1.52281ZM37.0822 7.27437C36.0425 7.27437 35.0675 6.43062 35.0675 5.12937C35.0675 3.82812 36.0416 2.99562 37.0822 2.99562C38.1228 2.99562 39.1072 3.83937 39.1072 5.12937C39.1072 6.41937 38.1219 7.27437 37.0822 7.27437Z" fill="#004A91" stroke="#004A91" stroke-linecap="round" stroke-linejoin="round"/>
      <path d="M58.4478 1.63156L55.7291 8.59625H57.3106L57.8413 7.15531H60.1166L60.6584 8.59625H62.3262L59.6075 1.63156H58.4478ZM58.2528 5.88875L58.7525 4.50406C58.8421 4.2751 58.9145 4.03976 58.9691 3.8H58.9906C59.0502 4.03837 59.1225 4.2734 59.2072 4.50406L59.7059 5.89062L58.2528 5.88875Z" fill="#004A91" stroke="#004A91" stroke-linecap="round" stroke-linejoin="round"/>
      <path d="M24.7494 1.685H22.9194L20.7959 4.65312V1.685H19.1169V8.59625H20.7959V5.74719L22.8753 8.59625H24.8253L22.3344 5.11906L24.7494 1.685Z" fill="#004A91" stroke="#004A91" stroke-linecap="round" stroke-linejoin="round"/>
      <path d="M31.2678 4.415H28.5931V1.685H26.9141V8.59625H28.5931V5.855H31.2678V8.59625H32.9366V1.685H31.2678V4.415Z" fill="#004A91" stroke="#004A91" stroke-linecap="round" stroke-linejoin="round"/>
    </svg>
  </g>
  <!-- top text layer (main white text): ml=0.54, mt=0 -->
  <g transform="translate(0.54, 0)">
    <svg viewBox="0 0 72.9375 10.14" width="72.9375" height="10.14" overflow="visible">
      <path fill-rule="evenodd" clip-rule="evenodd" d="M5.87438 2.93625C5.87438 1.08562 4.31344 0.197812 2.93719 0.197812H0V9.95812H1.46812V5.67469H2.93719C4.31344 5.67469 5.87438 4.78781 5.87438 2.93625ZM4.36031 2.93625C4.36031 3.96094 3.54938 4.42031 2.6775 4.42031H1.46812V1.45312H2.67656C3.54844 1.45312 4.35938 1.9275 4.35938 2.93625H4.36031ZM11.6016 8.0925L8.88281 1.12781H7.72406L5.00531 8.0925H6.58688L7.1175 6.65156H9.39188L9.93375 8.0925H11.6016ZM8.97656 5.385H7.52906L8.02688 4.00406C8.11651 3.7751 8.1889 3.53976 8.24344 3.3H8.265C8.32461 3.53837 8.3969 3.7734 8.48156 4.00406L8.97656 5.385ZM18.2484 8.0925L16.0528 5.00906C16.3755 4.84996 16.6464 4.60268 16.8342 4.29588C17.0221 3.98908 17.1191 3.63532 17.1141 3.27562C17.1141 1.97625 16.0631 1.185 14.8828 1.185H12.3047V8.09625H13.9191V5.3775H14.5144L16.3772 8.09625L18.2484 8.0925ZM15.5006 3.27562C15.5006 3.8175 15.0675 4.05562 14.6344 4.05562H13.9191V2.50406H14.6353C15.0675 2.50406 15.5006 2.75625 15.5006 3.27562ZM24.3253 8.09531L21.8344 4.61906L24.2494 1.18594H22.4166L20.2959 4.15312V1.18594H18.6169V8.09625H20.2959V5.24719L22.3753 8.09625L24.3253 8.09531ZM32.4356 8.09531V1.18594H30.7678V3.915H28.0931V1.18594H26.4141V8.09625H28.0931V5.35594H30.7687V8.09625L32.4356 8.09531ZM40.3106 4.62656C40.3106 2.41687 38.5022 1.02 36.585 1.02C34.6678 1.02 32.8697 2.41687 32.8697 4.62656C32.8697 6.85781 34.6781 8.25562 36.585 8.25562C38.4919 8.25562 40.3078 6.86156 40.3078 4.62937L40.3106 4.62656ZM38.61 4.62656C38.61 5.92687 37.6247 6.77156 36.585 6.77156C35.5453 6.77156 34.5703 5.92781 34.5703 4.62656C34.5703 3.32531 35.5416 2.49656 36.5822 2.49656C37.6228 2.49656 38.6072 3.34125 38.6072 4.62937L38.61 4.62656ZM45.735 8.09531V6.65531H42.9609V1.18594H41.2819V8.09625L45.735 8.09531ZM48.2137 8.09531V1.18594H46.5337V8.09625L48.2137 8.09531ZM55.545 4.63969C55.545 2.48344 53.8331 1.18406 51.8409 1.18406H49.5103V8.09625H51.8391C53.8322 8.09625 55.5431 6.79594 55.5431 4.64062L55.545 4.63969ZM53.8659 4.63969C53.8659 5.98219 52.8478 6.65437 51.6459 6.65437H51.1256V2.62312H51.6459C52.8469 2.62594 53.865 3.29812 53.865 4.64062L53.8659 4.63969ZM61.8281 8.09531L59.1094 1.13062H57.9478L55.2291 8.09625H56.8106L57.3413 6.65531H59.6166L60.1584 8.09625L61.8281 8.09531ZM59.2031 5.38781H57.7537L58.2525 4.00406C58.3421 3.7751 58.4145 3.53976 58.4691 3.3H58.4906C58.5502 3.53837 58.6225 3.7734 58.7072 4.00406L59.2031 5.38781ZM66.9956 1.185H65.3297L64.1925 2.85375C64.0406 3.08156 63.8241 3.40594 63.6722 3.67687H63.6506C63.4999 3.39356 63.3338 3.11877 63.1528 2.85375L62.0156 1.18594H60.2278L62.8059 5.04187V8.09625H64.4306V5.00906L66.9956 1.185ZM72.9356 7.20469C72.9356 5.55281 71.7881 4.65 70.0903 4.06875C69.0656 3.71719 68.5144 3.19687 68.5144 2.55469C68.5144 1.83562 69.1266 1.22344 70.1203 1.22344C70.9163 1.22344 71.6813 1.545 72.0178 1.78594L72.3084 0.5625C71.9559 0.302812 71.1459 0 70.1822 0C68.1019 0 67.0884 1.30031 67.0884 2.66156C67.0884 4.00781 68.0062 4.98656 69.75 5.55281C70.9284 5.93531 71.4478 6.50156 71.4478 7.3425C71.4478 8.24531 70.7287 8.85656 69.6431 8.85656C68.5875 8.85656 67.6387 8.52 66.7059 7.86281L67.0425 9.48375C67.5478 9.82031 68.5116 10.14 69.5672 10.14C71.775 10.1419 72.9375 8.94844 72.9375 7.20469H72.9356Z" fill="white"/>
    </svg>
  </g>
  <!-- underline: ml=2.89, mt=10.36 -->
  <g transform="translate(2.89, 10.36)">
    <svg viewBox="0 0 40.4444 1" width="40.4444" height="1" overflow="visible">
      <path opacity="0.65" d="M0.5 0.5H39.9444" stroke="white" stroke-linecap="round" stroke-linejoin="round"/>
    </svg>
  </g>
  <!-- flag vector 1 (white outline): ml=43.19, mt=8.99 -->
  <g transform="translate(43.19, 8.99)">
    <svg viewBox="0 0 23.1366 5.67636" width="23.1366" height="5.67636" overflow="visible">
      <path fill-rule="evenodd" clip-rule="evenodd" d="M0 1.03769C1.30111 1.64177 2.70712 1.98754 4.14 2.05582V3.96738C4.14 4.32738 4.31719 4.58144 5.28281 4.5655C6.2325 4.53081 6.44156 4.27113 6.44156 3.90925V1.99863C7.82062 1.86644 9.19969 1.58144 10.5788 1.26644V3.17144C10.5788 3.59238 10.4503 3.95707 9.90281 4.34238C9.03375 4.93957 7.35938 5.60238 5.28281 5.67175C3.20625 5.74113 1.53281 5.0155 0.662813 4.24394C0.115313 3.76113 0.00656319 3.35988 0.00656319 2.94269V1.03769M11.2847 1.10425C12.6366 0.789253 13.9894 0.465815 15.3412 0.251128V1.74644C16.2159 1.10894 17.0906 0.517378 17.9662 0.00269023C19.5272 -0.0273098 21.0891 0.19019 22.6538 0.826753C21.495 0.927065 20.3353 1.26175 19.1766 1.75675C20.6144 2.50558 21.9461 3.44256 23.1366 4.543C21.4678 3.76394 19.7991 3.49113 18.1303 3.50519C17.2287 3.04218 16.2987 2.63668 15.3459 2.29113V3.75644C13.9941 3.97113 12.6413 4.29456 11.2894 4.60956L11.2847 1.10425Z" fill="white"/>
    </svg>
  </g>
  <!-- flag vector 2 (blue/dark): ml=43.65, mt=8.48 -->
  <g transform="translate(43.65, 8.48)">
    <svg viewBox="0 0 23.1338 5.66979" width="23.1338" height="5.66979" overflow="visible">
      <path fill-rule="evenodd" clip-rule="evenodd" d="M0 1.03769C1.30021 1.64151 2.70525 1.98727 4.13719 2.05582V3.96456C4.13719 4.32456 4.31438 4.57863 5.28 4.56269C6.22969 4.528 6.43875 4.26832 6.43875 3.90644V1.99582C7.81781 1.86363 9.19687 1.57863 10.5759 1.26363V3.16488C10.5759 3.58582 10.4475 3.9505 9.9 4.33582C9.03094 4.933 7.35656 5.59581 5.28 5.66519C3.20344 5.73456 1.53 5.00894 0.660001 4.23738C0.112501 3.75457 0.0037508 3.35332 0.0037508 2.93613V1.03769M11.2819 1.10425C12.6338 0.789253 13.9866 0.465815 15.3384 0.251128V1.74644C16.2131 1.10894 17.0878 0.517378 17.9634 0.00269023C19.5244 -0.0273098 21.0862 0.19019 22.6509 0.826753C21.4922 0.927065 20.3325 1.26175 19.1738 1.75675C20.6116 2.50558 21.9433 3.44256 23.1338 4.543C21.465 3.76394 19.7962 3.49113 18.1275 3.50519C17.2259 3.04218 16.2959 2.63668 15.3431 2.29113V3.75644C13.9941 3.97113 12.6384 4.29457 11.2866 4.60957L11.2819 1.10425Z" fill="#004A91"/>
    </svg>
  </g>
</svg>
