<svg xmlns="http://www.w3.org/2000/svg" viewBox="52 12 75 24" width="75" height="24" overflow="hidden">
<g xmlns="http://www.w3.org/2000/svg" id="white_redflag">
<g id="bottom">
<path id="Vector" opacity="0.6" d="M69.1141 20.5627C69.1141 19.2634 68.0631 18.4721 66.8828 18.4721H64.3047V25.3834H65.9191V22.6646H66.5153L68.3781 25.3834H70.2531L68.0528 22.2962C68.3755 22.1371 68.6464 21.8898 68.8342 21.583C69.0221 21.2762 69.1191 20.9224 69.1141 20.5627ZM66.6334 21.3427H65.9181V19.794H66.6334C67.0666 19.794 67.4997 20.0434 67.4997 20.5627C67.5006 21.1046 67.0666 21.3427 66.6334 21.3427Z" fill="white" stroke="white" stroke-linecap="round" stroke-linejoin="round" />
<path id="Vector_2" opacity="0.6" d="M76.2493 18.4721H74.4184L72.2959 21.4402V18.4721H70.6168V25.3834H72.2959V22.5343L74.3753 25.3834H76.3253L73.8334 21.9062L76.2493 18.4721Z" fill="white" stroke="white" stroke-linecap="round" stroke-linejoin="round" />
<path id="Vector_3" opacity="0.6" d="M57.8744 20.2234C57.8744 18.3728 56.3134 17.484 54.9372 17.484H52V27.2453H53.4681V22.9618H54.9372C56.3134 22.9618 57.8744 22.0778 57.8744 20.2234ZM54.6766 21.7074H53.4681V18.7393H54.6766C55.5484 18.7393 56.3594 19.2137 56.3594 20.2234C56.3594 21.249 55.5522 21.7074 54.6766 21.7074Z" fill="white" stroke="white" stroke-linecap="round" stroke-linejoin="round" />
<path id="Vector_4" opacity="0.6" d="M59.7231 18.4215L57.0044 25.3862H58.586L59.1147 23.9424H61.3891L61.931 25.3834H63.5988L60.8828 18.4215H59.7231ZM59.5281 22.6749L60.0269 21.2884C60.1153 21.0593 60.1864 20.824 60.2397 20.5843H60.2613C60.3209 20.8227 60.3932 21.0577 60.4778 21.2884L60.9766 22.6749H59.5281Z" fill="white" stroke="white" stroke-linecap="round" stroke-linejoin="round" />
<path id="Vector_5" opacity="0.6" d="M88.5821 18.3099C86.6753 18.3099 84.8668 19.7068 84.8668 21.9165C84.8668 24.1477 86.6753 25.5446 88.5821 25.5446C90.489 25.5446 92.3078 24.1477 92.3078 21.9165C92.3078 19.7077 90.4993 18.3099 88.5821 18.3099ZM88.5821 24.0615C87.5424 24.0615 86.5674 23.2177 86.5674 21.9165C86.5674 20.6152 87.5424 19.7827 88.5821 19.7827C89.6218 19.7827 90.6071 20.6265 90.6071 21.9165C90.6071 23.2065 89.6218 24.0615 88.5821 24.0615Z" fill="white" stroke="white" stroke-linecap="round" stroke-linejoin="round" />
<path id="Vector_6" opacity="0.6" d="M109.949 18.4215L107.23 25.3862H108.812L109.342 23.9453H111.615L112.157 25.3862H113.824L111.107 18.4215H109.949ZM109.754 22.6787L110.252 21.2921C110.342 21.0632 110.415 20.8278 110.469 20.5881H110.49C110.549 20.8264 110.622 21.0615 110.706 21.2921L111.205 22.6787H109.754Z" fill="white" stroke="white" stroke-linecap="round" stroke-linejoin="round" />
<path id="Vector_7" opacity="0.6" d="M82.7678 21.2021H80.0921V18.4721H78.4131V25.3834H80.0921V22.643H82.7678V25.3834H84.4356V18.4721H82.7678V21.2021Z" fill="white" stroke="white" stroke-linecap="round" stroke-linejoin="round" />
<path id="Vector_8" opacity="0.6" d="M122.092 21.3559C121.068 21.0034 120.521 20.484 120.521 19.8409C120.521 19.1218 121.133 18.5096 122.127 18.5096C122.923 18.5096 123.688 18.8312 124.024 19.0721L124.315 17.8487C123.963 17.589 123.153 17.2862 122.189 17.2862C120.108 17.2862 119.095 18.5865 119.095 19.9478C119.095 21.294 120.013 22.2728 121.757 22.839C122.935 23.2215 123.454 23.7878 123.454 24.6287C123.454 25.5315 122.735 26.1428 121.65 26.1428C120.594 26.1428 119.645 25.8062 118.713 25.149L119.049 26.7699C119.553 27.1065 120.518 27.4262 121.573 27.4262C123.776 27.4262 124.938 26.2328 124.938 24.489C124.938 22.8399 123.79 21.9371 122.092 21.3559Z" fill="white" stroke="white" stroke-linecap="round" stroke-linejoin="round" />
<path id="Vector_9" opacity="0.6" d="M117.333 18.4721L116.192 20.1409C116.041 20.3687 115.824 20.693 115.672 20.964H115.651C115.5 20.6807 115.334 20.4059 115.153 20.1409L114.015 18.4721H112.228L114.802 22.328V25.3834H116.427V22.2962L118.994 18.473L117.333 18.4721Z" fill="white" stroke="white" stroke-linecap="round" stroke-linejoin="round" />
<path id="Vector_10" opacity="0.6" d="M94.9609 18.4721H93.2819V25.3834H97.734V23.9424H94.9609V18.4721Z" fill="white" stroke="white" stroke-linecap="round" stroke-linejoin="round" />
<path id="Vector_11" opacity="0.6" d="M100.212 18.4721H98.5328V25.3824H100.212V18.4721Z" fill="white" stroke="white" stroke-linecap="round" stroke-linejoin="round" />
<path id="Vector_12" opacity="0.6" d="M103.839 18.4721H101.51V25.3834H103.839C105.832 25.3834 107.543 24.084 107.543 21.9277C107.543 19.7715 105.832 18.4721 103.839 18.4721ZM103.646 23.9424H103.126V19.9112H103.646C104.849 19.9112 105.866 20.5824 105.866 21.9259C105.866 23.2693 104.846 23.9424 103.646 23.9424Z" fill="white" stroke="white" stroke-linecap="round" stroke-linejoin="round" />
</g>
<g id="middle_ouline">
<path id="Vector_13" d="M60.266 17.799L57.5472 24.7637H59.1288L59.6594 23.3228H61.9338L62.4757 24.7637H64.1435L61.4247 17.799H60.266ZM60.071 22.0553L60.5688 20.6715C60.6584 20.4425 60.7308 20.2072 60.7854 19.9674H60.8069C60.8665 20.2058 60.9388 20.4408 61.0235 20.6715L61.5222 22.0581L60.071 22.0553Z" fill="#004A91" stroke="#004A91" stroke-linecap="round" stroke-linejoin="round" />
<path id="Vector_14" d="M117.872 17.8533L116.734 19.5211C116.583 19.749 116.366 20.0733 116.214 20.3443H116.193C116.042 20.061 115.876 19.7862 115.695 19.5211L114.558 17.8533H112.771L115.349 21.7093V24.7636H116.973V21.6765L119.54 17.8533H117.872Z" fill="#004A91" stroke="#004A91" stroke-linecap="round" stroke-linejoin="round" />
<path id="Vector_15" d="M122.634 20.7362C121.609 20.3846 121.058 19.8643 121.058 19.2221C121.058 18.503 121.67 17.8909 122.664 17.8909C123.46 17.8909 124.225 18.2124 124.562 18.4534L124.852 17.2299C124.5 16.9702 123.69 16.6674 122.726 16.6674C120.646 16.6674 119.632 17.9677 119.632 19.329C119.632 20.6752 120.55 21.654 122.294 22.2202C123.472 22.6027 123.992 23.169 123.992 24.0099C123.992 24.9127 123.272 25.5249 122.187 25.5249C121.131 25.5249 120.182 25.1884 119.25 24.5302L119.586 26.1521C120.092 26.4887 121.055 26.8084 122.111 26.8084C124.314 26.8084 125.477 25.6149 125.477 23.8712C125.48 22.2202 124.333 21.3174 122.634 20.7362Z" fill="#004A91" stroke="#004A91" stroke-linecap="round" stroke-linejoin="round" />
<path id="Vector_16" d="M100.755 17.8533H99.0756V24.7636H100.755V17.8533Z" fill="#004A91" stroke="#004A91" stroke-linecap="round" stroke-linejoin="round" />
<path id="Vector_17" d="M69.6559 19.943C69.6559 18.6437 68.605 17.8524 67.4247 17.8524H64.8466V24.7637H66.4609V22.0449H67.0562L68.9191 24.7637H70.7941L68.5947 21.6765C68.9173 21.5174 69.1883 21.2701 69.3761 20.9633C69.5639 20.6565 69.661 20.3027 69.6559 19.943ZM67.1772 20.723H66.4619V19.1715H67.1772C67.6103 19.1715 68.0434 19.4209 68.0434 19.9402C68.0425 20.484 67.6094 20.723 67.1772 20.723Z" fill="#004A91" stroke="#004A91" stroke-linecap="round" stroke-linejoin="round" />
<path id="Vector_18" d="M58.4162 19.6037C58.4162 17.753 56.8553 16.8652 55.4791 16.8652H52.5419V26.6255H54.01V22.3421H55.4791C56.8553 22.3421 58.4162 21.4552 58.4162 19.6037ZM55.2194 21.0877H54.01V18.1205H55.2194C56.0912 18.1205 56.9022 18.5949 56.9022 19.6046C56.9012 20.6293 56.0903 21.0877 55.2194 21.0877Z" fill="#004A91" stroke="#004A91" stroke-linecap="round" stroke-linejoin="round" />
<path id="Vector_19" d="M104.381 17.8533H102.052V24.7636H104.381C106.374 24.7636 108.085 23.4643 108.085 21.308C108.085 19.1518 106.374 17.8533 104.381 17.8533ZM104.186 23.3236H103.666V19.2924H104.186C105.389 19.2924 106.406 19.9636 106.406 21.3071C106.406 22.6505 105.389 23.3227 104.186 23.3227V23.3236Z" fill="#004A91" stroke="#004A91" stroke-linecap="round" stroke-linejoin="round" />
<path id="Vector_20" d="M95.5028 17.8524H93.8237V24.7637H98.2759V23.3227H95.5028V17.8524Z" fill="#004A91" stroke="#004A91" stroke-linecap="round" stroke-linejoin="round" />
<path id="Vector_21" d="M89.124 17.6902C87.2171 17.6902 85.4087 19.0871 85.4087 21.2968C85.4087 23.5281 87.2171 24.9259 89.124 24.9259C91.0309 24.9259 92.8496 23.529 92.8496 21.2968C92.8496 19.0881 91.0412 17.6902 89.124 17.6902ZM89.124 23.4418C88.0843 23.4418 87.1093 22.5981 87.1093 21.2968C87.1093 19.9956 88.0834 19.1631 89.124 19.1631C90.1646 19.1631 91.149 20.0068 91.149 21.2968C91.149 22.5868 90.1637 23.4418 89.124 23.4418Z" fill="#004A91" stroke="#004A91" stroke-linecap="round" stroke-linejoin="round" />
<path id="Vector_22" d="M110.49 17.799L107.771 24.7637H109.352L109.883 23.3228H112.158L112.7 24.7637H114.368L111.649 17.799H110.49ZM110.295 22.0562L110.794 20.6715C110.884 20.4426 110.956 20.2072 111.011 19.9674H111.032C111.092 20.2058 111.164 20.4408 111.249 20.6715L111.748 22.0581L110.295 22.0562Z" fill="#004A91" stroke="#004A91" stroke-linecap="round" stroke-linejoin="round" />
<path id="Vector_23" d="M76.7912 17.8524H74.9612L72.8378 20.8205V17.8524H71.1587V24.7637H72.8378V21.9146L74.9171 24.7637H76.8671L74.3762 21.2865L76.7912 17.8524Z" fill="#004A91" stroke="#004A91" stroke-linecap="round" stroke-linejoin="round" />
<path id="Vector_24" d="M83.3097 20.5824H80.635V17.8524H78.9559V24.7637H80.635V22.0224H83.3097V24.7637H84.9784V17.8524H83.3097V20.5824Z" fill="#004A91" stroke="#004A91" stroke-linecap="round" stroke-linejoin="round" />
</g>
<path id="top text" fill-rule="evenodd" clip-rule="evenodd" d="M58.4162 19.6037C58.4162 17.753 56.8553 16.8652 55.4791 16.8652H52.5419V26.6255H54.01V22.3421H55.4791C56.8553 22.3421 58.4162 21.4552 58.4162 19.6037ZM56.9022 19.6037C56.9022 20.6284 56.0912 21.0877 55.2194 21.0877H54.01V18.1205H55.2184C56.0903 18.1205 56.9012 18.5949 56.9012 19.6037H56.9022ZM64.1434 24.7599L61.4247 17.7952H60.2659L57.5472 24.7599H59.1287L59.6594 23.319H61.9337L62.4756 24.7599H64.1434ZM61.5184 22.0524H60.0709L60.5687 20.6715C60.6584 20.4425 60.7308 20.2072 60.7853 19.9674H60.8069C60.8665 20.2058 60.9388 20.4408 61.0234 20.6715L61.5184 22.0524ZM70.7903 24.7599L68.5947 21.6765C68.9173 21.5174 69.1883 21.2701 69.3761 20.9633C69.5639 20.6565 69.661 20.3027 69.6559 19.943C69.6559 18.6437 68.605 17.8524 67.4247 17.8524H64.8466V24.7637H66.4609V22.0449H67.0562L68.9191 24.7637L70.7903 24.7599ZM68.0425 19.943C68.0425 20.4849 67.6094 20.723 67.1762 20.723H66.4609V19.1715H67.1772C67.6094 19.1715 68.0425 19.4237 68.0425 19.943ZM76.8672 24.7627L74.3762 21.2865L76.7912 17.8534H74.9584L72.8378 20.8205V17.8534H71.1587V24.7637H72.8378V21.9146L74.9172 24.7637L76.8672 24.7627ZM84.9775 24.7627V17.8534H83.3097V20.5824H80.635V17.8534H78.9559V24.7637H80.635V22.0234H83.3106V24.7637L84.9775 24.7627ZM92.8525 21.294C92.8525 19.0843 91.0441 17.6874 89.1269 17.6874C87.2097 17.6874 85.4116 19.0843 85.4116 21.294C85.4116 23.5252 87.22 24.923 89.1269 24.923C91.0337 24.923 92.8497 23.529 92.8497 21.2968L92.8525 21.294ZM91.1519 21.294C91.1519 22.5943 90.1666 23.439 89.1269 23.439C88.0872 23.439 87.1122 22.5952 87.1122 21.294C87.1122 19.9927 88.0834 19.164 89.1241 19.164C90.1647 19.164 91.1491 20.0087 91.1491 21.2968L91.1519 21.294ZM98.2769 24.7627V23.3227H95.5028V17.8534H93.8237V24.7637L98.2769 24.7627ZM100.756 24.7627V17.8534H99.0756V24.7637L100.756 24.7627ZM108.087 21.3071C108.087 19.1509 106.375 17.8515 104.383 17.8515H102.052V24.7637H104.381C106.374 24.7637 108.085 23.4634 108.085 21.308L108.087 21.3071ZM106.408 21.3071C106.408 22.6496 105.39 23.3218 104.188 23.3218H103.667V19.2905H104.188C105.389 19.2934 106.407 19.9655 106.407 21.308L106.408 21.3071ZM114.37 24.7627L111.651 17.798H110.49L107.771 24.7637H109.352L109.883 23.3227H112.158L112.7 24.7637L114.37 24.7627ZM111.745 22.0552H110.296L110.794 20.6715C110.884 20.4425 110.956 20.2072 111.011 19.9674H111.032C111.092 20.2058 111.164 20.4408 111.249 20.6715L111.745 22.0552ZM119.537 17.8524H117.872L116.734 19.5212C116.582 19.749 116.366 20.0734 116.214 20.3443H116.192C116.042 20.061 115.876 19.7862 115.695 19.5212L114.557 17.8534H112.77L115.348 21.7093V24.7637H116.972V21.6765L119.537 17.8524ZM125.477 23.8721C125.477 22.2202 124.33 21.3174 122.632 20.7362C121.607 20.3846 121.056 19.8643 121.056 19.2221C121.056 18.503 121.668 17.8909 122.662 17.8909C123.458 17.8909 124.223 18.2124 124.56 18.4534L124.85 17.2299C124.498 16.9702 123.688 16.6674 122.724 16.6674C120.644 16.6674 119.63 17.9677 119.63 19.329C119.63 20.6752 120.548 21.654 122.292 22.2202C123.47 22.6027 123.99 23.169 123.99 24.0099C123.99 24.9127 123.271 25.524 122.185 25.524C121.129 25.524 120.181 25.1874 119.248 24.5302L119.584 26.1512C120.09 26.4877 121.053 26.8074 122.109 26.8074C124.317 26.8093 125.479 25.6159 125.479 23.8721H125.477Z" fill="white" />
<path id="underline" opacity="0.65" d="M54.8875 27.0296H94.3318" stroke="white" stroke-linecap="round" stroke-linejoin="round" />
<g id="Clip path group">
<mask id="mask0_0_1" style="mask-type:luminance" maskUnits="userSpaceOnUse" x="95" y="25" width="24" height="6">
<g id="clip-path-3">
<path id="Vector_25" d="M95.6538 26.183C96.954 26.7868 98.3591 27.1326 99.791 27.2011V29.109C99.791 29.469 99.9682 29.723 100.934 29.7071C101.883 29.6724 102.093 29.4127 102.093 29.0508V27.1402C103.472 27.008 104.851 26.723 106.23 26.408V28.3102C106.23 28.7311 106.101 29.0958 105.554 29.4811C104.685 30.0783 103.01 30.7411 100.934 30.8105C98.8572 30.8799 97.1838 30.1543 96.3138 29.3827C95.7663 28.8999 95.6576 28.4986 95.6576 28.0805V26.183M106.936 26.2496C108.288 25.9346 109.64 25.6111 110.992 25.3965V26.8918C111.867 26.2543 112.742 25.6627 113.617 25.148C115.178 25.118 116.74 25.3355 118.305 25.9721C117.146 26.0724 115.986 26.4071 114.828 26.9021C116.265 27.6509 117.597 28.5879 118.788 29.6883C117.119 28.9093 115.45 28.6365 113.781 28.6505C112.88 28.1875 111.95 27.782 110.997 27.4365V28.9018C109.645 29.1165 108.292 29.4399 106.94 29.7549L106.936 26.2496Z" fill="white" />
</g>
</mask>
<g mask="url(#mask0_0_1)">
<g id="Group">
<g id="Clip path group_2">
<mask id="mask1_0_1" style="mask-type:luminance" maskUnits="userSpaceOnUse" x="36" y="-38" width="104" height="74">
<g id="clip-path-4">
<path id="Vector_26" d="M139.947 -37.4376H36.5144V35.6986H139.947V-37.4376Z" fill="white" />
</g>
</mask>
<g mask="url(#mask1_0_1)">
<g id="Group_2">
<path id="flag_base_white" d="M124.466 31.7733C123.399 31.4711 122.434 30.8823 121.678 30.0708L121.539 29.9208L121.484 29.8336L121.432 29.7445C120.802 28.732 120.434 28.1977 119.269 27.7374L119.135 27.6877L118.998 27.6361L118.851 27.592L118.713 27.5489L118.565 27.5114L118.446 27.4636L118.353 27.3849L118.274 27.2855L118.215 27.1749L118.163 27.0558L118.135 26.9424L118.123 26.8374V26.7539L118.187 26.6189L118.254 26.4867L118.325 26.3583C118.573 25.9205 118.855 25.5145 119.105 25.0795L119.173 24.9511L119.244 24.8208L119.307 24.6858L119.244 24.6933L119.173 24.6999L119.098 24.7055L119.023 24.712C118.36 24.7411 117.804 24.6755 117.242 24.3905C117.092 24.3033 116.987 24.1945 116.826 24.1017L116.755 24.0624V24.0689L116.677 23.9864C116.45 23.6011 116.677 23.2945 116.123 23.0658L116.053 23.0395L115.977 23.018C115.696 22.9447 115.41 22.8911 115.122 22.8577L115.003 22.8417L114.887 22.8277L114.768 22.8145L114.657 22.8005L114.538 22.7883C113.153 22.6186 112.14 22.9383 110.799 23.0527L110.626 23.063H110.451C109.593 23.0002 109.474 22.6214 108.448 22.7733L108.364 22.7836H108.277L108.194 22.7892H108.039H107.959L107.884 22.7817C107.583 22.7442 107.336 22.6092 107.041 22.5324L106.969 22.5164L106.886 22.4986C106.417 22.4545 105.767 22.5614 105.292 22.6195L105.13 22.6439L104.956 22.6674L104.768 22.6927C103.259 22.9092 101.713 22.9833 100.198 22.7752L100.071 22.7555L99.941 22.7377L99.8135 22.7142L99.6916 22.6927C98.6482 22.5052 97.616 22.207 96.5585 22.0974L96.4272 22.0917L96.3007 22.0861C95.3632 22.0861 94.7341 22.2474 93.8135 21.9333L93.7497 21.9174L93.6822 21.8995L93.6232 21.8836L93.5557 21.8705L94.5972 32.0564H95.0725C95.6803 32.0757 96.2884 32.0305 96.8866 31.9214L97.0741 31.8839L97.2616 31.8464C98.125 31.6674 99.0204 31.4142 99.9035 31.3674L100.101 31.357H100.308H100.514H100.728C101.594 31.3767 102.468 31.4695 103.333 31.3927L103.447 31.3824L103.563 31.3711C104.161 31.3027 104.787 31.2999 105.352 31.5333L105.495 31.5924L105.633 31.6533L105.768 31.7161L105.902 31.7817L106.037 31.8445C107.373 32.5008 109.142 31.6645 110.476 31.328L110.61 31.2895L110.748 31.2558L110.895 31.2258C111.485 31.0834 112.098 31.0627 112.697 31.1649L112.812 31.1864L112.906 31.2117C113.636 31.4067 112.419 31.7095 112.267 31.8136L112.173 31.853L112.106 31.8905L112.07 31.928V31.958L112.11 31.9833L112.189 32.0049L112.268 32.0189C112.998 32.1014 113.88 31.8905 114.612 31.8052L114.751 31.7874L114.885 31.7714L115.028 31.7536C115.489 31.7002 115.946 31.6852 116.409 31.6767L116.597 31.6655L116.784 31.6533C117.272 31.6158 117.757 31.5595 118.241 31.4986L118.414 31.477L118.585 31.4555L118.759 31.4339L118.93 31.4142L119.097 31.3908C120.128 31.2502 121.187 31.2164 122.202 31.4958L122.273 31.5192L122.475 31.5727L122.47 31.5642C123.178 31.7386 123.709 31.9345 124.451 31.8811L124.55 31.8736L124.653 31.8642L124.752 31.8539L124.466 31.7733Z" fill="white" />
<path id="Vector_27" d="M122.91 31.0683L122.854 31.0233L122.786 30.9699L122.706 30.9127C122.365 30.6692 122.039 30.4056 121.729 30.1233L121.645 30.0418L121.565 29.9611L121.459 29.828L121.365 29.6911L121.29 29.5543L121.215 29.4221L121.156 29.2974L121.088 29.1783L121.021 29.0771L120.946 28.9955H120.877H120.81H120.739H120.525C120.301 29.0038 120.076 28.9891 119.855 28.9515L119.796 28.9336L119.761 28.9074C119.582 28.7199 119.677 28.7686 119.417 28.6561L119.369 28.6308L119.31 28.6093L119.263 28.5877L119.207 28.5643L119.148 28.5427L119.092 28.523C118.844 28.448 118.604 28.3796 118.355 28.5071L118.262 28.5502L118.168 28.5896L118.088 28.6168L118.026 28.6215L117.973 28.5736L117.937 28.5239L117.926 28.494L117.916 28.4818L117.899 28.4386L117.824 28.4077L117.736 28.3749H117.728L117.669 28.3552H117.655C117.589 28.3346 117.522 28.3168 117.452 28.299L117.372 28.283L117.289 28.2689C116.684 28.1527 116.016 28.1386 115.424 28.0477L115.301 28.0318L115.186 28.014L115.075 27.9943L115.21 28.0693L115.348 28.1424C116.379 28.6646 117.469 28.9646 118.587 29.2149L118.714 29.243L118.836 29.273L118.955 29.303C119.43 29.423 119.893 29.5055 120.362 29.6452L120.455 29.6705L120.53 29.6958C121.162 29.9771 121.685 30.6521 122.388 30.9465L122.566 31.0158L122.753 31.0749L122.951 31.1161L122.91 31.0683Z" fill="#004A91" />
<path id="Vector_28" d="M109.528 31.2605C109.508 30.6137 109.511 30.1712 108.965 29.7662L108.89 29.709L108.819 29.6499C108.288 29.2524 108.226 29.154 107.963 28.5249L107.908 28.4143L107.849 28.3112L107.755 28.3683L107.672 28.4255L107.588 28.4808C106.991 28.9196 106.552 29.2187 105.79 29.304L105.707 29.3133L105.613 29.3274C104.812 29.4212 104.092 29.813 103.328 30.038L103.205 30.0755L103.083 30.1093L102.957 30.1393L102.813 30.1702C101.981 30.3652 101.052 30.4299 100.251 30.713L100.184 30.7383L100.109 30.7637C99.424 31.0098 98.7536 31.294 98.1006 31.6149L97.9862 31.6627L97.8756 31.7058L97.7762 31.7452L97.9431 31.7199L98.1166 31.6927L98.2834 31.6674C99.2022 31.5183 100.145 31.3374 101.079 31.3543L101.229 31.3608L101.379 31.3674C102.24 31.4162 102.945 31.4987 103.817 31.4068L103.987 31.3946L104.161 31.3871L104.327 31.3768H104.49C105.405 31.3243 105.496 31.7668 106.311 31.9899L106.427 32.0199L106.557 32.0471C107.342 32.1887 108.368 32.0171 109.12 31.7658L109.275 31.7143L109.412 31.6646L109.539 31.6093V31.4387L109.528 31.2605Z" fill="#004A91" />
<path id="Vector_29" d="M95.5488 22.1864L95.6679 22.2146L95.7785 22.2417C96.191 22.3355 96.596 22.4124 96.9972 22.5642L97.1041 22.6055L97.1754 22.6392C97.4472 22.7733 97.6441 22.9833 97.8879 23.1455L98.0219 23.2289L98.0932 23.2646L98.1729 23.2964C98.4738 23.4071 98.8197 23.4286 99.1347 23.4783L99.2285 23.4924L99.3157 23.5055C99.8388 23.5692 99.8707 23.8121 100.309 23.9096L100.393 23.9292L100.476 23.9433L100.57 23.9574L100.653 23.9714L100.747 23.9817L100.833 23.9921C101.172 24.0171 101.508 24.0743 101.836 24.1627L101.939 24.1964L102.037 24.2264C102.404 24.3539 102.761 24.5077 103.135 24.6164L103.237 24.6427L103.345 24.6642L103.452 24.6839L103.555 24.7036C103.973 24.7589 104.392 24.7814 104.81 24.8377L104.921 24.8536L105.028 24.8733C105.369 24.9446 105.711 25.0899 106.042 25.2014L106.128 25.2286L106.212 25.253L106.295 25.2764L106.378 25.2961L106.316 25.1714L106.285 25.0289C106.255 24.6642 106.017 24.5724 105.785 24.3267L105.702 24.2377L105.639 24.1505C105.496 23.8589 105.427 23.2964 105.39 22.9721L105.362 22.7846L105.333 22.6027L105.137 22.6299L104.934 22.658C103.07 22.9224 101.372 23.0171 99.5125 22.6505L99.3504 22.6224L99.1882 22.5905L99.0335 22.5567C98.3838 22.433 97.7397 22.2867 97.0835 22.1714L96.9129 22.1414L96.7385 22.1114C96.3635 22.0627 95.9379 22.0983 95.5619 22.1114H95.4757H95.3922H95.3135L95.4279 22.1452L95.5488 22.1864Z" fill="#004A91" />
<path id="Vector_30" d="M116.677 25.6018L116.67 25.5193C116.662 25.3318 116.616 25.3243 116.456 25.2755L116.404 25.2577L116.345 25.2446L116.286 25.2343L116.227 25.2221L116.163 25.2099C115.632 25.1424 115.056 25.2643 114.536 25.3646L114.425 25.3899L114.318 25.4115C113.763 25.5273 113.214 25.6732 112.674 25.8483L112.576 25.8727L112.473 25.898L112.365 25.9215L112.491 25.9308L112.626 25.9411L112.757 25.9477C113.319 25.9861 113.887 26.003 114.452 26.0818L114.531 26.094L114.611 26.1099C114.916 26.168 115.191 26.2899 115.494 26.3471L115.574 26.3649L115.653 26.378L115.728 26.3902L115.808 26.3977C116.168 26.423 116.534 26.3874 116.889 26.4652L116.957 26.4849L117.04 26.5205C117.385 26.7821 117.248 26.9161 117.821 26.9677L117.904 26.9752L117.998 26.9855L118.092 26.993L118.112 26.8993L118.135 26.8055L118.163 26.7118L118.187 26.618L118.293 26.4361L118.401 26.2543L118.504 26.0761L118.619 25.8933L118.727 25.7115L118.83 25.5315L118.941 25.359L119.048 25.1761L118.98 25.1977L118.917 25.2174L118.849 25.239C118.422 25.3993 117.978 25.514 117.527 25.5811L117.419 25.5971L117.308 25.6149L117.201 25.629C117.079 25.629 116.802 25.6843 116.694 25.6186L116.677 25.6018Z" fill="#004A91" />
<path id="Vector_31" d="M95.8412 25.8661L96.0034 25.8783L96.1694 25.8924C96.9344 25.9496 97.84 26.1071 98.5937 25.9749L98.709 25.9608L98.8197 25.9477L98.9303 25.9336L99.0447 25.9196C99.6522 25.8258 100.418 26.0068 101.041 26.0658L101.175 26.0818L101.309 26.1014L101.558 26.1314L101.642 26.1436L101.741 26.1614L101.835 26.1718L101.928 26.1858C102.21 26.2177 102.491 26.2383 102.772 26.2589L102.906 26.2711L103.053 26.2814V26.2749C103.274 26.288 103.495 26.2964 103.718 26.2993H103.869H104.019H104.177L104.006 26.2618L103.835 26.2261L103.662 26.1924C103.214 26.0986 102.681 26.018 102.167 25.9111H102.16L102.018 25.8802C101.74 25.8223 101.467 25.7404 101.202 25.6355L101.099 25.5999L100.965 25.5483H100.96L100.885 25.5164L100.81 25.4846C100.205 25.1968 99.7947 25.2793 99.1665 25.2033L99.0831 25.1874L98.9997 25.1714L98.9059 25.1518L98.8225 25.1302C98.2197 24.9427 97.7481 24.7552 97.135 24.6183C96.5782 24.4794 96.0377 24.2821 95.5225 24.0296L95.4156 23.9686L95.4212 23.9855C95.0262 23.7773 94.6113 23.6093 94.1828 23.4839L94.0206 23.4427L93.8659 23.4033L93.7037 23.3696L93.9897 25.8277L94.0694 25.8202L94.1481 25.8127H94.2315C94.7697 25.7996 95.3022 25.8464 95.8412 25.8661Z" fill="#004A91" />
<path id="Vector_32" d="M99.6147 29.5168L99.7301 29.4886L99.8726 29.4586C101.998 29.063 103.969 28.7686 105.96 27.8574L106.053 27.8124L106.137 27.773L106.05 27.7833L105.951 27.7964L105.848 27.8124L105.733 27.8358C105.423 27.8939 105.123 27.9502 104.81 27.998L104.672 28.0139L104.529 28.028C104.262 28.0561 104.031 28.028 103.769 28.0458L103.65 28.0533L103.539 28.0655L103.42 28.0796C102.692 28.2186 101.947 28.2373 101.213 28.1349L101.047 28.1152L100.873 28.0955L100.699 28.0758L100.533 28.0561C99.5641 27.9249 98.876 28.0008 97.9272 28.1377L97.7885 28.1555L97.646 28.1714C96.7085 28.2577 95.7251 28.2268 94.7866 28.2305H94.5991H94.4116H94.2241L94.5851 31.5014L94.6994 31.448L94.8185 31.3946L94.9376 31.3449C95.6801 31.0055 96.4376 30.6886 97.1632 30.3239L97.2569 30.2799L97.3507 30.2368C98.0182 29.9264 98.786 29.7164 99.5013 29.5468L99.6147 29.5168Z" fill="#004A91" />
<path id="Vector_33" d="M121.959 31.389L121.876 31.3412C121.109 30.8415 120.958 30.7683 120.014 30.564L119.82 30.5265L119.618 30.4871C118.668 30.3193 117.716 30.1524 116.782 29.9012L116.643 29.8674L116.509 29.828L116.372 29.7924L116.237 29.753C115.854 29.6647 115.489 29.5163 115.153 29.3133C115.021 29.2037 114.884 29.0968 114.74 29.0002L114.696 28.9608L114.621 28.9112L114.55 28.8652C113.936 28.5221 112.938 28.3533 112.249 28.163L112.087 28.1237L111.929 28.0815L111.778 28.0402L111.854 28.5493L111.886 29.093L111.898 29.6471V30.1852L111.981 30.2621L112.065 30.3371L112.147 30.4121L112.234 30.4918C112.522 30.7515 112.797 31.0158 113.062 31.299L113.114 31.3608L113.13 31.3983L113.114 31.434L113.078 31.4696L113.019 31.5033L112.939 31.5408L112.846 31.5765L112.747 31.614L112.639 31.6496L112.529 31.6852L112.422 31.7246L112.319 31.7621L112.232 31.7996L112.152 31.839L112.089 31.8783L112.049 31.9177L112.041 31.959L112.049 31.9862L112.084 32.0115L112.128 32.0274L112.196 32.0405L112.276 32.0527L112.369 32.0583H112.469H112.576H112.686L112.797 32.0527L112.912 32.0443C113.426 32.0087 113.943 31.8962 114.46 31.8446L114.674 31.8212L114.883 31.7968L115.093 31.7752L115.307 31.7555L115.512 31.7396L115.726 31.7218C116.328 31.6749 116.896 31.6674 117.497 31.5915L117.616 31.5774L117.726 31.5633C118.111 31.5249 118.49 31.4696 118.875 31.4293L118.985 31.418L119.104 31.404L119.215 31.3918C120.172 31.298 120.881 31.2343 121.84 31.4255L121.934 31.4433L122.033 31.463L122.127 31.479L122.043 31.4358L121.959 31.389Z" fill="#004A91" />
<g id="Group_3" opacity="0.65">
<path id="Vector_34" d="M112.989 31.1827C112.802 31.0346 112.652 30.8602 112.478 30.698L112.423 30.6446L112.367 30.5892C112.097 30.3146 111.753 30.1205 111.504 29.8252L111.424 29.7127L111.368 29.5983L111.42 29.4596C111.556 28.9327 111.169 28.1114 110.925 27.6427L110.866 27.5302L110.988 27.5143L111.11 27.4946L111.238 27.4749C112.05 27.3436 112.685 27.1739 113.51 27.3933L113.637 27.4271L113.752 27.4608L113.871 27.4983C114.151 27.5918 114.437 27.6679 114.726 27.7261L114.861 27.7458L114.995 27.7599C115.386 27.778 115.778 27.7689 116.167 27.7327L116.318 27.7243L116.464 27.7186H116.608H116.754L116.898 27.7252L117.032 27.7327C117.331 27.7571 117.429 27.8264 117.614 28.0496L117.673 28.1171L117.728 28.1789L117.783 28.2024H117.862C118.008 28.172 118.151 28.1284 118.29 28.0721L118.32 28.0636L118.424 28.0421H118.518L118.644 28.0721L118.763 28.1171L118.857 28.1705L118.905 28.1986C119.004 28.2764 119.106 28.3496 119.209 28.4199L119.293 28.4733H119.305L119.982 28.4593H119.975L120.188 28.4527H120.263H120.334H120.414H120.484L120.398 28.3768L120.295 28.3018L120.196 28.2286L120.089 28.1536C119.683 27.8918 119.241 27.6918 118.776 27.5602L118.626 27.5227L118.472 27.4889C118.266 27.4786 118.069 27.5339 117.881 27.5443H117.843H117.791L117.748 27.5386H117.7C117.465 27.5152 117.318 27.2921 117.21 27.1055L117.158 27.0268L117.095 26.9508V26.9733C116.97 26.8486 116.814 26.8796 116.589 26.8796H116.505L116.411 26.8852C116.111 26.9174 115.808 26.9054 115.512 26.8496L115.428 26.8374L115.349 26.8243L115.27 26.8121L115.19 26.7989L115.111 26.7849C114.467 26.6602 113.805 26.6602 113.175 26.5121L113.095 26.4858L113.013 26.4605L112.933 26.4333C112.666 26.3253 112.386 26.251 112.1 26.2121L112.007 26.2036H111.888C111.429 26.2123 110.972 26.2559 110.521 26.3339L110.389 26.3518L110.268 26.3658L110.145 26.3818L110.022 26.3939L109.938 26.2336L109.845 26.0714C109.626 25.6374 109.207 25.2371 109.207 24.7261V24.5977L109.215 24.4693C109.272 23.9921 108.733 23.5083 108.498 23.1296L108.404 22.9693L108.325 22.8071L108.245 22.8005H108.186C107.831 22.8174 107.726 22.7564 107.39 22.6702L107.323 22.6505L107.248 22.6308L107.177 22.6093L107.109 22.5896L107.039 22.5718L106.975 22.5521L106.908 22.5361L106.848 22.5183L106.789 22.5052C106.602 22.5052 106.398 22.5127 106.215 22.5286L106.104 22.5361L105.997 22.5436L105.903 22.5502L105.911 22.7105L105.939 22.8689C106.033 23.2711 106.202 23.888 106.486 24.1927L106.593 24.3202L106.716 24.4214C107.107 24.8668 107.112 25.1302 107.152 25.6918L107.168 25.8455L107.196 25.9983L107.034 26.0321L106.872 26.0658L106.71 26.1033C105.515 26.3846 104.568 26.5721 103.328 26.5918L103.15 26.5983H102.972H102.794C102.352 26.5983 101.886 26.5983 101.448 26.5664L101.313 26.5524L101.175 26.5364C100.772 26.483 100.376 26.4061 99.9709 26.3621L99.8369 26.3508L99.6981 26.3424H99.5556H99.445L99.3259 26.348C98.5553 26.4314 97.7931 26.5955 97.0131 26.513L96.8978 26.5064L96.7788 26.5008C95.9678 26.4643 95.1578 26.3771 94.3469 26.3283L94.2278 26.318L94.1134 26.3105L93.9944 26.3049L94.2241 27.7111L94.2916 27.6971L94.3628 27.6858L94.4303 27.6699C95.1953 27.4824 95.5806 27.503 96.3859 27.5808L96.5322 27.5939L96.6747 27.608L96.8209 27.6202C97.1881 27.6584 97.5578 27.6665 97.9263 27.6446L98.0359 27.6343L98.1438 27.6202C98.4663 27.5677 98.7944 27.4889 99.1178 27.458L99.2247 27.4486L99.3325 27.4421H99.4394L99.6456 27.4524L99.8519 27.4655L100.058 27.4852C100.596 27.5386 101.13 27.6389 101.666 27.7111L101.868 27.7374L102.078 27.7571C102.598 27.804 103.121 27.8062 103.641 27.7636L103.835 27.7496L104.023 27.7318L104.21 27.7121C105.323 27.6079 106.428 27.4307 107.517 27.1814L107.659 27.1514L107.793 27.1243L107.932 27.0961L108.04 27.2443L108.138 27.3933L108.242 27.5433C108.382 27.7758 108.646 28.1499 108.732 28.3946L108.755 28.4883L108.768 28.5821C108.777 28.8905 108.828 28.9702 109.049 29.1718L109.119 29.2393L109.199 29.3077L109.27 29.3752C109.826 29.8833 110.262 30.2339 110.24 31.0693V31.2277V31.3899L110.463 31.3402C111.197 31.1939 112.265 30.9333 112.985 31.2258L113.108 31.2849L113.044 31.2314L112.989 31.1827Z" fill="#9CB8D2" />
<path id="Vector_35" d="M124.668 31.8277L124.596 31.8043L124.529 31.7789C123.849 31.6139 123.299 31.3908 122.64 31.1658L122.525 31.1236L122.41 31.0824C121.412 30.7439 121.437 30.4908 120.687 29.9621L120.593 29.9124L120.49 29.8646L120.368 29.813L120.242 29.7689C120.019 29.7005 119.794 29.6405 119.569 29.5814L119.519 29.5702C118.833 29.4014 118.136 29.2711 117.456 29.0846L117.348 29.0574L117.242 29.0274C116.345 28.8108 115.548 28.4133 114.71 28.0318L114.572 27.9699L114.438 27.908L114.295 27.8489L112.015 27.7964L112.169 27.8302L112.32 27.8677L112.478 27.9014C113.351 28.1208 114.335 28.1771 115.081 28.7283L115.148 28.7799L115.216 28.8277C115.8 29.2411 116.779 29.3743 117.473 29.558L117.604 29.588L117.731 29.6218L117.893 29.6639L118.055 29.7033C118.243 29.7502 118.43 29.7924 118.618 29.8346V29.8458L119.889 30.1608L119.883 30.1496C120.337 30.2801 120.769 30.4759 121.167 30.7308L121.278 30.8021L121.385 30.8714C122.361 31.5127 123.158 31.5352 124.261 31.7499L124.423 31.7836L124.581 31.8174L124.739 31.8568L124.668 31.8277Z" fill="#9CB8D2" />
<path id="Vector_36" d="M95.1044 23.4708L95.2122 23.5205C95.6809 23.7652 96.1356 24.0146 96.6541 24.1543L96.7403 24.1777L96.8275 24.203L96.9147 24.2246L97.0084 24.2508C97.3894 24.3406 97.7649 24.4518 98.1334 24.5836L98.1972 24.6071L98.2562 24.6286C98.6316 24.7818 99.0252 24.8861 99.4272 24.9389L99.55 24.9586L99.6728 24.9746L99.7994 24.9943L99.9259 25.0121L100.048 25.028L100.171 25.0477C100.682 25.1248 101.179 25.2748 101.648 25.493L101.732 25.5268L101.825 25.5586C102.22 25.7143 102.564 25.7518 102.977 25.8061L103.06 25.8155L103.147 25.8258L103.222 25.838L103.298 25.8455H103.323L103.395 25.8596L103.47 25.8718L103.541 25.8821H103.566C103.868 25.9364 104.167 26.0039 104.464 26.078L104.551 26.0977L104.634 26.1174L104.717 26.1333L104.8 26.153L104.911 26.1268L105.017 26.1033L105.133 26.0771L105.236 26.0518L105.343 26.0264L105.458 26.0021C105.64 25.9571 105.823 25.9168 106.005 25.8755L106.119 25.8493L106.23 25.8258L106.345 25.8005L106.459 25.7743L106.575 25.7489L106.476 25.7208L106.368 25.6993L106.262 25.6814L106.154 25.6674C105.703 25.6093 105.256 25.6449 104.823 25.4714L104.702 25.4377L104.57 25.4096L104.477 25.3936V25.388L104.393 25.3768C104.029 25.3233 103.654 25.283 103.288 25.2521L103.217 25.2464C103.085 25.2296 102.953 25.2108 102.822 25.1855L102.692 25.1574L102.553 25.1236L102.419 25.088L102.287 25.0486C101.791 24.9005 101.308 24.7093 100.815 24.5536L100.688 24.5143L100.577 24.4824C100.161 24.3802 99.6756 24.3811 99.2781 24.2433L99.1909 24.2058L99.1159 24.1636L99.0484 24.1149L98.9809 24.0708L98.9012 24.0352L98.8075 24.0014C98.3303 23.8608 97.8016 23.8843 97.3347 23.7361L97.2475 23.7024L97.1678 23.6714C96.8762 23.5318 96.6409 23.3011 96.3559 23.1511L96.2772 23.1118L96.1947 23.0761L96.1262 23.048L96.0475 23.018C95.7203 22.9064 95.3912 22.8211 95.0687 22.703L94.9937 22.6721L94.9262 22.6439C94.5657 22.4822 94.2176 22.2942 93.8847 22.0814L93.8022 22.0318L93.7225 21.9783L93.6437 21.9249L93.5603 21.8696L93.6916 23.0508L93.7506 23.0668L93.8144 23.0799L93.8734 23.0939L93.9409 23.108C94.3422 23.1914 94.6206 23.2374 95.0022 23.4183L95.1044 23.4708Z" fill="#9CB8D2" />
<path id="Vector_37" d="M107.247 27.5621L107.163 27.6211L107.08 27.6821C106.284 28.3383 106.022 28.4555 104.998 28.6693L104.875 28.6946L104.756 28.7227C103.927 28.8708 103.226 29.2027 102.427 29.4521L102.304 29.483L102.183 29.5168L101.98 29.5674L101.774 29.6096L101.564 29.6489C100.956 29.7577 100.345 29.8121 99.7347 29.9302L99.5369 29.9714L99.3353 30.0174C98.9129 30.1344 98.4985 30.2791 98.095 30.4505L97.9525 30.5058L97.8138 30.5649L97.675 30.6221C96.7638 31.013 95.8882 31.4658 94.9975 31.9046L94.8672 31.9664L94.7444 32.0283L94.6132 32.0893H94.7566H94.9038L95.0416 32.0827L95.1803 32.0771C95.6153 32.0574 96.0457 32.033 96.4797 31.9918L96.625 31.9739L96.7722 31.958L96.9194 31.9383L97.09 31.853L97.2607 31.7705L97.435 31.6833L97.5972 31.5961L97.7632 31.5089L97.9338 31.4236L98.1007 31.3299L98.2666 31.2446L98.4372 31.1593L98.6116 31.0768C99.8547 30.4261 100.912 30.3699 102.239 30.0849L102.413 30.0455L102.579 30.0014L102.698 29.9677L102.821 29.9283C103.633 29.6677 104.403 29.2374 105.269 29.1783L105.363 29.1708L105.456 29.1633C106.3 29.078 106.788 28.7002 107.436 28.2099L107.53 28.1443L107.624 28.0814L107.722 28.0158L107.338 27.5077L107.247 27.5621Z" fill="#9CB8D2" />
<path id="Vector_38" d="M110.644 25.8099L110.664 25.8689L110.779 25.8389L110.898 25.8108C112.006 25.538 113.117 25.2849 114.225 25.013L114.412 24.9718L114.6 24.9324L114.787 24.893C115.144 24.8368 115.56 24.7186 115.92 24.7702L115.976 24.7824L116.031 24.7899L116.09 24.8021L116.149 24.8124L116.208 24.8246L116.265 24.8386L116.327 24.8508L116.387 24.8583L116.454 24.8658L116.522 24.8761L116.597 24.9239L116.641 24.9811L116.665 25.0561L116.672 25.1377L116.835 25.1274C117.607 25.0906 118.372 24.9664 119.116 24.7571L119.29 24.7036L119.171 24.7102H119.052C118.635 24.7327 118.217 24.6986 117.809 24.6089L117.725 24.5874L117.658 24.5949C117.361 24.6333 117.062 24.6586 116.762 24.6961L116.694 24.7036L116.627 24.7139L116.658 24.6202L116.677 24.5152L116.661 24.4214L116.594 24.3661C116.495 24.3505 116.398 24.3267 116.304 24.2949L116.252 24.2808L116.209 24.2677C116.127 24.2439 116.041 24.2291 115.955 24.2236H115.9H115.833L115.766 24.2293C114.987 24.3174 114.237 24.5546 113.481 24.7524L113.302 24.7964L113.115 24.8443L112.917 24.8883C112.124 25.0533 111.304 25.0983 110.525 25.3514L110.477 25.3674L110.438 25.3871L110.454 25.4461C110.49 25.5633 110.621 25.703 110.644 25.8099Z" fill="#9CB8D2" />
</g>
</g>
</g>
</g>
</g>
</g>
</g>
<path id="Vector_39" fill-rule="evenodd" clip-rule="evenodd" d="M95.1935 26.694C96.4946 27.2981 97.9006 27.6438 99.3335 27.7121V29.6237C99.3335 29.9837 99.5107 30.2378 100.476 30.2218C101.426 30.1871 101.635 29.9274 101.635 29.5656V27.6549C103.014 27.5228 104.393 27.2378 105.772 26.9228V28.8278C105.772 29.2487 105.644 29.6134 105.096 29.9987C104.227 30.5959 102.553 31.2587 100.476 31.3281C98.3997 31.3974 96.7263 30.6718 95.8563 29.9003C95.3088 29.4174 95.2 29.0162 95.2 28.599V26.694M106.478 26.7606C107.83 26.4456 109.183 26.1221 110.535 25.9074V27.4028C111.409 26.7653 112.284 26.1737 113.16 25.659C114.721 25.629 116.283 25.8465 117.847 26.4831C116.688 26.5834 115.529 26.9181 114.37 27.4131C115.808 28.1619 117.14 29.0989 118.33 30.1993C116.661 29.4203 114.993 29.1474 113.324 29.1615C112.422 28.6985 111.492 28.293 110.539 27.9474V29.4128C109.188 29.6274 107.835 29.9509 106.483 30.2659L106.478 26.7606Z" fill="#004A91" />
<path id="Vector_40" fill-rule="evenodd" clip-rule="evenodd" d="M95.6538 26.1821C96.954 26.7859 98.3591 27.1317 99.791 27.2002V29.109C99.791 29.469 99.9682 29.723 100.934 29.7071C101.883 29.6724 102.093 29.4127 102.093 29.0508V27.1402C103.472 27.008 104.851 26.723 106.23 26.408V28.3093C106.23 28.7302 106.101 29.0949 105.554 29.4802C104.685 30.0774 103.01 30.7402 100.934 30.8096C98.8572 30.879 97.1838 30.1533 96.3138 29.3818C95.7663 28.899 95.6576 28.4977 95.6576 28.0805V26.1821M106.936 26.2487C108.288 25.9337 109.64 25.6102 110.992 25.3955V26.8908C111.867 26.2533 112.742 25.6618 113.617 25.1471C115.178 25.1171 116.74 25.3346 118.305 25.9712C117.146 26.0715 115.986 26.4062 114.828 26.9012C116.265 27.65 117.597 28.587 118.788 29.6874C117.119 28.9083 115.45 28.6355 113.781 28.6496C112.88 28.1866 111.95 27.7811 110.997 27.4355V28.9008C109.645 29.1155 108.292 29.439 106.94 29.754L106.936 26.2487Z" fill="white" />
<g id="Clip path group_3">
<mask id="mask2_0_1" style="mask-type:luminance" maskUnits="userSpaceOnUse" x="95" y="25" width="24" height="6">
<g id="clip-path-5">
<path id="Vector_41" d="M95.6538 26.183C96.954 26.7868 98.3591 27.1325 99.791 27.2011V29.109C99.791 29.469 99.9682 29.723 100.934 29.7071C101.883 29.6724 102.093 29.4127 102.093 29.0508V27.1402C103.472 27.008 104.851 26.723 106.23 26.408V28.3093C106.23 28.7302 106.101 29.0949 105.554 29.4802C104.685 30.0774 103.01 30.7402 100.934 30.8096C98.8572 30.879 97.1838 30.1533 96.3138 29.3818C95.7663 28.899 95.6576 28.4977 95.6576 28.0805V26.183M106.936 26.2496C108.288 25.9346 109.64 25.6111 110.992 25.3965V26.8918C111.867 26.2543 112.742 25.6627 113.617 25.148C115.178 25.118 116.74 25.3355 118.305 25.9721C117.146 26.0724 115.986 26.4071 114.828 26.9011C116.265 27.65 117.597 28.587 118.788 29.6874C117.119 28.9083 115.45 28.6355 113.781 28.6496C112.88 28.1865 111.95 27.781 110.997 27.4355V28.9008C109.645 29.1155 108.292 29.439 106.94 29.754L106.936 26.2496Z" fill="white" />
</g>
</mask>
<g mask="url(#mask2_0_1)">
<g id="Group_4">
<g id="Clip path group_4">
<mask id="mask3_0_1" style="mask-type:luminance" maskUnits="userSpaceOnUse" x="36" y="3" width="104" height="75">
<g id="clip-path-6">
<path id="Vector_42" d="M139.947 3.92303H36.5144V77.0593H139.947V3.92303Z" fill="white" />
</g>
</mask>
<g mask="url(#mask3_0_1)">
<g id="Group_5">
<path id="Vector_43" d="M121.539 29.9208L121.678 30.0708C122.434 30.8823 123.399 31.4711 124.466 31.7733L124.763 31.8586L124.665 31.8689L124.562 31.8783L124.462 31.8858C123.719 31.9392 123.186 31.7424 122.475 31.567L122.356 31.5361L122.228 31.5042C121.209 31.223 120.147 31.2539 119.108 31.3955L118.941 31.4189L118.771 31.4386L118.596 31.4602L118.426 31.4817L118.252 31.5033C117.768 31.5661 117.282 31.6205 116.794 31.658L116.607 31.6702L116.419 31.6824C115.955 31.6917 115.5 31.7058 115.039 31.7592L114.895 31.777L114.761 31.793L114.622 31.8108C113.89 31.8961 113.008 32.107 112.279 32.0245L112.2 32.0105L112.12 31.9889L112.081 31.9636V31.9336L112.116 31.8961L112.184 31.8586L112.278 31.8192C112.429 31.7152 113.646 31.4124 112.916 31.2174L112.822 31.192L112.707 31.1705C112.109 31.0684 111.496 31.0892 110.906 31.2314L110.76 31.2614L110.621 31.2952L110.487 31.3327C109.153 31.6692 107.385 32.5017 106.048 31.8492L105.913 31.7855L105.779 31.7199L105.644 31.657L105.505 31.5961L105.363 31.537C104.8 31.3036 104.171 31.3064 103.573 31.3749L103.458 31.387L103.343 31.3974C102.477 31.4742 101.604 31.3814 100.738 31.3617H100.524H100.318H100.112L99.9138 31.372C99.0307 31.4189 98.1326 31.672 97.2729 31.8511L97.0854 31.8886L96.8979 31.9261C96.3001 32.0357 95.6923 32.0816 95.0848 32.063H94.6095L93.5566 21.8705L93.6241 21.8836L93.6832 21.8995L93.7507 21.9174L93.8145 21.9333C94.7341 22.2474 95.3595 22.0824 96.3007 22.0861L96.4273 22.0917L96.5613 22.0992C97.6179 22.2089 98.651 22.508 99.6945 22.6945L99.8163 22.7161L99.9438 22.7395L100.074 22.7574L100.201 22.777C101.716 22.9852 103.261 22.9111 104.771 22.6945L104.959 22.6683L105.133 22.6449L105.295 22.6205C105.772 22.5624 106.42 22.4555 106.889 22.4995L106.971 22.5174L107.043 22.5333C107.333 22.6102 107.581 22.7452 107.886 22.7827L107.961 22.7902H108.041H108.196L108.279 22.7845H108.366L108.45 22.7742C109.481 22.6214 109.596 23.0011 110.454 23.0639H110.629L110.802 23.0536C112.144 22.9392 113.156 22.6195 114.541 22.7883L114.66 22.8005L114.77 22.8145L114.889 22.8277L115 22.8417L115.119 22.8577C115.407 22.8904 115.691 22.943 115.971 23.0152L116.047 23.0367L116.118 23.062C116.672 23.2908 116.445 23.5974 116.673 23.9827L116.766 24.083L116.823 24.1308L116.885 24.1758C117.565 24.6445 118.217 24.7439 119.02 24.7083L119.095 24.7017L119.17 24.6961L119.241 24.6895L119.304 24.682L119.241 24.817L119.17 24.9474L119.104 25.0777C118.853 25.5136 118.571 25.9214 118.324 26.3564L118.252 26.4849L118.185 26.618L118.121 26.753V26.8364L118.133 26.9414L118.161 27.0539L118.213 27.173L118.272 27.2836L118.351 27.383L118.444 27.4617L118.564 27.5095L118.711 27.547L118.849 27.5911L118.997 27.6352L119.134 27.6867L119.269 27.7364C120.433 28.1958 120.801 28.7311 121.431 29.7436L121.483 29.8327L121.538 29.9199" fill="white" />
<path id="Vector_44" d="M118.402 29.1446L119.495 29.3883L119.563 29.5468L119.671 29.7343L119.785 29.9424L119.893 30.144L119.958 30.3277L119.971 30.4562L119.899 30.5171L119.721 30.4918L119.646 30.4721C119.445 30.4142 119.251 30.3343 119.068 30.234L119.012 30.204L118.956 30.1721C118.817 30.0902 118.7 29.9761 118.615 29.8393C118.53 29.7025 118.478 29.5472 118.466 29.3865L118.434 29.2702L118.401 29.1455" fill="#E9EAEB" />
<path id="Vector_45" d="M118.28 27.5621L118.32 27.6089L118.359 27.6605C118.922 28.1977 119.494 28.6083 120.031 29.2186L120.134 29.3274L120.321 29.5411C120.544 29.7791 120.737 30.0432 120.896 30.3277L120.952 30.4214L121.008 30.5227C121.22 30.8957 121.54 31.1957 121.926 31.3833L122.097 31.4546L122.284 31.5174L122.486 31.5708L122.404 31.4321L122.277 31.2718C122.009 30.9221 121.669 30.5686 121.369 30.2405L121.159 30.0108L120.949 29.783C120.674 29.4614 120.36 29.1268 120.149 28.7583L120.066 28.6018L120.027 28.4649L118.28 27.5621Z" fill="#E9EAEB" />
<path id="Vector_46" d="M117.064 26.5486V26.6893C117.048 27.3371 117.697 28.0374 118.038 28.5502L118.142 28.704L118.693 28.5502L118.622 28.4274C118.329 27.9221 117.819 27.549 117.667 26.9724L117.639 26.8515L117.069 26.5486" fill="#E9EAEB" />
<path id="Vector_47" d="M93.5604 21.8696L93.6438 21.9249L93.7225 21.9783L93.8022 22.0318L93.8857 22.0814C94.2186 22.2942 94.5667 22.4822 94.9272 22.6439L94.9947 22.6721L95.0697 22.703C95.395 22.8202 95.726 22.9055 96.0485 23.018L96.1272 23.048L96.1957 23.0761L96.2791 23.1118L96.3579 23.1511C96.6391 23.3011 96.8782 23.5327 97.1697 23.6714L97.2494 23.7108L97.3366 23.7446C97.8054 23.8927 98.3322 23.8693 98.8094 24.0099L98.9032 24.0436L98.9829 24.0793L99.0504 24.1233L99.1179 24.173L99.1929 24.2152L99.28 24.2527C99.6766 24.3914 100.163 24.3896 100.579 24.4918L100.69 24.5236L100.817 24.563C101.311 24.7186 101.793 24.9099 102.289 25.058L102.421 25.0974L102.555 25.133L102.693 25.1668L102.824 25.1949C103.401 25.3064 103.995 25.3083 104.574 25.418L104.705 25.4461L104.827 25.4799C105.259 25.6533 105.707 25.6177 106.158 25.6758L106.265 25.6899L106.372 25.7077L106.48 25.7293L106.578 25.7574L106.463 25.7827L106.349 25.8089L106.233 25.8343L106.123 25.8577L106.008 25.883C105.826 25.9243 105.644 25.9646 105.462 26.0096L105.347 26.0339L105.24 26.0593L105.137 26.0855L105.021 26.1108L104.914 26.1343L104.804 26.1596L104.721 26.1399L104.638 26.1239L104.554 26.1043L104.468 26.0846C104.082 25.9908 103.693 25.9036 103.3 25.8427L103.224 25.8352L103.149 25.823L103.062 25.8127L102.979 25.8033C102.565 25.7489 102.222 25.7096 101.826 25.5558L101.733 25.5239L101.649 25.4902C101.18 25.272 100.683 25.122 100.172 25.0449L100.049 25.0252L99.9269 25.0093L99.8022 24.9952L99.6757 24.9755L99.5529 24.9596L99.4272 24.9389C99.0249 24.8862 98.6311 24.7819 98.2554 24.6286L98.1963 24.6071L98.1325 24.5836C97.7641 24.4518 97.3885 24.3406 97.0075 24.2508L96.9138 24.2255L96.8266 24.2039L96.7394 24.1786L96.6532 24.1552C96.1357 24.0136 95.6847 23.7652 95.2085 23.5205L95.1007 23.4708L94.9975 23.4193C94.6169 23.2383 94.3413 23.1924 93.9363 23.1089L93.8688 23.0949L93.8097 23.0808L93.746 23.0677L93.6869 23.0518L93.5557 21.8705" fill="#ED1C24" />
<path id="Vector_48" d="M93.9897 26.3133L94.2194 27.7196L94.2869 27.7055L94.3582 27.6942L94.4257 27.6783C95.1907 27.4908 95.576 27.5114 96.3813 27.5892L96.5285 27.6024L96.671 27.6164L96.8172 27.6286C97.1844 27.6668 97.5541 27.6749 97.9226 27.653L98.0322 27.6427L98.1401 27.6286C98.4626 27.5761 98.7907 27.4974 99.1141 27.4664L99.221 27.4571L99.3288 27.4505H99.4357L99.6419 27.4608L99.8482 27.4739L100.054 27.4936C100.593 27.5471 101.126 27.6474 101.662 27.7196L101.864 27.7449L102.074 27.7646C102.594 27.8116 103.117 27.8138 103.638 27.7711L103.832 27.7571L104.019 27.7392L104.207 27.7196C105.319 27.6154 106.424 27.4382 107.513 27.1889L107.656 27.1589L107.79 27.1317L107.928 27.1036L108.036 27.2517L108.135 27.4008L108.238 27.5508C108.378 27.7833 108.642 28.1574 108.728 28.4021L108.752 28.4911L108.764 28.5849C108.773 28.8933 108.825 28.973 109.045 29.1746L109.115 29.2421L109.195 29.3105L109.266 29.378C109.822 29.8861 110.258 30.2367 110.237 31.0721V31.2305V31.3927L110.459 31.343C111.193 31.1967 112.262 30.9361 112.982 31.2286L113.104 31.2877L113.041 31.2342L112.982 31.1808C112.794 31.0327 112.644 30.8583 112.471 30.6961L112.415 30.6427L112.359 30.5874C112.089 30.3127 111.746 30.1186 111.497 29.8233L111.417 29.7108L111.361 29.5964L111.412 29.4577C111.548 28.9308 111.162 28.1096 110.917 27.6408L110.858 27.5283L110.981 27.5124L111.103 27.4927L111.23 27.473C112.042 27.3417 112.679 27.1721 113.503 27.3914L113.629 27.4252L113.745 27.4589L113.864 27.4964C114.144 27.59 114.429 27.6661 114.719 27.7242L114.854 27.7439L114.988 27.758C115.379 27.7761 115.77 27.767 116.16 27.7308L116.311 27.7224L116.456 27.7167H116.599H116.746L116.889 27.7233L117.023 27.7308C117.322 27.7552 117.421 27.8246 117.605 28.0477L117.664 28.1152L117.72 28.1771L117.776 28.2005H117.862L117.956 28.1752L118.067 28.1377L118.186 28.1002L118.301 28.0664L118.415 28.043H118.509L118.636 28.073L118.755 28.118L118.848 28.1714L118.942 28.2267L119.026 28.2924L119.109 28.3533L119.195 28.4152L119.289 28.4742H119.36H119.44H119.51H119.585C119.781 28.4742 119.98 28.4667 120.176 28.4602H120.251H120.322H120.402H120.472L120.386 28.3852L120.283 28.3102L120.183 28.2371L120.077 28.1621C119.671 27.9002 119.229 27.7002 118.764 27.5686L118.614 27.5311L118.459 27.4974C118.079 27.4786 117.724 27.6849 117.406 27.4121L117.343 27.3427L117.279 27.2677L117.228 27.1889L117.181 27.1092C117.037 26.828 116.865 26.8805 116.579 26.8824H116.495L116.402 26.888C116.102 26.9203 115.799 26.9083 115.503 26.8524L115.42 26.8402L115.34 26.8271L115.262 26.8149L115.182 26.8017L115.102 26.7877C114.458 26.663 113.796 26.663 113.166 26.5149L113.087 26.4886L113.004 26.4633L112.924 26.4361C112.657 26.3281 112.378 26.2538 112.092 26.2149L111.998 26.2064H111.879C111.421 26.2152 110.964 26.2587 110.512 26.3367L110.381 26.3546L110.259 26.3686L110.136 26.3846L110.013 26.3967L109.931 26.2364L109.837 26.0742C109.619 25.6402 109.2 25.2399 109.2 24.7289V24.6005L109.207 24.4721C109.264 23.9939 108.725 23.5111 108.49 23.1324L108.396 22.9721L108.318 22.8099L108.238 22.8033H108.179C107.823 22.8202 107.718 22.7592 107.383 22.673L107.315 22.6533L107.24 22.6336L107.169 22.6121L107.102 22.5924L107.031 22.5746L106.968 22.5549L106.9 22.5389L106.841 22.5211L106.782 22.508C106.594 22.508 106.391 22.5155 106.207 22.5314L106.097 22.5389L105.99 22.5464L105.896 22.553L105.903 22.7133L105.932 22.8717C106.025 23.2739 106.194 23.8908 106.478 24.1955L106.585 24.3221L106.716 24.4214C107.107 24.8667 107.112 25.1302 107.152 25.6917L107.168 25.8455L107.196 25.9983L107.034 26.0321L106.872 26.0658L106.71 26.1033C105.515 26.3846 104.568 26.5721 103.328 26.5917L103.15 26.5983H102.972H102.794C102.352 26.5983 101.886 26.5983 101.448 26.5664L101.313 26.5524L101.175 26.5364C100.772 26.483 100.376 26.4061 99.971 26.3621L99.8369 26.3499L99.6982 26.3414H99.5557H99.4451L99.326 26.3471C98.5554 26.4305 97.7932 26.5946 97.0132 26.5111L96.8979 26.5046L96.7788 26.4989C95.9679 26.4624 95.1579 26.3752 94.3469 26.3264L94.2279 26.3161L94.1135 26.3086L93.9944 26.303" fill="#ED1C24" />
<path id="Vector_49" d="M112.015 27.7964L114.296 27.8499L114.438 27.9089L114.573 27.9708L114.711 28.0327C115.545 28.4133 116.342 28.8118 117.243 29.0283L117.349 29.0583L117.456 29.0855C118.38 29.3377 119.331 29.4877 120.244 29.768L120.371 29.8111L120.493 29.8627L120.596 29.9105L120.69 29.9602C121.44 30.4889 121.413 30.7411 122.413 31.0805L122.528 31.1218L122.643 31.1639C123.299 31.3899 123.852 31.613 124.532 31.7771L124.599 31.8033L124.669 31.8268L124.744 31.8568L124.586 31.8174L124.428 31.7836L124.265 31.7499C123.163 31.5352 122.366 31.5127 121.39 30.8714L121.282 30.803L121.172 30.7318C120.234 30.1121 119.127 29.9705 118.055 29.7005L117.893 29.6611L117.731 29.6189L117.604 29.5852L117.473 29.5552C116.779 29.3677 115.801 29.2393 115.216 28.8249L115.148 28.7771L115.083 28.7339C114.338 28.1827 113.354 28.1264 112.481 27.9061L112.323 27.8724L112.173 27.8349L112.019 27.8011" fill="#ED1C24" />
<path id="Vector_50" d="M111.777 28.0402L111.928 28.0815L112.086 28.1236L112.248 28.163C112.937 28.3505 113.936 28.5221 114.549 28.8652L114.62 28.9111L114.695 28.9608C115.164 29.3911 115.621 29.5927 116.236 29.7521L116.371 29.7915L116.508 29.8271L116.642 29.8665L116.781 29.9002C117.719 30.1515 118.667 30.3183 119.617 30.4861L119.819 30.5255L120.013 30.563C120.957 30.7674 121.108 30.8443 121.875 31.3402L121.958 31.388L122.041 31.4377L122.125 31.4818L122.031 31.4658L121.932 31.4461L121.838 31.4283C120.883 31.2408 120.174 31.298 119.213 31.3946L119.102 31.4068L118.983 31.4208L118.873 31.433C118.488 31.4705 118.109 31.5268 117.724 31.5671L117.614 31.5811L117.495 31.5952C116.894 31.6711 116.326 31.6786 115.724 31.7255L115.51 31.7433L115.305 31.7593L115.091 31.779L114.881 31.8005L114.671 31.8249L114.457 31.8483C113.941 31.8999 113.426 32.0124 112.909 32.048L112.794 32.0565L112.683 32.0621H112.573H112.466H112.367L112.273 32.0565L112.193 32.0443L112.126 32.0311L112.083 32.0152L112.048 31.9899L112.04 31.9627L112.048 31.9215L112.088 31.8821L112.151 31.8427L112.231 31.8033L112.318 31.7658L112.421 31.7283L112.528 31.689L112.638 31.6533L112.746 31.6177L112.845 31.5802L112.938 31.5446L113.018 31.5071L113.077 31.4733L113.113 31.4377L113.129 31.4021L113.115 31.359L113.063 31.2971C112.799 31.0158 112.523 30.7496 112.235 30.4899L112.148 30.4102L112.065 30.3352L111.982 30.2602L111.899 30.1833V29.6452L111.887 29.0911L111.856 28.5474L111.78 28.0383" fill="#004A91" />
<path id="Vector_51" d="M115.076 27.9839L115.187 28.0036L115.302 28.0214L115.425 28.0374C116.145 28.1489 116.977 28.1433 117.67 28.3477L117.729 28.3674L117.781 28.3889L117.832 28.4142L117.872 28.4358L117.903 28.4611L117.927 28.4883L117.939 28.5202V28.5417V28.568L117.962 28.598L118.01 28.6177L118.085 28.6111L118.165 28.5839L118.259 28.5446L118.352 28.5005C118.601 28.373 118.841 28.4424 119.089 28.5164L119.145 28.5361L119.204 28.5577L119.26 28.5811L119.307 28.6027L119.366 28.6242L119.414 28.6496C119.675 28.7621 119.579 28.7133 119.758 28.9008L119.793 28.9261L119.852 28.9439C120.074 28.9812 120.298 28.9956 120.522 28.9871H120.736H120.806H120.873H120.942L121.017 29.0677L121.084 29.1689L121.152 29.288L121.211 29.4127L121.286 29.5458L121.361 29.6827L121.455 29.8196L121.562 29.9517L121.641 30.0324L121.724 30.1139C122.034 30.3962 122.36 30.6597 122.702 30.9033L122.781 30.9605L122.849 31.0139L122.905 31.0589L122.952 31.0946L122.754 31.0533L122.567 30.9942L122.388 30.9249C121.686 30.6305 121.163 29.9508 120.531 29.6742L120.456 29.648L120.362 29.6227C119.894 29.483 119.425 29.4005 118.956 29.2805L118.837 29.2505L118.715 29.2205L118.588 29.1924C117.469 28.9421 116.378 28.6411 115.349 28.1199L115.211 28.0467L115.076 27.9717" fill="#004A91" />
<path id="Vector_52" d="M107.845 28.3092L107.904 28.4124L107.959 28.523C108.222 29.153 108.285 29.2505 108.815 29.648L108.887 29.7071L108.962 29.7642C109.511 30.1692 109.508 30.608 109.524 31.2586V31.4367V31.6074L109.397 31.6627L109.26 31.7124L109.105 31.7639C108.355 32.0133 107.324 32.1839 106.542 32.0452L106.412 32.018L106.296 31.988C105.481 31.7649 105.39 31.3224 104.475 31.3749H104.312L104.146 31.3852L103.972 31.3927L103.802 31.4049C102.931 31.4986 102.226 31.4142 101.364 31.3655L101.214 31.3589L101.064 31.3524C100.127 31.3355 99.189 31.5164 98.2684 31.6655L98.1015 31.6908L97.9281 31.718L97.7612 31.7433L97.8606 31.7039L97.9712 31.6608L98.0856 31.613C98.7386 31.292 99.409 31.0078 100.094 30.7617L100.169 30.7364L100.236 30.7102C101.037 30.4289 101.965 30.3633 102.798 30.1683L102.942 30.1364L103.068 30.1064L103.19 30.0727L103.313 30.0342C104.078 29.8092 104.797 29.4174 105.598 29.3236L105.692 29.3096L105.775 29.3002C106.537 29.2149 106.976 28.9158 107.573 28.4771L107.657 28.4217L107.74 28.3646L107.834 28.3074" fill="#004A91" />
<path id="Vector_53" d="M93.7029 23.3724L93.9898 25.8277L94.0694 25.8202L94.1482 25.8127H94.2316C94.7679 25.8061 95.3041 25.853 95.8404 25.8718L96.0026 25.8839L96.1685 25.898C96.9326 25.9552 97.8391 26.1127 98.5929 25.9805L98.7082 25.9664L98.8188 25.9533L98.9294 25.9393L99.0438 25.9252C99.6513 25.8314 100.417 26.0124 101.04 26.0714L101.174 26.0874L101.308 26.1071C102.106 26.2151 102.909 26.2783 103.714 26.2964H103.865H104.015H104.173L104.002 26.2589L103.832 26.2233L103.658 26.1896C102.829 26.0114 101.712 25.8943 100.953 25.5427L100.878 25.5108L100.803 25.4789C100.198 25.1911 99.7873 25.2736 99.1591 25.1977L99.0757 25.1818L98.9923 25.1658L98.8985 25.1461L98.8151 25.1246C98.171 24.9268 97.6798 24.7205 97.001 24.5864L96.896 24.5658L96.7882 24.5358C95.8882 24.3277 95.1401 23.738 94.1829 23.4839L94.0207 23.4427L93.866 23.4033L93.7038 23.3696" fill="#004A91" />
<path id="Vector_54" d="M95.3154 22.1217L95.4297 22.1555L95.5488 22.1874L95.6679 22.2155L95.7785 22.2427C96.191 22.3364 96.596 22.4133 96.9972 22.5652L97.1041 22.6064L97.1754 22.6402C97.4463 22.7742 97.6441 22.9842 97.8879 23.1464L98.0219 23.2299L98.0932 23.2655L98.1729 23.2974C98.4738 23.408 98.8197 23.4296 99.1347 23.4792L99.2285 23.4933L99.3157 23.5064C99.8388 23.5702 99.8707 23.8139 100.309 23.9105L100.393 23.9302L100.476 23.9442L100.57 23.9583L100.653 23.9724L100.747 23.9827L100.833 23.993C101.172 24.0181 101.508 24.0752 101.836 24.1636L101.939 24.1974L102.037 24.2274C102.404 24.3549 102.761 24.5086 103.135 24.6174L103.237 24.6436L103.345 24.6652L103.452 24.6849L103.555 24.7046C103.973 24.7599 104.392 24.7824 104.81 24.8386L104.921 24.8546L105.028 24.8742C105.369 24.9455 105.711 25.0908 106.042 25.2033L106.128 25.2305L106.212 25.2549L106.295 25.2783L106.379 25.298L106.316 25.1714L106.285 25.0289C106.255 24.6642 106.017 24.5724 105.785 24.3267L105.702 24.2377L105.639 24.1505C105.496 23.8589 105.427 23.2964 105.39 22.9721L105.362 22.7846L105.333 22.6027L105.137 22.6299L104.934 22.658C103.07 22.9224 101.372 23.0171 99.5125 22.6505L99.3504 22.6224L99.1882 22.5914L99.0335 22.5577C98.3838 22.433 97.7397 22.2867 97.0835 22.1714L96.9129 22.1414L96.7385 22.1114C96.3635 22.0627 95.9379 22.0983 95.5619 22.1114H95.4757H95.3922H95.3135" fill="#004A91" />
<path id="Vector_55" d="M112.365 25.9214L112.468 25.8999L112.571 25.8746C113.287 25.6495 114.016 25.4646 114.753 25.3205L114.868 25.3008L114.978 25.283C115.482 25.1892 116.118 25.1142 116.601 25.3346L116.637 25.3739L117.305 25.6214L117.416 25.6036C117.949 25.5291 118.473 25.3951 118.976 25.2042L119.044 25.1827L118.941 25.3589L118.827 25.5464L118.724 25.7264L118.616 25.9083L118.502 26.0911L118.398 26.2692L118.292 26.4511L118.185 26.633L118.161 26.7267L118.133 26.8205L118.11 26.9096L118.09 27.0033L117.996 26.9958L117.903 26.9855L117.819 26.978C117.246 26.9264 117.384 26.7905 117.038 26.5308L116.958 26.4839L116.891 26.4642C116.536 26.3864 116.17 26.4221 115.81 26.3967L115.73 26.3892L115.655 26.3771L115.576 26.3639L115.496 26.3461C115.193 26.288 114.918 26.1661 114.613 26.1089L114.533 26.093L114.453 26.0808C113.891 26.0021 113.328 25.9871 112.758 25.9467L112.628 25.9402L112.493 25.9299L112.365 25.9214Z" fill="#004A91" />
<path id="Vector_56" d="M97.4417 24.3633L97.5495 24.3971L97.6563 24.4308C98.1251 24.578 98.5995 24.7055 99.0626 24.8565L99.1695 24.8902L99.2491 24.8996C99.581 24.9502 99.9054 25.0196 100.239 25.0683L100.318 25.0824L100.398 25.0946V25.148L100.358 25.1977L100.323 25.2493V25.3046L100.255 25.2868L100.184 25.2727C99.7517 25.1912 99.2463 25.2727 98.8488 25.1424L98.7813 25.1227L98.7223 25.103C98.3398 24.9699 97.9788 24.8837 97.5973 24.743L97.5213 24.7187L97.4426 24.699V24.4505V24.3633" fill="#E9EAEB" />
<path id="Vector_57" d="M100.958 25.5464L100.982 25.6261L101.001 25.6936L101.033 25.7555L101.069 25.8146L101.128 25.8755L101.195 25.9393L101.289 26.0189L101.404 26.1127L101.526 26.1361L101.641 26.1521L101.74 26.1699L101.834 26.1802L101.928 26.1943C102.209 26.2261 102.49 26.2468 102.771 26.2674L102.905 26.2796L103.053 26.2899L103.024 26.2318L103.001 26.1802L102.981 26.1305L102.954 26.0752L102.878 26.0593L102.799 26.0433L102.724 26.0293L102.645 26.0161L102.565 25.9983L102.483 25.9824L102.403 25.9683L102.32 25.9505L102.24 25.9214L102.16 25.9036L102.081 25.8877C101.779 25.8267 101.482 25.7392 101.194 25.6261L101.091 25.5905L100.957 25.5389" fill="#004A91" />
<path id="Vector_58" d="M97.4257 24.6961V24.8274L97.3647 24.9839L97.271 25.1545L97.1603 25.3327L97.0535 25.5127L96.97 25.6767L96.926 25.823L96.9419 25.9374V25.9458L96.926 25.9533H96.8978H96.8585C96.7188 25.9419 96.5801 25.9212 96.4432 25.8914L96.3494 25.8717L96.2557 25.8502L96.1619 25.8286L96.0625 25.8052L95.9688 25.7808L95.8666 25.7536L95.7728 25.7161L95.7138 25.672L95.6782 25.6205V25.5614L95.7016 25.5042L95.7457 25.4395C95.8716 25.3031 96.0128 25.1817 96.1666 25.0777L96.2219 25.0327L96.266 24.9933L96.2941 24.9661V24.9464L96.1319 24.7842L95.9857 24.6614L95.8591 24.5677L95.74 24.4824L95.6416 24.3886L95.5478 24.2855L95.4691 24.1467L95.41 23.9592L95.5169 24.0202C96.0857 24.2964 96.683 24.5096 97.2982 24.6558L97.421 24.6895" fill="#004A91" />
<path id="Vector_59" d="M102.93 24.5536L102.874 24.6905V24.7955L102.931 24.8724L103.018 24.938L103.1 24.9952L103.171 25.0627L103.211 25.148L103.188 25.2568L103.281 25.2643C103.69 25.2971 104.055 25.3458 104.458 25.4068L104.533 25.419L104.41 25.3458C104.223 25.2043 104.106 25.1002 104.105 24.8527L104.113 24.759H104.033C103.681 24.7448 103.333 24.6856 102.996 24.5827L102.925 24.5611" fill="#E9EAEB" />
<path id="Vector_60" d="M103.216 25.2558L103.187 25.3495L103.152 25.4292L103.133 25.5108L103.126 25.6045L103.137 25.6327L103.153 25.6645L103.176 25.6983L103.204 25.732L103.232 25.7677L103.268 25.7995L103.296 25.8295L103.323 25.8549L103.395 25.8689L103.47 25.8811L103.541 25.8914C103.824 25.9317 104.105 25.9912 104.38 26.0695L104.46 26.0874L104.539 26.107L104.488 26.0499L104.424 25.9908C104.325 25.9068 104.242 25.8055 104.178 25.6917L104.162 25.627L104.178 25.5989C104.245 25.5511 104.39 25.5352 104.447 25.4845L104.476 25.4489V25.403L104.396 25.387C104.032 25.3336 103.657 25.2933 103.291 25.2624L103.22 25.2567" fill="#ED1C24" />
<path id="Vector_61" d="M99.6438 25.8989L99.7375 25.9111C100.174 25.9664 100.611 26.0171 101.05 26.0733L101.144 26.0836L101.208 26.2027L101.26 26.3217L101.291 26.4408L101.302 26.5777L101.208 26.5599C100.716 26.4746 100.218 26.4267 99.7234 26.3621L99.6166 26.348L99.6635 26.2317L99.6794 26.1211L99.6719 26.0161L99.64 25.9036" fill="#E9EAEB" />
<path id="Vector_62" d="M96.9504 25.9589L97.0216 25.9664C97.391 26.0118 97.7633 26.0296 98.1354 26.0199H98.2225L98.2029 26.1408V26.3883L98.1954 26.5111L98.1157 26.5233C97.7025 26.5682 97.2857 26.5682 96.8725 26.5233L96.79 26.5111L96.8454 26.4417L96.9044 26.3705L96.9682 26.303L97.0235 26.2336L97.0516 26.1661L97.0591 26.0986L97.0282 26.0311L96.9532 25.9617" fill="#E9EAEB" />
<path id="Vector_63" d="M94.5823 31.5024L94.2213 28.2314H94.4088H94.5963H94.7838C95.7213 28.2314 96.7104 28.2586 97.6432 28.1724L97.7857 28.1583L97.9244 28.1405C98.8732 28.0036 99.5613 27.9286 100.53 28.0589L100.697 28.0786L100.87 28.0983L101.044 28.118L101.21 28.1377C101.944 28.2401 102.69 28.2214 103.417 28.0824L103.536 28.0683L103.647 28.057L103.766 28.0495C104.029 28.027 104.259 28.0599 104.526 28.0317L104.669 28.0177L104.808 28.0017C105.12 27.9539 105.42 27.8967 105.73 27.8395L105.845 27.8161L105.949 27.8002L106.047 27.787L106.134 27.7767L106.052 27.8161L105.958 27.8611C103.968 28.7724 101.996 29.0658 99.8707 29.4624L99.7282 29.4924L99.6129 29.5205L99.4938 29.5505C98.7785 29.7202 98.0107 29.9311 97.3432 30.2405L97.2494 30.2845L97.1557 30.3286C96.4272 30.698 95.6726 31.0102 94.9301 31.3495L94.811 31.3992L94.6919 31.4527L94.5776 31.5061" fill="#004A91" />
<path id="Vector_64" d="M94.6178 32.0911L94.7491 32.0302L94.8719 31.9683L95.0022 31.9064C95.8919 31.4705 96.7684 31.0158 97.6797 30.6239L97.8184 30.5668L97.9572 30.5077L98.0997 30.4524C98.5032 30.281 98.9175 30.1363 99.34 30.0193L99.5415 29.9733L99.7394 29.9321C100.346 29.8121 100.958 29.7577 101.568 29.6508L101.778 29.6114L101.985 29.5693L102.187 29.5186L102.309 29.4849L102.432 29.453C103.226 29.2046 103.925 28.8727 104.756 28.7246L104.875 28.6964L104.998 28.6702C106.022 28.4555 106.284 28.3346 107.08 27.683L107.163 27.6221L107.246 27.563L107.34 27.5077L107.724 28.0158L107.626 28.0814L107.532 28.1452L107.438 28.2108C106.789 28.7011 106.299 29.0789 105.458 29.1643L105.364 29.1718L105.271 29.1793C104.406 29.2364 103.635 29.6668 102.823 29.9293L102.7 29.9686L102.581 30.0024L102.415 30.0455L102.241 30.0849C100.914 30.3661 99.8566 30.4261 98.6134 31.0768L98.4391 31.1593L98.2684 31.2446L98.1025 31.3299L97.9356 31.4236L97.765 31.5089L97.5991 31.5961L97.4369 31.6833L97.2625 31.7705L97.0919 31.8539L96.9212 31.9393L96.7741 31.9589L96.6269 31.9749L96.4816 31.9927C96.0475 32.0339 95.6172 32.0574 95.1822 32.078L95.0434 32.0836L94.9056 32.0902H94.7584H94.615" fill="#ED1C24" />
<path id="Vector_65" d="M117.29 28.2558L117.374 28.2699L117.454 28.2858C117.581 28.315 117.706 28.3532 117.829 28.4002L117.904 28.4312L117.932 28.5005L117.979 28.5662L118.042 28.6233L118.11 28.6824L118.174 28.7443L118.208 28.8174L118.217 28.898L118.189 28.9918L118.095 28.9674C117.92 28.9313 117.756 28.8535 117.618 28.7405C117.479 28.6276 117.37 28.4828 117.3 28.3187L117.292 28.2512" fill="#004A91" />
<path id="Vector_66" d="M114.102 28.6777L114.209 28.717C114.645 28.8792 115.028 29.2017 115.377 29.5027L115.457 29.5636L115.437 29.6742C115.343 30.4242 115.245 30.7524 114.565 31.1986L114.377 31.313L114.385 30.953C114.34 30.2967 114.005 29.6555 114.047 28.9964L114.104 28.6777" fill="#004A91" />
<path id="Vector_67" d="M110.665 25.8699L110.645 25.8108C110.622 25.7039 110.492 25.5642 110.451 25.4452L110.435 25.3861L110.475 25.3664L110.522 25.3505C111.301 25.0974 112.121 25.0524 112.914 24.8874L113.112 24.8433L113.299 24.7955L113.481 24.7458C114.237 24.5489 114.987 24.3108 115.767 24.2227L115.834 24.217H115.898H115.953C116.039 24.2225 116.125 24.2373 116.207 24.2611L116.251 24.2742L116.302 24.2883C116.397 24.3201 116.493 24.3439 116.592 24.3595L116.659 24.4149L116.675 24.5086L116.659 24.6136L116.627 24.7074L116.695 24.697L116.763 24.6895C117.062 24.652 117.361 24.6267 117.659 24.5883L117.726 24.5808L117.81 24.6024C118.219 24.6937 118.639 24.7291 119.057 24.7074H119.177L119.296 24.7008L119.121 24.7542C118.377 24.9635 117.612 25.0877 116.84 25.1245L116.678 25.1349L116.671 25.0533L116.646 24.9783L116.603 24.9211L116.527 24.8733L116.46 24.863L116.392 24.8555L116.333 24.848L116.27 24.8367L116.214 24.8227L116.155 24.8105L116.096 24.8002L116.037 24.788L115.982 24.7805L115.925 24.7683C115.565 24.7167 115.149 24.8339 114.793 24.8911L114.605 24.9305L114.418 24.9699L114.23 25.0111C113.122 25.283 112.012 25.5361 110.904 25.8089L110.785 25.837L110.67 25.867" fill="#ED1C24" />
<path id="Vector_68" d="M117.096 26.932L117.159 27.008L117.211 27.0867C117.319 27.2742 117.467 27.4964 117.701 27.5199H117.749L117.792 27.5255H117.844H117.888H117.931L117.981 27.5902L118.038 27.6539L118.089 27.7158L118.144 27.7814L118.201 27.8424L118.256 27.908L118.308 27.9708L118.364 28.0364L118.293 28.0561C118.154 28.1124 118.011 28.1561 117.865 28.1864H117.786L117.66 28.0345C117.435 27.7533 117.199 27.4505 117.121 27.0886L117.097 26.9199" fill="#ED1C24" />
<path id="Vector_69" d="M118.271 27.5593L119.989 28.4574L119.3 28.4715L119.217 28.418C118.879 28.201 118.576 27.9321 118.322 27.6211L118.27 27.5593" fill="#ED1C24" />
<path id="Vector_70" d="M118.474 29.3405L119.567 29.5843L119.892 30.1618L118.621 29.8477L118.474 29.3405Z" fill="#ED1C24" />
</g>
</g>
</g>
</g>
</g>
</g>
<path id="Vector_71" d="M106.927 26.2487C108.279 25.9337 109.632 25.6102 110.984 25.3955V26.8908C111.858 26.2533 112.733 25.6618 113.609 25.1471C115.17 25.1171 116.732 25.3346 118.296 25.9712C117.138 26.0715 115.978 26.4062 114.819 26.9012C116.257 27.65 117.589 28.587 118.779 29.6874C117.11 28.9083 115.442 28.6355 113.773 28.6496C112.871 28.1866 111.941 27.7811 110.988 27.4355V28.9008C109.637 29.1155 108.284 29.439 106.932 29.754L106.927 26.2487Z" stroke="white" stroke-linecap="round" stroke-linejoin="round" />
<path id="Vector_72" d="M95.6538 26.1821C96.954 26.7859 98.3591 27.1317 99.791 27.2003V29.109C99.791 29.469 99.9682 29.7231 100.934 29.7071C101.883 29.6724 102.093 29.4128 102.093 29.0509V27.1403C103.472 27.0081 104.851 26.7231 106.23 26.4081V28.3103C106.23 28.7312 106.101 29.0959 105.554 29.4812C104.685 30.0784 103.01 30.7412 100.934 30.8106C98.8572 30.8799 97.1838 30.1543 96.3138 29.3828C95.7663 28.899 95.6576 28.4987 95.6576 28.0806L95.6538 26.1821Z" stroke="white" stroke-linecap="round" stroke-linejoin="round" />
</g>

</svg>