<svg width="48" height="48" viewBox="0 0 48 48" fill="none" xmlns="http://www.w3.org/2000/svg">
<path d="M23.3486 9.28285C23.4857 9.05142 23.7343 8.91427 24 8.91427C24.2657 8.91427 24.5143 9.05142 24.6514 9.28285L41.6486 37.2C41.7686 37.3971 41.8286 37.62 41.8286 37.8428C41.8286 38.5286 41.2714 39.0857 40.5857 39.0857H7.41427C6.72856 39.0857 6.17141 38.5286 6.17141 37.8428C6.17141 37.6114 6.23141 37.3886 6.35141 37.2L23.3486 9.28285ZM19.8343 7.13999L2.83713 35.0571C2.32284 35.8971 2.05713 36.8571 2.05713 37.8428C2.05713 40.8 4.45713 43.2 7.41427 43.2H40.5857C43.5428 43.2 45.9428 40.8 45.9428 37.8428C45.9428 36.8571 45.6686 35.8971 45.1628 35.0571L28.1657 7.13999C27.2828 5.69142 25.7057 4.79999 24 4.79999C22.2943 4.79999 20.7171 5.69142 19.8343 7.13999ZM26.7428 33.6C26.7428 32.8725 26.4539 32.1749 25.9395 31.6605C25.4251 31.1461 24.7274 30.8571 24 30.8571C23.2725 30.8571 22.5749 31.1461 22.0605 31.6605C21.5461 32.1749 21.2571 32.8725 21.2571 33.6C21.2571 34.3274 21.5461 35.0251 22.0605 35.5395C22.5749 36.0539 23.2725 36.3428 24 36.3428C24.7274 36.3428 25.4251 36.0539 25.9395 35.5395C26.4539 35.0251 26.7428 34.3274 26.7428 33.6ZM26.0571 17.8286C26.0571 16.6886 25.14 15.7714 24 15.7714C22.86 15.7714 21.9428 16.6886 21.9428 17.8286V26.0571C21.9428 27.1971 22.86 28.1143 24 28.1143C25.14 28.1143 26.0571 27.1971 26.0571 26.0571V17.8286Z" fill="#B0000A"/>
</svg>
