<svg width="20" height="20" viewBox="0 0 20 20" fill="none" xmlns="http://www.w3.org/2000/svg">
<path d="M16.0182 12.7235L13.9015 12.4818C13.3932 12.4235 12.8932 12.5985 12.5349 12.9568L11.0015 14.4901C8.6432 13.2901 6.70986 11.3651 5.50986 8.99847L7.05153 7.4568C7.40986 7.09847 7.58486 6.59847 7.52653 6.09014L7.28486 3.99014C7.18486 3.14847 6.47653 2.51514 5.62653 2.51514H4.18486C3.2432 2.51514 2.45986 3.29847 2.5182 4.24014C2.95986 11.3568 8.65153 17.0401 15.7599 17.4818C16.7015 17.5401 17.4849 16.7568 17.4849 15.8151V14.3735C17.4932 13.5318 16.8599 12.8235 16.0182 12.7235Z" fill="#020D42"/>
</svg>
