<svg width="24" height="24" viewBox="0 0 24 24" fill="none" xmlns="http://www.w3.org/2000/svg">
<path d="M17 14.5H11C10.725 14.5 10.5 14.275 10.5 14V6C10.5 5.725 10.725 5.5 11 5.5H15.3781L17.5 7.62188V14C17.5 14.275 17.275 14.5 17 14.5ZM11 16H17C18.1031 16 19 15.1031 19 14V7.62188C19 7.225 18.8406 6.84375 18.5594 6.5625L16.4406 4.44063C16.1594 4.15938 15.7781 4 15.3813 4H11C9.89687 4 9 4.89688 9 6V14C9 15.1031 9.89687 16 11 16ZM7 8C5.89688 8 5 8.89687 5 10V18C5 19.1031 5.89688 20 7 20H13C14.1031 20 15 19.1031 15 18V17H13.5V18C13.5 18.275 13.275 18.5 13 18.5H7C6.725 18.5 6.5 18.275 6.5 18V10C6.5 9.725 6.725 9.5 7 9.5H8V8H7Z" fill="#020D42"/>
</svg>
