<svg width="56" height="56" viewBox="0 0 56 56" fill="none" xmlns="http://www.w3.org/2000/svg">
<path d="M7.57604 22.874C13.0229 18.0761 20.1688 15.1667 28 15.1667C35.8312 15.1667 42.9771 18.0761 48.424 22.874C49.1458 23.5156 50.2542 23.4427 50.8958 22.7136C51.5375 21.9844 51.4646 20.8834 50.7354 20.2417C44.676 14.9042 36.7135 11.6667 28 11.6667C19.2865 11.6667 11.324 14.9042 5.26458 20.2417C4.54271 20.8834 4.46979 21.9844 5.10417 22.7136C5.73854 23.4427 6.84688 23.5084 7.57604 22.874ZM28 28C32.7104 28 37.0052 29.8011 40.2208 32.7542C40.9354 33.4104 42.0365 33.3594 42.6927 32.6448C43.349 31.9302 43.2979 30.8292 42.5833 30.1729C38.7479 26.6511 33.6219 24.5 28 24.5C22.3781 24.5 17.2521 26.6511 13.4094 30.1802C12.6948 30.8365 12.651 31.9375 13.3 32.6521C13.949 33.3667 15.0573 33.4104 15.7719 32.7615C18.9948 29.8011 23.2896 28 28 28ZM32.0833 40.25C32.0833 39.7138 31.9777 39.1828 31.7725 38.6874C31.5673 38.192 31.2665 37.7418 30.8874 37.3627C30.5082 36.9835 30.058 36.6827 29.5626 36.4775C29.0672 36.2723 28.5362 36.1667 28 36.1667C27.4638 36.1667 26.9328 36.2723 26.4374 36.4775C25.942 36.6827 25.4918 36.9835 25.1126 37.3627C24.7335 37.7418 24.4327 38.192 24.2275 38.6874C24.0223 39.1828 23.9167 39.7138 23.9167 40.25C23.9167 40.7863 24.0223 41.3172 24.2275 41.8126C24.4327 42.3081 24.7335 42.7582 25.1126 43.1374C25.4918 43.5165 25.942 43.8173 26.4374 44.0225C26.9328 44.2277 27.4638 44.3334 28 44.3334C28.5362 44.3334 29.0672 44.2277 29.5626 44.0225C30.058 43.8173 30.5082 43.5165 30.8874 43.1374C31.2665 42.7582 31.5673 42.3081 31.7725 41.8126C31.9777 41.3172 32.0833 40.7863 32.0833 40.25Z" fill="black"/>
</svg>
