<svg width="20" height="20" viewBox="0 0 20 20" fill="none" xmlns="http://www.w3.org/2000/svg">
<path d="M10.1888 17.0542L10.8222 16.4208C10.9721 16.2709 10.9721 16.0278 10.8222 15.8779L5.85936 10.9151H16.7822C16.9942 10.9151 17.1661 10.7432 17.1661 10.5312V9.63544C17.1661 9.42343 16.9942 9.25154 16.7822 9.25154H5.85936L10.8222 4.28872C10.9721 4.13881 10.9721 3.89574 10.8222 3.7458L10.1888 3.11243C10.0389 2.96252 9.7958 2.96252 9.64586 3.11243L2.94642 9.81187C2.79651 9.96178 2.79651 10.2049 2.94642 10.3548L9.64586 17.0542C9.79577 17.2041 10.0388 17.2041 10.1888 17.0542Z" fill="white"/>
</svg>
