<svg width="24" height="24" viewBox="0 0 24 24" fill="none" xmlns="http://www.w3.org/2000/svg">
<path fill-rule="evenodd" clip-rule="evenodd" d="M20.4575 7.23404H3.54257C3.27819 7.23404 3.06384 7.01969 3.06384 6.75532V5.47872C3.06384 5.21435 3.27819 5 3.54257 5H20.4575C20.7218 5 20.9362 5.21435 20.9362 5.47872V6.75532C20.9362 7.01969 20.7218 7.23404 20.4575 7.23404ZM20.4575 13.617H3.54257C3.27819 13.617 3.06384 13.4027 3.06384 13.1383V11.8617C3.06384 11.5973 3.27819 11.383 3.54257 11.383H20.4575C20.7218 11.383 20.9362 11.5973 20.9362 11.8617V13.1383C20.9362 13.4027 20.7218 13.617 20.4575 13.617ZM3.54257 20H20.4575C20.7218 20 20.9362 19.7857 20.9362 19.5213V18.2447C20.9362 17.9803 20.7218 17.766 20.4575 17.766H3.54257C3.27819 17.766 3.06384 17.9803 3.06384 18.2447V19.5213C3.06384 19.7857 3.27819 20 3.54257 20Z" fill="white"/>
</svg>
