<svg width="75" height="16" viewBox="0 0 75 16" fill="none" xmlns="http://www.w3.org/2000/svg">
<path opacity="0.6" d="M17.7379 4.4262C17.7379 3.1177 16.6795 2.32089 15.4909 2.32089H12.8947V9.28071H14.5204V6.54285H15.1208L16.9967 9.28071H18.8849L16.6691 6.17182C16.9941 6.01161 17.2669 5.76259 17.4561 5.45363C17.6452 5.14467 17.7429 4.78843 17.7379 4.4262ZM15.2398 5.21169H14.5195V3.65205H15.2398C15.676 3.65205 16.1121 3.90318 16.1121 4.4262C16.1131 4.97189 15.676 5.21169 15.2398 5.21169Z" fill="white" stroke="white" stroke-linecap="round" stroke-linejoin="round"/>
<path opacity="0.6" d="M24.9233 2.32089H23.0795L20.9421 5.30987V2.32089H19.2512V9.28071H20.9421V6.41162L23.0361 9.28071H24.9998L22.4904 5.77908L24.9233 2.32089Z" fill="white" stroke="white" stroke-linecap="round" stroke-linejoin="round"/>
<path opacity="0.6" d="M6.41917 4.08447C6.41917 2.22084 4.84727 1.32584 3.46134 1.32584H0.503514V11.1557H1.98196V6.84215H3.46134C4.84727 6.84215 6.41917 5.95188 6.41917 4.08447ZM3.19889 5.57896H1.98196V2.58998H3.19889C4.07689 2.58998 4.89353 3.06769 4.89353 4.08447C4.89353 5.1173 4.08067 5.57896 3.19889 5.57896Z" fill="white" stroke="white" stroke-linecap="round" stroke-linejoin="round"/>
<path opacity="0.6" d="M8.28094 2.26993L5.54308 9.28357H7.13576L7.66822 7.82967H9.95858L10.5043 9.28074H12.1838L9.44878 2.26993H8.28094ZM8.08457 6.55326L8.58682 5.15696C8.67581 4.92628 8.74744 4.68929 8.80113 4.44794H8.82285C8.88287 4.68799 8.95567 4.92467 9.04093 5.15696L9.54319 6.55326H8.08457Z" fill="white" stroke="white" stroke-linecap="round" stroke-linejoin="round"/>
<path opacity="0.6" d="M37.3428 2.15758C35.4225 2.15758 33.6014 3.56427 33.6014 5.78949C33.6014 8.03642 35.4225 9.44311 37.3428 9.44311C39.2631 9.44311 41.0946 8.03642 41.0946 5.78949C41.0946 3.56521 39.2735 2.15758 37.3428 2.15758ZM37.3428 7.94956C36.2958 7.94956 35.314 7.09988 35.314 5.78949C35.314 4.47909 36.2958 3.64074 37.3428 3.64074C38.3898 3.64074 39.3821 4.49042 39.3821 5.78949C39.3821 7.08855 38.3898 7.94956 37.3428 7.94956Z" fill="white" stroke="white" stroke-linecap="round" stroke-linejoin="round"/>
<path opacity="0.6" d="M58.8595 2.26993L56.1217 9.28357H57.7143L58.2487 7.8325H60.5372L61.0829 9.28357H62.7624L60.0264 2.26993H58.8595ZM58.6632 6.55704L59.1654 5.16073C59.2557 4.93016 59.3286 4.69316 59.3835 4.45172H59.4043C59.4643 4.69177 59.5371 4.92844 59.6223 5.16073L60.1246 6.55704H58.6632Z" fill="white" stroke="white" stroke-linecap="round" stroke-linejoin="round"/>
<path opacity="0.6" d="M31.4876 5.07007H28.7932V2.32089H27.1023V9.28071H28.7932V6.52114H31.4876V9.28071H33.1671V2.32089H31.4876V5.07007Z" fill="white" stroke="white" stroke-linecap="round" stroke-linejoin="round"/>
<path opacity="0.6" d="M71.0883 5.22493C70.0565 4.86995 69.5061 4.34692 69.5061 3.69928C69.5061 2.97516 70.1225 2.35867 71.1233 2.35867C71.9248 2.35867 72.6952 2.6825 73.0341 2.92513L73.3268 1.69309C72.9718 1.43158 72.1561 1.12664 71.1856 1.12664C69.0907 1.12664 68.0701 2.43609 68.0701 3.80691C68.0701 5.16262 68.9944 6.14825 70.7504 6.71848C71.9371 7.10366 72.4601 7.67389 72.4601 8.52074C72.4601 9.4299 71.736 10.0454 70.6427 10.0454C69.5797 10.0454 68.6243 9.70652 67.6849 9.04471L68.0238 10.677C68.5318 11.016 69.5032 11.3379 70.5653 11.3379C72.7839 11.3379 73.9546 10.1361 73.9546 8.38007C73.9537 6.71942 72.7981 5.81026 71.0883 5.22493Z" fill="white" stroke="white" stroke-linecap="round" stroke-linejoin="round"/>
<path opacity="0.6" d="M66.2961 2.32089L65.1471 4.00136C64.9942 4.23078 64.7761 4.55743 64.6232 4.83027H64.6015C64.4497 4.54496 64.2824 4.26824 64.1001 4.00136L62.954 2.32089H61.1546L63.7471 6.20392V9.28071H65.3832V6.17182L67.9681 2.32183L66.2961 2.32089Z" fill="white" stroke="white" stroke-linecap="round" stroke-linejoin="round"/>
<path opacity="0.6" d="M43.7664 2.32089H42.0755V9.28071H46.559V7.82964H43.7664V2.32089Z" fill="white" stroke="white" stroke-linecap="round" stroke-linejoin="round"/>
<path opacity="0.6" d="M49.0543 2.32089H47.3634V9.27976H49.0543V2.32089Z" fill="white" stroke="white" stroke-linecap="round" stroke-linejoin="round"/>
<path opacity="0.6" d="M52.7069 2.32089H50.3618V9.28071H52.7069C54.7141 9.28071 56.437 7.9722 56.437 5.8008C56.437 3.62939 54.7141 2.32089 52.7069 2.32089ZM52.5124 7.82964H51.9885V3.77006H52.5124C53.7237 3.77006 54.748 4.44603 54.748 5.79891C54.748 7.15179 53.7209 7.82964 52.5124 7.82964Z" fill="white" stroke="white" stroke-linecap="round" stroke-linejoin="round"/>
<path d="M8.82754 1.64306L6.08968 8.6567H7.68236L8.21671 7.20563H10.5071L11.0528 8.6567H12.7323L9.99443 1.64306H8.82754ZM8.63117 5.92922L9.13248 4.53575C9.22275 4.30518 9.29564 4.06818 9.35056 3.82674H9.37228C9.4323 4.06679 9.5051 4.30346 9.59036 4.53575L10.0926 5.93206L8.63117 5.92922Z" fill="#004A91" stroke="#004A91" stroke-linecap="round" stroke-linejoin="round"/>
<path d="M66.838 1.69776L65.6929 3.3773C65.5399 3.60671 65.3218 3.93336 65.1689 4.20621H65.1472C64.9954 3.9209 64.8281 3.64417 64.6459 3.3773L63.5007 1.69776H61.7013L64.2975 5.5808V8.65664H65.9336V5.54776L68.5185 1.69776H66.838Z" fill="#004A91" stroke="#004A91" stroke-linecap="round" stroke-linejoin="round"/>
<path d="M71.634 4.60086C70.6021 4.24683 70.047 3.72286 70.047 3.07616C70.047 2.35204 70.6635 1.73555 71.6642 1.73555C72.4658 1.73555 73.2361 2.05937 73.5751 2.302L73.8677 1.06997C73.5128 0.808455 72.6971 0.503514 71.7265 0.503514C69.6316 0.503514 68.611 1.81297 68.611 3.18378C68.611 4.53949 69.5353 5.52512 71.2913 6.09535C72.478 6.48054 73.0011 7.05077 73.0011 7.89762C73.0011 8.80678 72.2769 9.42327 71.1837 9.42327C70.1206 9.42327 69.1652 9.08434 68.2259 8.42159L68.5648 10.0549C69.0736 10.3938 70.0442 10.7157 71.1072 10.7157C73.3258 10.7157 74.4965 9.5139 74.4965 7.75789C74.5003 6.09535 73.3447 5.18619 71.634 4.60086Z" fill="#004A91" stroke="#004A91" stroke-linecap="round" stroke-linejoin="round"/>
<path d="M49.6009 1.69776H47.91V8.65664H49.6009V1.69776Z" fill="#004A91" stroke="#004A91" stroke-linecap="round" stroke-linejoin="round"/>
<path d="M18.2835 3.80216C18.2835 2.49365 17.2252 1.69684 16.0366 1.69684H13.4404V8.65666H15.0661V5.91881H15.6656L17.5415 8.65666H19.4297L17.2148 5.54778C17.5397 5.38756 17.8126 5.13854 18.0017 4.82958C18.1909 4.52063 18.2886 4.16438 18.2835 3.80216ZM15.7874 4.58764H15.067V3.02517H15.7874C16.2235 3.02517 16.6597 3.2763 16.6597 3.79933C16.6588 4.3469 16.2226 4.58764 15.7874 4.58764Z" fill="#004A91" stroke="#004A91" stroke-linecap="round" stroke-linejoin="round"/>
<path d="M6.96485 3.4604C6.96485 1.59677 5.39295 0.702719 4.00702 0.702719H1.04919V10.5316H2.52764V6.21809H4.00702C5.39295 6.21809 6.96485 5.32498 6.96485 3.4604ZM3.74551 4.9549H2.52764V1.96685H3.74551C4.62351 1.96685 5.44015 2.44456 5.44015 3.46135C5.43921 4.49324 4.62257 4.9549 3.74551 4.9549Z" fill="#004A91" stroke="#004A91" stroke-linecap="round" stroke-linejoin="round"/>
<path d="M53.2526 1.69776H50.9075V8.65664H53.2526C55.2597 8.65664 56.9827 7.34813 56.9827 5.17673C56.9827 3.00532 55.2597 1.69776 53.2526 1.69776ZM53.0562 7.20652H52.5323V3.14694H53.0562C54.2675 3.14694 55.2918 3.82291 55.2918 5.17578C55.2918 6.52866 54.2675 7.20558 53.0562 7.20558V7.20652Z" fill="#004A91" stroke="#004A91" stroke-linecap="round" stroke-linejoin="round"/>
<path d="M44.3121 1.69684H42.6212V8.65666H47.1047V7.2056H44.3121V1.69684Z" fill="#004A91" stroke="#004A91" stroke-linecap="round" stroke-linejoin="round"/>
<path d="M37.8885 1.53353C35.9682 1.53353 34.1471 2.94022 34.1471 5.16544C34.1471 7.41237 35.9682 8.82001 37.8885 8.82001C39.8088 8.82001 41.6403 7.41332 41.6403 5.16544C41.6403 2.94117 39.8192 1.53353 37.8885 1.53353ZM37.8885 7.32552C36.8415 7.32552 35.8596 6.47583 35.8596 5.16544C35.8596 3.85504 36.8406 3.01669 37.8885 3.01669C38.9364 3.01669 39.9277 3.86637 39.9277 5.16544C39.9277 6.46451 38.9355 7.32552 37.8885 7.32552Z" fill="#004A91" stroke="#004A91" stroke-linecap="round" stroke-linejoin="round"/>
<path d="M59.4043 1.64306L56.6664 8.6567H58.2591L58.7935 7.20563H61.0848L61.6304 8.6567H63.31L60.5721 1.64306H59.4043ZM59.2079 5.93017L59.7111 4.53575C59.8014 4.30518 59.8743 4.06818 59.9292 3.82674H59.9509C60.0109 4.06679 60.0837 4.30346 60.169 4.53575L60.6712 5.93206L59.2079 5.93017Z" fill="#004A91" stroke="#004A91" stroke-linecap="round" stroke-linejoin="round"/>
<path d="M25.469 1.69684H23.6261L21.4878 4.68583V1.69684H19.7969V8.65666H21.4878V5.78758L23.5818 8.65666H25.5455L23.037 5.15504L25.469 1.69684Z" fill="#004A91" stroke="#004A91" stroke-linecap="round" stroke-linejoin="round"/>
<path d="M32.0332 4.44603H29.3398V1.69684H27.6489V8.65666H29.3398V5.89615H32.0332V8.65666H33.7137V1.69684H32.0332V4.44603Z" fill="#004A91" stroke="#004A91" stroke-linecap="round" stroke-linejoin="round"/>
<path fill-rule="evenodd" clip-rule="evenodd" d="M6.96485 3.4604C6.96485 1.59677 5.39295 0.702717 4.00702 0.702717H1.04919V10.5316H2.52764V6.21808H4.00702C5.39295 6.21808 6.96485 5.32498 6.96485 3.4604ZM5.44015 3.4604C5.44015 4.49229 4.62351 4.95489 3.74551 4.95489H2.52764V1.96685H3.74457C4.62257 1.96685 5.43921 2.44456 5.43921 3.4604H5.44015ZM12.7323 8.65289L9.99444 1.63925H8.82754L6.08968 8.65289H7.68236L8.21672 7.20182H10.5071L11.0528 8.65289H12.7323ZM10.0888 5.92636H8.63117L9.13248 4.53572C9.22275 4.30515 9.29565 4.06815 9.35057 3.82671H9.37228C9.43231 4.06676 9.50511 4.30343 9.59037 4.53572L10.0888 5.92636ZM19.4259 8.65289L17.2148 5.54778C17.5397 5.38756 17.8126 5.13854 18.0017 4.82958C18.1909 4.52063 18.2886 4.16439 18.2835 3.80216C18.2835 2.49365 17.2252 1.69684 16.0366 1.69684H13.4404V8.65666H15.0661V5.91881H15.6656L17.5415 8.65666L19.4259 8.65289ZM16.6588 3.80216C16.6588 4.34784 16.2226 4.58764 15.7864 4.58764H15.0661V3.02518H15.7874C16.2226 3.02518 16.6588 3.27914 16.6588 3.80216ZM25.5455 8.65572L23.037 5.15504L25.469 1.69779H23.6233L21.4878 4.68583V1.69779H19.7969V8.65666H21.4878V5.78758L23.5818 8.65666L25.5455 8.65572ZM33.7128 8.65572V1.69779H32.0332V4.44603H29.3398V1.69779H27.6489V8.65666H29.3398V5.89709H32.0342V8.65666L33.7128 8.65572ZM41.6431 5.16259C41.6431 2.93737 39.822 1.53068 37.8913 1.53068C35.9607 1.53068 34.1499 2.93737 34.1499 5.16259C34.1499 7.40952 35.971 8.81716 37.8913 8.81716C39.8116 8.81716 41.6403 7.4133 41.6403 5.16542L41.6431 5.16259ZM39.9306 5.16259C39.9306 6.47204 38.9383 7.32267 37.8913 7.32267C36.8443 7.32267 35.8625 6.47299 35.8625 5.16259C35.8625 3.8522 36.8405 3.01762 37.8885 3.01762C38.9364 3.01762 39.9277 3.86825 39.9277 5.16542L39.9306 5.16259ZM47.1056 8.65572V7.2056H44.3121V1.69779H42.6212V8.65666L47.1056 8.65572ZM49.6018 8.65572V1.69779H47.91V8.65666L49.6018 8.65572ZM56.9846 5.17581C56.9846 3.00441 55.2607 1.6959 53.2545 1.6959H50.9075V8.65666H53.2526C55.2597 8.65666 56.9827 7.34721 56.9827 5.17675L56.9846 5.17581ZM55.2937 5.17581C55.2937 6.52774 54.2684 7.20466 53.0581 7.20466H52.5341V3.14507H53.0581C54.2675 3.14791 55.2928 3.82482 55.2928 5.17675L55.2937 5.17581ZM63.3119 8.65572L60.574 1.64209H59.4043L56.6664 8.65666H58.2591L58.7935 7.2056H61.0848L61.6304 8.65666L63.3119 8.65572ZM60.6684 5.92919H59.2088L59.7111 4.53572C59.8014 4.30515 59.8743 4.06815 59.9292 3.82671H59.9509C60.0109 4.06676 60.0837 4.30343 60.169 4.53572L60.6684 5.92919ZM68.5157 1.69684H66.838L65.6928 3.37732C65.5399 3.60673 65.3218 3.93339 65.1689 4.20623H65.1472C64.9954 3.92092 64.8281 3.6442 64.6459 3.37732L63.5007 1.69779H61.7003L64.2965 5.58082V8.65666H65.9327V5.54778L68.5157 1.69684ZM74.4974 7.75884C74.4974 6.09535 73.3419 5.18619 71.6321 4.60086C70.6002 4.24683 70.0451 3.72286 70.0451 3.07616C70.0451 2.35204 70.6616 1.73555 71.6623 1.73555C72.4639 1.73555 73.2342 2.05937 73.5732 2.302L73.8658 1.06997C73.5108 0.808455 72.6952 0.503514 71.7246 0.503514C69.6297 0.503514 68.6091 1.81297 68.6091 3.18378C68.6091 4.53949 69.5334 5.52512 71.2894 6.09535C72.4761 6.48054 72.9992 7.05077 72.9992 7.89762C72.9992 8.80677 72.275 9.42232 71.1818 9.42232C70.1187 9.42232 69.1633 9.08339 68.2239 8.42159L68.5629 10.0539C69.0717 10.3928 70.0423 10.7148 71.1053 10.7148C73.3286 10.7167 74.4993 9.51484 74.4993 7.75884H74.4974Z" fill="white"/>
<path opacity="0.65" d="M3.41132 10.9385H43.1329" stroke="white" stroke-width="1.00703" stroke-linecap="round" stroke-linejoin="round"/>
<mask id="mask0_0_2116" style="mask-type:luminance" maskUnits="userSpaceOnUse" x="44" y="9" width="24" height="6">
<path d="M44.4641 10.086C45.7734 10.694 47.1883 11.0422 48.6303 11.1113V13.0325C48.6303 13.395 48.8088 13.6509 49.7812 13.6348C50.7375 13.5999 50.9481 13.3384 50.9481 12.974V11.0499C52.3368 10.9168 53.7256 10.6298 55.1143 10.3126V12.2281C55.1143 12.652 54.985 13.0193 54.4336 13.4073C53.5585 14.0087 51.8723 14.6761 49.7812 14.746C47.69 14.8159 46.0048 14.0851 45.1287 13.3082C44.5774 12.822 44.4678 12.4179 44.4678 11.9968V10.086M55.8252 10.153C57.1866 9.8358 58.5489 9.51009 59.9103 9.2939V10.7997C60.7911 10.1577 61.672 9.56202 62.5538 9.04371C64.1257 9.0135 65.6985 9.23253 67.2742 9.87357C66.1073 9.97458 64.9395 10.3116 63.7726 10.8101C65.2205 11.5642 66.5616 12.5077 67.7604 13.6159C66.0799 12.8314 64.3995 12.5567 62.719 12.5708C61.811 12.1046 60.8745 11.6962 59.915 11.3482V12.8238C58.5537 13.04 57.1913 13.3658 55.83 13.683L55.8252 10.153Z" fill="white"/>
</mask>
<g mask="url(#mask0_0_2116)">
<mask id="mask1_0_2116" style="mask-type:luminance" maskUnits="userSpaceOnUse" x="-16" y="-54" width="106" height="74">
<path d="M89.0685 -53.9818H-15.0909V19.6685H89.0685V-53.9818Z" fill="white"/>
</mask>
<g mask="url(#mask1_0_2116)">
<path d="M73.4788 15.7156C72.4039 15.4112 71.4328 14.8183 70.6711 14.0011L70.5314 13.85L70.4757 13.7622L70.4237 13.6725C69.7893 12.6529 69.4183 12.1148 68.2457 11.6513L68.1107 11.6012L67.9719 11.5493L67.8246 11.5049L67.6849 11.4615L67.5367 11.4237L67.4168 11.3756L67.3224 11.2963L67.2431 11.1962L67.1836 11.0848L67.1317 10.9649L67.1034 10.8507L67.0911 10.7449V10.6609L67.1553 10.525L67.2233 10.3918L67.295 10.2625C67.5443 9.82161 67.8284 9.41282 68.0805 8.97476L68.1485 8.84542L68.2202 8.71419L68.2835 8.57824L68.2202 8.5858L68.1485 8.59241L68.0729 8.59807L67.9974 8.60468C67.3299 8.63395 66.7701 8.56786 66.2037 8.28086C66.0526 8.19306 65.9469 8.08354 65.7854 7.99008L65.7137 7.95043V7.95703L65.6353 7.87395C65.4068 7.48593 65.6353 7.17722 65.0774 6.94686L65.0065 6.92043L64.9301 6.89871C64.6472 6.8249 64.3595 6.77096 64.0691 6.73727L63.9492 6.72122L63.8321 6.70706L63.7122 6.69384L63.6008 6.67968L63.4809 6.66741C62.0865 6.49653 61.0659 6.81846 59.7159 6.93364L59.5412 6.94403H59.3656C58.5018 6.88077 58.3819 6.49936 57.3481 6.6523L57.2641 6.66269H57.1763L57.0922 6.66835H56.9365H56.8562L56.7807 6.6608C56.4767 6.62304 56.2284 6.48709 55.931 6.40967L55.8593 6.39362L55.7752 6.37569C55.3032 6.33131 54.648 6.43894 54.1703 6.49747L54.007 6.52202L53.8314 6.54562L53.6425 6.57111C52.1226 6.7892 50.5658 6.86378 49.0401 6.65419L48.9127 6.63437L48.7814 6.61643L48.653 6.59283L48.5303 6.57111C47.4795 6.38229 46.4401 6.08207 45.3752 5.97162L45.243 5.96595L45.1155 5.96029C44.1714 5.96029 43.538 6.12267 42.6109 5.8064L42.5467 5.79035L42.4787 5.77241L42.4192 5.75636L42.3512 5.74315L43.4001 16.0007H43.8788C44.4908 16.0201 45.1032 15.9745 45.7056 15.8647L45.8944 15.827L46.0832 15.7892C46.9527 15.6089 47.8543 15.354 48.7437 15.3068L48.9429 15.2964H49.1506H49.3583H49.5735C50.4459 15.3162 51.3257 15.4097 52.1971 15.3323L52.3123 15.3219L52.4284 15.3105C53.0308 15.2416 53.6614 15.2388 54.2307 15.4739L54.3742 15.5333L54.5139 15.5947L54.6489 15.658L54.7839 15.7241L54.9199 15.7873C56.2662 16.4482 58.0467 15.606 59.3902 15.2671L59.5252 15.2284L59.6649 15.1944L59.8122 15.1642C60.4066 15.0208 61.024 14.9999 61.6267 15.1028L61.7428 15.1246L61.8372 15.15C62.5727 15.3464 61.3473 15.6514 61.1943 15.7562L61.0999 15.7958L61.0319 15.8336L60.9961 15.8713V15.9015L61.0357 15.927L61.116 15.9487L61.1953 15.9629C61.9298 16.046 62.8181 15.8336 63.5555 15.7477L63.6952 15.7297L63.8302 15.7137L63.9747 15.6957C64.4391 15.6419 64.8989 15.6268 65.3653 15.6183L65.5541 15.607L65.7429 15.5947C66.2339 15.5569 66.7229 15.5003 67.21 15.4389L67.3847 15.4172L67.5565 15.3955L67.7321 15.3738L67.904 15.354L68.072 15.3304C69.1105 15.1888 70.1764 15.1548 71.1988 15.4361L71.2706 15.4597L71.4736 15.5135L71.4688 15.505C72.1816 15.6806 72.7169 15.8779 73.4637 15.8241L73.5638 15.8166L73.6676 15.8071L73.7667 15.7967L73.4788 15.7156Z" fill="white"/>
<path d="M71.9116 15.0056L71.8549 14.9603L71.787 14.9065L71.7067 14.8489C71.363 14.6037 71.0342 14.3382 70.722 14.054L70.638 13.9719L70.5578 13.8907L70.4501 13.7566L70.3557 13.6188L70.2802 13.4809L70.2047 13.3478L70.1452 13.2222L70.0772 13.1023L70.0092 13.0004L69.9337 12.9183H69.8648H69.7968H69.7251H69.5098C69.2842 12.9266 69.0583 12.9118 68.8357 12.8739L68.7763 12.8559L68.7404 12.8295C68.5601 12.6407 68.6564 12.6898 68.3939 12.5765L68.3458 12.551L68.2863 12.5293L68.2391 12.5076L68.1824 12.484L68.123 12.4623L68.0673 12.4424C67.8171 12.3669 67.5754 12.298 67.3252 12.4264L67.2308 12.4698L67.1364 12.5095L67.0561 12.5368L66.9938 12.5416L66.94 12.4934L66.9041 12.4434L66.8928 12.4132L66.8824 12.4009L66.8654 12.3575L66.7899 12.3263L66.7012 12.2933H66.6936L66.6341 12.2734H66.62C66.5529 12.2527 66.4859 12.2347 66.4151 12.2168L66.3348 12.2007L66.2508 12.1866C65.6419 12.0695 64.9697 12.0554 64.373 11.9638L64.2494 11.9477L64.1332 11.9298L64.0218 11.91L64.1578 11.9855L64.2966 12.0591C65.3351 12.585 66.433 12.8871 67.5584 13.1392L67.6868 13.1675L67.8095 13.1977L67.9294 13.2279C68.4071 13.3488 68.8735 13.4318 69.3456 13.5725L69.44 13.598L69.5155 13.6235C70.1518 13.9067 70.6786 14.5865 71.3857 14.8829L71.5651 14.9528L71.7539 15.0122L71.9531 15.0538L71.9116 15.0056Z" fill="#004A91"/>
<path d="M58.4357 15.1992C58.4159 14.5478 58.4187 14.1022 57.8692 13.6943L57.7937 13.6367L57.722 13.5772C57.1876 13.177 57.1244 13.0778 56.86 12.4443L56.8043 12.3329L56.7448 12.2291L56.6504 12.2867L56.5664 12.3443L56.4824 12.4C55.881 12.8418 55.4392 13.143 54.6716 13.2289L54.5876 13.2383L54.4932 13.2525C53.6869 13.3469 52.9619 13.7415 52.1924 13.9681L52.0688 14.0059L51.946 14.0398L51.8186 14.0701L51.6741 14.1012C50.8358 14.2976 49.9002 14.3627 49.0939 14.6478L49.026 14.6733L48.9504 14.6988C48.2609 14.9467 47.5858 15.2329 46.9282 15.5561L46.813 15.6042L46.7016 15.6476L46.6015 15.6873L46.7696 15.6618L46.9442 15.6344L47.1123 15.6089C48.0375 15.4588 48.9873 15.2766 49.9276 15.2936L50.0786 15.3002L50.2297 15.3068C51.0964 15.3559 51.8063 15.439 52.6843 15.3465L52.8561 15.3342L53.0308 15.3266L53.1988 15.3163H53.3622C54.2836 15.2634 54.3752 15.709 55.1965 15.9337L55.3127 15.9639L55.4439 15.9913C56.235 16.1338 57.2679 15.9611 58.025 15.7081L58.1808 15.6561L58.3196 15.6061L58.447 15.5504V15.3786L58.4357 15.1992Z" fill="#004A91"/>
<path d="M44.3584 6.06132L44.4783 6.08964L44.5897 6.11702C45.0051 6.21143 45.4129 6.28885 45.817 6.44179L45.9246 6.48333L45.9964 6.51731C46.2702 6.65232 46.4684 6.8638 46.7139 7.02712L46.8489 7.11115L46.9206 7.14702L47.0009 7.17912C47.3039 7.29052 47.6523 7.31224 47.9695 7.36227L48.0639 7.37644L48.1517 7.38965C48.6785 7.45385 48.7106 7.69837 49.1525 7.79656L49.2365 7.81638L49.3205 7.83054L49.4149 7.8447L49.4989 7.85886L49.5933 7.86925L49.6802 7.87963C50.0213 7.90488 50.3592 7.96241 50.6894 8.05146L50.7933 8.08545L50.8924 8.11566C51.2616 8.24405 51.6212 8.39888 51.9979 8.5084L52.1008 8.53483L52.2094 8.55655L52.317 8.57637L52.4209 8.5962C52.842 8.6519 53.264 8.67456 53.685 8.7312L53.7964 8.74725L53.9041 8.76708C54.2477 8.83883 54.5923 8.98516 54.9256 9.09751L55.0124 9.12489L55.0964 9.14943L55.1805 9.17304L55.2635 9.19286L55.2012 9.0673L55.1701 8.9238C55.1399 8.55655 54.9001 8.46403 54.6669 8.21667L54.5829 8.12699L54.5196 8.03919C54.3752 7.74557 54.3062 7.17912 54.2685 6.85247L54.2402 6.66365L54.2118 6.48049L54.0136 6.50787L53.8096 6.5362C51.9328 6.80243 50.2221 6.89778 48.35 6.52864L48.1867 6.50032L48.0233 6.46822L47.8676 6.43423C47.2133 6.30962 46.5647 6.16234 45.9038 6.04621L45.732 6.016L45.5564 5.98579C45.1788 5.9367 44.7502 5.97258 44.3716 5.98579H44.2847H44.2007H44.1214L44.2366 6.01978L44.3584 6.06132Z" fill="#004A91"/>
<path d="M65.6353 9.50066L65.6278 9.41758C65.6202 9.22876 65.574 9.22121 65.4125 9.17212L65.3606 9.15418L65.3011 9.14096L65.2416 9.13058L65.1822 9.1183L65.118 9.10603C64.5827 9.03806 64.003 9.16079 63.479 9.2618L63.3676 9.2873L63.26 9.30901C62.7005 9.4257 62.1477 9.57256 61.6041 9.74895L61.5049 9.7735L61.4011 9.79899L61.2925 9.82259L61.42 9.83203L61.5559 9.84242L61.6871 9.84903C62.2536 9.88774 62.8257 9.90473 63.3941 9.98403L63.4743 9.99631L63.5546 10.0124C63.8614 10.0709 64.1389 10.1936 64.4439 10.2512L64.5241 10.2691L64.6044 10.2824L64.6799 10.2946L64.7602 10.3022C65.1227 10.3277 65.4909 10.2918 65.8487 10.3702L65.9167 10.39L66.0007 10.4259C66.3481 10.6893 66.2103 10.8243 66.7871 10.8762L66.8711 10.8837L66.9655 10.8941L67.06 10.9017L67.0798 10.8073L67.1034 10.7129L67.1317 10.6185L67.1553 10.5241L67.2629 10.3409L67.3715 10.1577L67.4754 9.97837L67.5905 9.79427L67.6991 9.61112L67.803 9.42985L67.9153 9.25614L68.0229 9.07204L67.954 9.09376L67.8908 9.11358L67.8228 9.1353C67.3921 9.29674 66.9456 9.41225 66.4907 9.47989L66.3821 9.49594L66.2707 9.51388L66.1631 9.52804C66.0403 9.52804 65.7609 9.58374 65.6523 9.51765L65.6353 9.50066Z" fill="#004A91"/>
<path d="M44.6529 9.76688L44.8163 9.77915L44.9834 9.79331C45.7537 9.8509 46.6657 10.0095 47.4248 9.87639L47.5409 9.86223L47.6523 9.84901L47.7637 9.83485L47.8789 9.82069C48.4907 9.72628 49.262 9.90849 49.8889 9.96797L50.0239 9.98402L50.1589 10.0038L50.41 10.0341L50.494 10.0463L50.5941 10.0643L50.6885 10.0746L50.7829 10.0888C51.0661 10.1209 51.3494 10.1417 51.6326 10.1624L51.7676 10.1747L51.9158 10.1851V10.1785C52.1377 10.1917 52.3605 10.2002 52.5852 10.203H52.7372H52.8882H53.0468L52.875 10.1653L52.7032 10.1294L52.5285 10.0954C52.0772 10.001 51.541 9.91982 51.0236 9.81219H51.0161L50.8735 9.78104C50.5929 9.7227 50.3177 9.64026 50.0512 9.53463L49.9474 9.49875L49.8124 9.44683H49.8077L49.7321 9.41473L49.6566 9.38263C49.0477 9.0928 48.6342 9.17588 48.0016 9.0994L47.9176 9.08336L47.8336 9.06731L47.7392 9.04748L47.6551 9.02577C47.0481 8.83695 46.5732 8.64813 45.9558 8.51029C45.3951 8.37042 44.8508 8.17169 44.3319 7.91741L44.2243 7.85604L44.23 7.87303C43.8322 7.66339 43.4144 7.49418 42.9828 7.36795L42.8195 7.32641L42.6637 7.28675L42.5004 7.25277L42.7884 9.72817L42.8686 9.72061L42.9479 9.71306H43.0319C43.5738 9.69984 44.1101 9.74705 44.6529 9.76688Z" fill="#004A91"/>
<path d="M48.4529 13.4432L48.569 13.4148L48.7125 13.3846C50.8528 12.9862 52.8382 12.6898 54.8425 11.7721L54.9369 11.7268L55.0209 11.6872L54.9331 11.6975L54.834 11.7108L54.7302 11.7268L54.614 11.7504C54.3015 11.8089 54.0004 11.8656 53.685 11.9137L53.5453 11.9298L53.4018 11.9439C53.1328 11.9723 52.9005 11.9439 52.6362 11.9619L52.5163 11.9694L52.4049 11.9817L52.285 11.9959C51.5522 12.1359 50.8014 12.1547 50.0626 12.0516L49.8955 12.0317L49.7199 12.0119L49.5452 11.9921L49.3772 11.9723C48.4019 11.8401 47.709 11.9166 46.7535 12.0544L46.6138 12.0723L46.4703 12.0884C45.5262 12.1753 44.5359 12.1441 43.5908 12.1479H43.402H43.2132H43.0244L43.3879 15.4418L43.503 15.388L43.6229 15.3342L43.7428 15.2841C44.4906 14.9424 45.2534 14.6233 45.9841 14.256L46.0785 14.2117L46.1729 14.1682C46.8451 13.8557 47.6183 13.6443 48.3387 13.4734L48.4529 13.4432Z" fill="#004A91"/>
<path d="M70.9543 15.3285L70.8703 15.2804C70.098 14.7772 69.946 14.7035 68.9953 14.4977L68.7999 14.46L68.5969 14.4203C67.6396 14.2513 66.6813 14.0833 65.741 13.8303L65.6013 13.7963L65.4663 13.7566L65.3275 13.7207L65.1916 13.6811C64.8066 13.5922 64.4383 13.4427 64.1002 13.2383C63.9671 13.1279 63.8292 13.0202 63.6848 12.923L63.6404 12.8833L63.5649 12.8333L63.4931 12.787C62.8748 12.4415 61.8693 12.2716 61.1764 12.0799L61.013 12.0403L60.8535 11.9978L60.7015 11.9562L60.7779 12.4689L60.8101 13.0165L60.8223 13.5744V14.1163L60.9063 14.1937L60.9904 14.2693L61.0734 14.3448L61.1612 14.425C61.4511 14.6866 61.7277 14.9528 61.9949 15.2379L62.0468 15.3002L62.0629 15.338L62.0468 15.3738L62.0109 15.4097L61.9515 15.4437L61.8712 15.4815L61.7768 15.5174L61.6777 15.5551L61.5691 15.591L61.4577 15.6269L61.3501 15.6665L61.2462 15.7043L61.1584 15.742L61.0782 15.7817L61.0149 15.8213L60.9743 15.861L60.9668 15.9025L60.9743 15.9299L61.0102 15.9554L61.0546 15.9715L61.1225 15.9847L61.2028 15.9969L61.2972 16.0026H61.3973H61.5049H61.6163L61.7277 15.9969L61.8438 15.9885C62.3612 15.9526 62.8823 15.8393 63.4025 15.7874L63.6178 15.7638L63.8283 15.7392L64.0398 15.7175L64.255 15.6977L64.4618 15.6816L64.677 15.6637C65.2831 15.6165 65.8553 15.6089 66.4604 15.5325L66.5803 15.5183L66.6917 15.5041C67.0788 15.4654 67.4612 15.4097 67.8482 15.3691L67.9596 15.3578L68.0795 15.3436L68.1909 15.3314C69.1549 15.237 69.8686 15.1728 70.8344 15.3654L70.9288 15.3833L71.0289 15.4031L71.1233 15.4192L71.0383 15.3757L70.9543 15.3285Z" fill="#004A91"/>
<g opacity="0.65">
<path d="M61.9213 15.1208C61.7325 14.9716 61.5814 14.796 61.4068 14.6327L61.3511 14.5789L61.2944 14.5232C61.0225 14.2466 60.677 14.0511 60.4259 13.7538L60.3456 13.6405L60.289 13.5253L60.3409 13.3856C60.4778 12.855 60.0888 12.028 59.8424 11.5559L59.7829 11.4426L59.9066 11.4266L60.0293 11.4068L60.1577 11.3869C60.9753 11.2548 61.6154 11.0839 62.4462 11.3048L62.5737 11.3388L62.6898 11.3728L62.8097 11.4105C63.0917 11.5047 63.3792 11.5813 63.6707 11.6399L63.8066 11.6598L63.9416 11.6739C64.3352 11.6922 64.7295 11.683 65.1218 11.6466L65.2737 11.6381L65.421 11.6324H65.5655H65.7128L65.8572 11.639L65.9922 11.6466C66.2934 11.6711 66.3925 11.741 66.5785 11.9657L66.638 12.0336L66.6937 12.0959L66.7494 12.1195H66.8287C66.9759 12.089 67.12 12.0451 67.2592 11.9883L67.2894 11.9798L67.3942 11.9581H67.4886L67.616 11.9883L67.7359 12.0336L67.8303 12.0874L67.8785 12.1158C67.9786 12.1941 68.0815 12.2678 68.1853 12.3386L68.2693 12.3924H68.2816L68.9633 12.3782H68.9566L69.171 12.3716H69.2465H69.3182H69.3985H69.4693L69.3824 12.2951L69.2786 12.2196L69.1785 12.146L69.0709 12.0704C68.6624 11.8067 68.2169 11.6053 67.7492 11.4728L67.5981 11.4351L67.4423 11.4011C67.2356 11.3907 67.0373 11.4464 66.8476 11.4568H66.8088H66.7569L66.7135 11.4511H66.6653C66.4284 11.4275 66.2801 11.2028 66.1716 11.015L66.1197 10.9357L66.0564 10.8592V10.8818C65.9299 10.7563 65.7732 10.7874 65.5466 10.7874H65.4616L65.3672 10.7931C65.0653 10.8256 64.7602 10.8135 64.4618 10.7572L64.3778 10.7449L64.2976 10.7317L64.2183 10.7195L64.138 10.7062L64.0578 10.6921C63.4092 10.5665 62.7427 10.5665 62.1082 10.4173L62.028 10.3909L61.9449 10.3654L61.8646 10.338C61.5955 10.2293 61.3139 10.1545 61.0263 10.1152L60.9319 10.1067H60.812C60.3505 10.1155 59.8903 10.1594 59.4355 10.238L59.3033 10.2559L59.1806 10.2701L59.0569 10.2861L58.9333 10.2984L58.8492 10.137L58.7548 9.97363C58.5348 9.53651 58.1128 9.13339 58.1128 8.61886V8.48952L58.1204 8.36018C58.178 7.87964 57.6351 7.39249 57.3982 7.01108L57.3038 6.84964L57.2244 6.68631L57.1442 6.6797H57.0847C56.7269 6.69669 56.6212 6.63533 56.2832 6.54847L56.2152 6.52865L56.1397 6.50882L56.0679 6.48711L56 6.46728L55.9292 6.44934L55.865 6.42952L55.797 6.41347L55.7375 6.39553L55.678 6.38231C55.4892 6.38231 55.2843 6.38986 55.0993 6.40591L54.9879 6.41347L54.8803 6.42102L54.7859 6.42763L54.7934 6.58907L54.8217 6.74862C54.9162 7.15363 55.0861 7.77484 55.3721 8.08167L55.4798 8.21007L55.6044 8.31203C55.9981 8.76047 56.0028 9.02576 56.0434 9.59127L56.0594 9.7461L56.0878 9.89999L55.9244 9.93397L55.7611 9.96796L55.5978 10.0057C54.395 10.289 53.4415 10.4778 52.1925 10.4976L52.0131 10.5042H51.8337H51.6543C51.2097 10.5042 50.7404 10.5042 50.2986 10.4721L50.1627 10.4579L50.0239 10.4419C49.6179 10.3881 49.2195 10.3107 48.8117 10.2663L48.6767 10.255L48.5369 10.2465H48.3934H48.282L48.1621 10.2521C47.3861 10.3362 46.6186 10.5014 45.8331 10.4183L45.7169 10.4117L45.5971 10.406C44.7804 10.3692 43.9647 10.2814 43.1481 10.2323L43.0282 10.2219L42.913 10.2144L42.7931 10.2087L43.0244 11.6248L43.0924 11.6107L43.1641 11.5993L43.2321 11.5833C44.0025 11.3945 44.3905 11.4152 45.2015 11.4936L45.3488 11.5068L45.4923 11.521L45.6395 11.5333C46.0093 11.5717 46.3815 11.5799 46.7526 11.5578L46.8631 11.5474L46.9716 11.5333C47.2964 11.4804 47.6268 11.4011 47.9526 11.3699L48.0602 11.3605L48.1687 11.3539H48.2764L48.4841 11.3643L48.6918 11.3775L48.8995 11.3973C49.4414 11.4511 49.9786 11.5521 50.5186 11.6248L50.7216 11.6513L50.933 11.6711C51.4568 11.7184 51.9836 11.7206 52.5078 11.6777L52.7032 11.6635L52.892 11.6456L53.0808 11.6258C54.2013 11.5209 55.3136 11.3424 56.4106 11.0914L56.5541 11.0612L56.6892 11.0338L56.8289 11.0055L56.9374 11.1547L57.0366 11.3048L57.1404 11.4558C57.282 11.69 57.5473 12.0667 57.6342 12.3131L57.6578 12.4075L57.6701 12.5019C57.6795 12.8125 57.7314 12.8927 57.9533 13.0957L58.0241 13.1637L58.1043 13.2326L58.1761 13.3006C58.7359 13.8123 59.1749 14.1654 59.1532 15.0066V15.1661V15.3294L59.377 15.2794C60.1162 15.1321 61.1925 14.8697 61.9175 15.1642L62.0412 15.2237L61.977 15.1699L61.9213 15.1208Z" fill="#9CB8D2"/>
<path d="M73.6818 15.7703L73.6101 15.7467L73.5421 15.7212C72.8576 15.5551 72.3034 15.3304 71.6397 15.1038L71.5246 15.0613L71.4084 15.0198C70.403 14.679 70.4285 14.4241 69.6732 13.8916L69.5788 13.8416L69.475 13.7934L69.3522 13.7415L69.2248 13.6971C69.001 13.6282 68.7744 13.5678 68.5479 13.5083L68.4969 13.497C67.8058 13.327 67.1043 13.1958 66.4199 13.0079L66.3113 12.9806L66.2037 12.9503C65.3011 12.7323 64.4977 12.332 63.6546 11.9477L63.5149 11.8854L63.3799 11.8231L63.2364 11.7636L60.9404 11.7108L61.0952 11.7447L61.2472 11.7825L61.4068 11.8165C62.2857 12.0374 63.277 12.0941 64.0276 12.6492L64.0955 12.7011L64.1635 12.7493C64.7517 13.1656 65.7382 13.2997 66.4369 13.4847L66.569 13.5149L66.6965 13.5489L66.8598 13.5914L67.0232 13.631C67.212 13.6782 67.4008 13.7207 67.5896 13.7632V13.7745L68.8698 14.0918L68.8632 14.0804C69.3204 14.2119 69.7561 14.4091 70.1566 14.6658L70.268 14.7375L70.3766 14.8074C71.3594 15.4531 72.1618 15.4758 73.2721 15.692L73.4354 15.726L73.595 15.76L73.7536 15.7996L73.6818 15.7703Z" fill="#9CB8D2"/>
<path d="M43.9109 7.35473L44.0195 7.40477C44.4915 7.65117 44.9494 7.9023 45.4715 8.04297L45.5583 8.06657L45.6461 8.09206L45.7339 8.11378L45.8283 8.14021C46.2119 8.23067 46.5902 8.34256 46.9612 8.47536L47.0254 8.49896L47.0849 8.52068C47.463 8.67495 47.8593 8.77998 48.2641 8.83317L48.3878 8.853L48.5114 8.86905L48.6389 8.88887L48.7663 8.90681L48.8891 8.92286L49.0127 8.94269C49.5276 9.02038 50.0286 9.1714 50.5006 9.39113L50.5847 9.42512L50.6791 9.45721C51.0765 9.61393 51.423 9.6517 51.8393 9.70645L51.9224 9.7159L52.0102 9.72628L52.0858 9.73855L52.1622 9.74611H52.1877L52.2595 9.76027L52.335 9.77254L52.4067 9.78293H52.4322C52.7362 9.83768 53.0374 9.90566 53.3367 9.98024L53.4235 10.0001L53.5075 10.0199L53.5916 10.0359L53.6747 10.0558L53.7861 10.0293L53.8937 10.0057L54.0098 9.9793L54.1137 9.95381L54.2213 9.92832L54.3374 9.90377C54.5206 9.85845 54.7047 9.81786 54.8878 9.77632L55.003 9.74988L55.1144 9.72628L55.2305 9.70079L55.3457 9.67436L55.4618 9.64887L55.3627 9.62054L55.2541 9.59883L55.1465 9.58089L55.0379 9.56673C54.5838 9.5082 54.1335 9.54407 53.6983 9.36941L53.5755 9.33543L53.4434 9.3071L53.3489 9.29106V9.28539L53.2649 9.27406C52.8986 9.22025 52.521 9.17965 52.1518 9.1485L52.081 9.14283C51.9479 9.12584 51.8148 9.10696 51.6826 9.08147L51.5514 9.05314L51.4117 9.01916L51.2767 8.98328L51.1445 8.94363C50.6441 8.79446 50.1579 8.60187 49.6613 8.44515L49.5339 8.4055L49.4225 8.3734C49.0033 8.27049 48.5143 8.27144 48.114 8.13266L48.0262 8.09489L47.9506 8.05241L47.8827 8.00332L47.8147 7.95895L47.7344 7.92307L47.64 7.88908C47.1595 7.74747 46.627 7.77107 46.1569 7.62191L46.0691 7.58792L45.9888 7.55676C45.6952 7.41609 45.4582 7.18385 45.1712 7.03279L45.0919 6.99314L45.0089 6.95727L44.9399 6.92894L44.8606 6.89873C44.5312 6.78639 44.1998 6.70047 43.875 6.58152L43.7995 6.55036L43.7315 6.52204C43.3685 6.35916 43.0179 6.16983 42.6826 5.95559L42.5995 5.90555L42.5193 5.85174L42.44 5.79793L42.356 5.74222L42.4881 6.93178L42.5476 6.94783L42.6118 6.96104L42.6713 6.9752L42.7393 6.98937C43.1433 7.07339 43.4237 7.11965 43.808 7.30186L43.9109 7.35473Z" fill="#9CB8D2"/>
<path d="M56.1387 11.4747L56.0547 11.5342L55.9707 11.5956C55.1691 12.2564 54.9048 12.3744 53.8738 12.5897L53.7502 12.6152L53.6303 12.6435C52.7957 12.7927 52.0895 13.1269 51.2851 13.378L51.1615 13.4092L51.0387 13.4432L50.8348 13.4941L50.6271 13.5366L50.4156 13.5763C49.8039 13.6858 49.1883 13.7405 48.5737 13.8595L48.3745 13.901L48.1715 13.9473C47.7461 14.0651 47.3288 14.2108 46.9225 14.3835L46.779 14.4392L46.6393 14.4986L46.4996 14.5562C45.5819 14.9499 44.7001 15.4059 43.8032 15.8478L43.672 15.9101L43.5483 15.9724L43.4162 16.0337H43.5606H43.7088L43.8476 16.0271L43.9873 16.0215C44.4254 16.0016 44.8587 15.9771 45.2958 15.9356L45.4422 15.9176L45.5904 15.9016L45.7386 15.8817L45.9105 15.7958L46.0823 15.7127L46.2579 15.6249L46.4212 15.5371L46.5883 15.4493L46.7601 15.3634L46.9282 15.269L47.0953 15.1831L47.2671 15.0972L47.4427 15.0141C48.6946 14.3589 49.7595 14.3023 51.0954 14.0153L51.271 13.9756L51.4381 13.9313L51.558 13.8973L51.6817 13.8576C52.4992 13.5952 53.2753 13.1618 54.1467 13.1023L54.2411 13.0948L54.3355 13.0872C55.1852 13.0013 55.6761 12.6209 56.3294 12.1271L56.4238 12.061L56.5182 11.9978L56.6174 11.9317L56.2303 11.42L56.1387 11.4747Z" fill="#9CB8D2"/>
<path d="M59.5601 9.71023L59.5799 9.76971L59.6961 9.7395L59.8159 9.71118C60.9309 9.43645 62.0497 9.18154 63.1656 8.90776L63.3544 8.86622L63.5432 8.82657L63.732 8.78691C64.0917 8.73027 64.51 8.61131 64.8725 8.66324L64.9291 8.67551L64.9848 8.68306L65.0443 8.69534L65.1038 8.70572L65.1633 8.718L65.2199 8.73216L65.2832 8.74443L65.3426 8.75198L65.4106 8.75953L65.4786 8.76992L65.5551 8.81807L65.5985 8.87566L65.623 8.95118L65.6306 9.03332L65.7939 9.02294C66.5712 8.98588 67.3418 8.86077 68.0909 8.65002L68.2665 8.59621L68.1466 8.60282H68.0267C67.6067 8.62544 67.1856 8.59114 66.7748 8.50085L66.6908 8.47914L66.6228 8.48669C66.3236 8.5254 66.0224 8.55089 65.7212 8.58866L65.6523 8.59621L65.5843 8.60659L65.6164 8.51218L65.6353 8.40645L65.6193 8.31204L65.5513 8.25634C65.4522 8.2406 65.3546 8.2166 65.2596 8.18459L65.2076 8.17042L65.1642 8.15721C65.0808 8.13326 64.995 8.11839 64.9084 8.11283H64.8527H64.7856L64.7177 8.1185C63.9331 8.20724 63.1778 8.4461 62.4169 8.6453L62.2366 8.68967L62.0478 8.73782L61.8486 8.78219C61.0499 8.94835 60.2247 8.99367 59.4402 9.24857L59.3921 9.26462L59.3524 9.28445L59.3684 9.34393C59.4043 9.46194 59.5365 9.60261 59.5601 9.71023Z" fill="#9CB8D2"/>
</g>
</g>
</g>
<path fill-rule="evenodd" clip-rule="evenodd" d="M44.0005 10.6006C45.3108 11.2089 46.7267 11.5571 48.1696 11.6258V13.5508C48.1696 13.9134 48.348 14.1692 49.3204 14.1532C50.2768 14.1182 50.4873 13.8567 50.4873 13.4923V11.5683C51.8761 11.4351 53.2649 11.1481 54.6536 10.8309V12.7493C54.6536 13.1732 54.5243 13.5405 53.9729 13.9285C53.0977 14.5299 51.4116 15.1973 49.3204 15.2672C47.2293 15.3371 45.5441 14.6063 44.668 13.8293C44.1166 13.3431 44.0071 12.9391 44.0071 12.519V10.6006M55.3645 10.6676C56.7259 10.3504 58.0882 10.0247 59.4496 9.80847V11.3143C60.3304 10.6723 61.2112 10.0766 62.093 9.55829C63.6649 9.52808 65.2378 9.74711 66.8135 10.3881C65.6466 10.4892 64.4787 10.8262 63.3118 11.3247C64.7598 12.0788 66.1009 13.0223 67.2997 14.1305C65.6192 13.346 63.9387 13.0712 62.2582 13.0854C61.3503 12.6191 60.4138 12.2108 59.4543 11.8628V13.3384C58.0929 13.5546 56.7306 13.8803 55.3692 14.1975L55.3645 10.6676Z" fill="#004A91"/>
<path fill-rule="evenodd" clip-rule="evenodd" d="M44.4641 10.0851C45.7734 10.6931 47.1883 11.0413 48.6303 11.1103V13.0325C48.6303 13.395 48.8088 13.6509 49.7812 13.6348C50.7375 13.5999 50.9481 13.3384 50.9481 12.974V11.0499C52.3368 10.9168 53.7256 10.6298 55.1143 10.3126V12.2272C55.1143 12.6511 54.985 13.0184 54.4336 13.4064C53.5585 14.0078 51.8723 14.6752 49.7812 14.7451C47.69 14.815 46.0048 14.0842 45.1287 13.3072C44.5774 12.821 44.4678 12.417 44.4678 11.9968V10.0851M55.8252 10.1521C57.1866 9.83488 58.5489 9.50917 59.9103 9.29297V10.7988C60.7911 10.1568 61.672 9.5611 62.5538 9.04279C64.1257 9.01258 65.6985 9.23161 67.2742 9.87265C66.1073 9.97366 64.9395 10.3107 63.7726 10.8092C65.2205 11.5633 66.5616 12.5068 67.7604 13.615C66.0799 12.8305 64.3995 12.5557 62.719 12.5699C61.811 12.1036 60.8745 11.6953 59.915 11.3473V12.8229C58.5537 13.0391 57.1913 13.3648 55.83 13.682L55.8252 10.1521Z" fill="white"/>
<mask id="mask2_0_2116" style="mask-type:luminance" maskUnits="userSpaceOnUse" x="44" y="9" width="24" height="6">
<path d="M44.4641 10.086C45.7734 10.694 47.1883 11.0422 48.6303 11.1113V13.0325C48.6303 13.395 48.8088 13.6509 49.7812 13.6348C50.7375 13.5999 50.9481 13.3384 50.9481 12.974V11.0499C52.3368 10.9168 53.7256 10.6298 55.1143 10.3126V12.2272C55.1143 12.6511 54.985 13.0183 54.4336 13.4063C53.5585 14.0077 51.8723 14.6752 49.7812 14.7451C47.69 14.8149 46.0048 14.0842 45.1287 13.3072C44.5774 12.821 44.4678 12.4169 44.4678 11.9968V10.086M55.8252 10.153C57.1866 9.8358 58.5489 9.51009 59.9103 9.2939V10.7997C60.7911 10.1577 61.672 9.56202 62.5538 9.04371C64.1257 9.0135 65.6985 9.23253 67.2742 9.87357C66.1073 9.97458 64.9395 10.3116 63.7726 10.8092C65.2205 11.5633 66.5616 12.5069 67.7604 13.615C66.0799 12.8305 64.3995 12.5557 62.719 12.5699C61.8111 12.1036 60.8745 11.6952 59.915 11.3473V12.8229C58.5537 13.0391 57.1913 13.3648 55.83 13.682L55.8252 10.153Z" fill="white"/>
</mask>
<g mask="url(#mask2_0_2116)">
<mask id="mask3_0_2116" style="mask-type:luminance" maskUnits="userSpaceOnUse" x="-16" y="-13" width="106" height="75">
<path d="M89.0685 -12.3305H-15.0909V61.3198H89.0685V-12.3305Z" fill="white"/>
</mask>
<g mask="url(#mask3_0_2116)">
<path d="M70.5313 13.85L70.6711 14.0011C71.4328 14.8183 72.4038 15.4112 73.4788 15.7156L73.7781 15.8015L73.6789 15.8119L73.5751 15.8213L73.475 15.8288C72.7263 15.8827 72.1901 15.6844 71.4735 15.5079L71.3536 15.4767L71.2252 15.4446C70.199 15.1614 69.1294 15.1925 68.0833 15.3351L67.9153 15.3587L67.7434 15.3785L67.5678 15.4002L67.396 15.4219L67.2214 15.4437C66.7333 15.5069 66.2442 15.5617 65.7533 15.5994L65.5645 15.6117L65.3757 15.624C64.9083 15.6334 64.4495 15.6476 63.985 15.7014L63.8406 15.7193L63.7056 15.7354L63.5658 15.7533C62.8285 15.8392 61.9401 16.0517 61.2056 15.9686L61.1263 15.9544L61.0461 15.9327L61.0064 15.9072V15.877L61.0423 15.8392L61.1103 15.8015L61.2047 15.7618C61.3567 15.657 62.583 15.3521 61.8476 15.1557L61.7532 15.1302L61.6371 15.1085C61.0346 15.0057 60.4176 15.0266 59.8235 15.1699L59.6762 15.2001L59.5365 15.2341L59.4015 15.2718C58.058 15.6108 56.2775 16.4491 54.9312 15.792L54.7953 15.7278L54.6602 15.6617L54.5243 15.5985L54.3846 15.5371L54.2411 15.4776C53.6746 15.2426 53.0411 15.2454 52.4388 15.3143L52.3227 15.3266L52.2075 15.337C51.3352 15.4144 50.4562 15.3209 49.5839 15.3011H49.3686H49.1609H48.9532L48.754 15.3115C47.8647 15.3587 46.9603 15.6136 46.0945 15.7939L45.9057 15.8317L45.7169 15.8694C45.1149 15.9798 44.5028 16.026 43.891 16.0073H43.4124L42.3522 5.74315L42.4201 5.75636L42.4796 5.77241L42.5476 5.79035L42.6118 5.8064C43.5379 6.12267 44.1676 5.95651 45.1155 5.96029L45.243 5.96595L45.378 5.9735C46.442 6.08396 47.4823 6.38513 48.5331 6.573L48.6558 6.59471L48.7842 6.61832L48.9155 6.63625L49.0429 6.65608C50.5686 6.86567 52.1244 6.79109 53.6454 6.573L53.8342 6.54657L54.0098 6.52296L54.1731 6.49842C54.6536 6.43988 55.306 6.33226 55.7781 6.37663L55.8611 6.39457L55.9329 6.41062C56.2255 6.48803 56.4748 6.62398 56.7826 6.66174L56.8581 6.6693H56.9383H57.0941L57.1781 6.66363H57.2659L57.35 6.65325C58.3885 6.49936 58.5046 6.88172 59.3684 6.94497H59.544L59.7187 6.93459C61.0697 6.81941 62.0893 6.49747 63.4837 6.66741L63.6036 6.67968L63.715 6.69384L63.8349 6.70706L63.9463 6.72122L64.0662 6.73727C64.3556 6.77021 64.6423 6.8232 64.9244 6.89588L65.0009 6.91759L65.0717 6.94308C65.6296 7.17344 65.4012 7.48216 65.6306 7.87018L65.725 7.9712L65.7816 8.01935L65.8449 8.06466C66.5293 8.53671 67.1855 8.63678 67.9946 8.6009L68.0701 8.59429L68.1456 8.58863L68.2174 8.58202L68.2806 8.57447L68.2174 8.71042L68.1456 8.84165L68.0786 8.97287C67.8265 9.41188 67.5423 9.82255 67.2931 10.2606L67.2214 10.39L67.1534 10.524L67.0892 10.66V10.744L67.1015 10.8497L67.1298 10.963L67.1817 11.0829L67.2412 11.1943L67.3205 11.2944L67.4149 11.3737L67.5348 11.4218L67.683 11.4596L67.8227 11.504L67.971 11.5483L68.1097 11.6003L68.2447 11.6503C69.4173 12.1129 69.7883 12.652 70.4228 13.6716L70.4747 13.7613L70.5304 13.8491" fill="white"/>
<path d="M67.3724 13.0684L68.4733 13.3138L68.5412 13.4734L68.6498 13.6622L68.765 13.8718L68.8735 14.0748L68.9396 14.2598L68.9519 14.3892L68.8802 14.4505L68.7008 14.425L68.6253 14.4052C68.4229 14.3469 68.2275 14.2664 68.0427 14.1654L67.987 14.1352L67.9304 14.1031C67.7905 14.0207 67.6726 13.9057 67.5867 13.768C67.5007 13.6302 67.4492 13.4738 67.4366 13.312L67.4045 13.1949L67.3715 13.0693" fill="#E9EAEB"/>
<path d="M67.2497 11.4747L67.2893 11.5219L67.329 11.5739C67.8954 12.1148 68.4723 12.5283 69.0123 13.1429L69.1161 13.2525L69.305 13.4677C69.5292 13.7074 69.7235 13.9733 69.8837 14.2598L69.9403 14.3542L69.996 14.4562C70.2099 14.8318 70.5325 15.1339 70.9212 15.3228L71.0931 15.3946L71.2819 15.4578L71.4849 15.5117L71.4018 15.3719L71.2743 15.2105C71.0043 14.8584 70.6626 14.5024 70.3605 14.172L70.149 13.9407L69.9375 13.7113C69.6599 13.3875 69.3437 13.0504 69.1313 12.6794L69.0482 12.5217L69.0085 12.3839L67.2497 11.4747Z" fill="#E9EAEB"/>
<path d="M66.0252 10.4542V10.5958C66.0082 11.2482 66.6625 11.9534 67.0061 12.4698L67.11 12.6246L67.6651 12.4698L67.5933 12.3461C67.2988 11.8373 66.7852 11.4615 66.6323 10.8809L66.6039 10.7591L66.0299 10.4542" fill="#E9EAEB"/>
<path d="M42.356 5.74222L42.44 5.79793L42.5193 5.85174L42.5995 5.90555L42.6836 5.95559C43.0189 6.16982 43.3694 6.35915 43.7324 6.52204L43.8004 6.55036L43.8759 6.58152C44.2035 6.69953 44.5368 6.78544 44.8616 6.89873L44.9409 6.92894L45.0098 6.95727L45.0938 6.99314L45.1731 7.03279C45.4564 7.18385 45.6971 7.41704 45.9907 7.55676L46.071 7.59641L46.1588 7.6304C46.6308 7.77957 47.1614 7.75597 47.6419 7.89758L47.7363 7.93157L47.8166 7.96744L47.8845 8.01181L47.9525 8.06185L48.028 8.10434L48.1158 8.1421C48.5152 8.28182 49.0052 8.27994 49.4244 8.38284L49.5358 8.41494L49.6632 8.45459C50.1607 8.61131 50.647 8.8039 51.1464 8.95307L51.2785 8.99272L51.4135 9.0286L51.5533 9.06258L51.6845 9.09091C52.2661 9.20325 52.8637 9.20514 53.4471 9.3156L53.5793 9.34392L53.702 9.37791C54.1372 9.55257 54.5876 9.51669 55.0426 9.57523L55.1503 9.58939L55.2579 9.60732L55.3664 9.62904L55.4656 9.65736L55.3495 9.68285L55.2343 9.70929L55.1182 9.73478L55.0068 9.75838L54.8916 9.78387C54.7075 9.82541 54.5243 9.866 54.3412 9.91132L54.225 9.93587L54.1174 9.96136L54.0136 9.98779L53.8974 10.0133L53.7898 10.0369L53.6784 10.0624L53.5953 10.0425L53.5113 10.0265L53.4273 10.0067L53.3404 9.98685C52.9515 9.89244 52.5597 9.80464 52.1641 9.74327L52.0876 9.73572L52.0121 9.72345L51.9243 9.71306L51.8412 9.70362C51.4239 9.64886 51.0784 9.60921 50.68 9.45438L50.5856 9.42228L50.5016 9.3883C50.0296 9.16855 49.5285 9.01754 49.0137 8.93985L48.89 8.92003L48.7673 8.90398L48.6417 8.88982L48.5143 8.86999L48.3906 8.85394L48.2641 8.83317C47.8589 8.78005 47.4623 8.67502 47.084 8.52068L47.0245 8.49896L46.9603 8.47536C46.5892 8.34256 46.211 8.23067 45.8274 8.14021L45.733 8.11472L45.6452 8.09301L45.5574 8.06752L45.4705 8.04391C44.9494 7.90136 44.4953 7.65117 44.0157 7.40476L43.9071 7.35473L43.8032 7.3028C43.4199 7.12059 43.1424 7.07433 42.7345 6.99031L42.6666 6.97615L42.6071 6.96199L42.5429 6.94877L42.4834 6.93272L42.3512 5.74317" fill="#ED1C24"/>
<path d="M42.7884 10.2172L43.0197 11.6333L43.0877 11.6192L43.1594 11.6078L43.2274 11.5918C43.9978 11.403 44.3858 11.4237 45.1967 11.5021L45.345 11.5153L45.4885 11.5295L45.6357 11.5418C46.0055 11.5802 46.3778 11.5884 46.7488 11.5663L46.8593 11.5559L46.9679 11.5418C47.2926 11.4889 47.6231 11.4096 47.9488 11.3784L48.0564 11.369L48.165 11.3624H48.2726L48.4803 11.3728L48.688 11.386L48.8957 11.4058C49.4385 11.4596 49.9748 11.5606 50.5148 11.6333L50.7178 11.6588L50.9293 11.6786C51.453 11.726 51.9799 11.7282 52.504 11.6853L52.6994 11.6711L52.8882 11.6532L53.0771 11.6333C54.1975 11.5285 55.3098 11.35 56.4069 11.099L56.5504 11.0688L56.6854 11.0414L56.8251 11.0131L56.9337 11.1622L57.0328 11.3123L57.1366 11.4634C57.2782 11.6975 57.5435 12.0742 57.6304 12.3206L57.654 12.4103L57.6663 12.5047C57.6757 12.8153 57.7276 12.8956 57.9495 13.0986L58.0203 13.1665L58.1006 13.2354L58.1723 13.3034C58.7321 13.8151 59.1711 14.1682 59.1494 15.0094V15.1689V15.3323L59.3732 15.2822C60.1124 15.135 61.1887 14.8725 61.9137 15.1671L62.0374 15.2265L61.9732 15.1727L61.9137 15.1189C61.7249 14.9697 61.5739 14.7941 61.3992 14.6308L61.3435 14.577L61.2869 14.5213C61.015 14.2447 60.6694 14.0493 60.4183 13.7519L60.338 13.6386L60.2814 13.5234L60.3333 13.3837C60.4702 12.8531 60.0813 12.0261 59.8348 11.554L59.7754 11.4407L59.899 11.4247L60.0218 11.4049L60.1502 11.385C60.9678 11.2529 61.6088 11.082 62.4386 11.3029L62.5661 11.3369L62.6822 11.3709L62.8021 11.4086C63.0841 11.5028 63.3717 11.5794 63.6631 11.6381L63.7991 11.6579L63.9341 11.672C64.3276 11.6903 64.7219 11.6811 65.1142 11.6447L65.2662 11.6362L65.4125 11.6305H65.557H65.7042L65.8487 11.6371L65.9837 11.6447C66.2849 11.6692 66.384 11.7391 66.57 11.9638L66.6295 12.0317L66.6852 12.094L66.7418 12.1176H66.8287L66.9231 12.0922L67.0345 12.0544L67.1544 12.0166L67.2705 11.9826L67.3857 11.959H67.4801L67.6075 11.9893L67.7274 12.0346L67.8218 12.0884L67.9162 12.1441L68.0003 12.2102L68.0843 12.2715L68.1711 12.3338L68.2656 12.3933H68.3373H68.4176H68.4884H68.5639C68.7612 12.3933 68.9614 12.3858 69.1587 12.3792H69.2342H69.3059H69.3862H69.457L69.3701 12.3036L69.2663 12.2281L69.1662 12.1545L69.0586 12.0789C68.6501 11.8152 68.2047 11.6138 67.7369 11.4813L67.5858 11.4436L67.43 11.4096C67.0467 11.3907 66.6899 11.5984 66.3689 11.3237L66.3056 11.2538L66.2414 11.1783L66.1895 11.099L66.1423 11.0187C65.9979 10.7355 65.8241 10.7884 65.5362 10.7903H65.4522L65.3578 10.7959C65.0558 10.8284 64.7508 10.8163 64.4524 10.76L64.3693 10.7478L64.2891 10.7346L64.2098 10.7223L64.1295 10.7091L64.0493 10.6949C63.4007 10.5693 62.7341 10.5693 62.0997 10.4202L62.0195 10.3937L61.9364 10.3683L61.8561 10.3409C61.587 10.2321 61.3054 10.1573 61.0178 10.1181L60.9234 10.1096H60.8035C60.342 10.1184 59.8818 10.1623 59.427 10.2408L59.2948 10.2587L59.1721 10.2729L59.0484 10.2889L58.9247 10.3012L58.8417 10.1398L58.7473 9.97645C58.5273 9.53934 58.1053 9.13621 58.1053 8.62169V8.49235L58.1128 8.36301C58.1704 7.88152 57.6276 7.39531 57.3906 7.0139L57.2962 6.85246L57.2169 6.68914L57.1366 6.68253H57.0772C56.7193 6.69952 56.6136 6.63816 56.2756 6.5513L56.2077 6.53147L56.1321 6.51165L56.0604 6.48993L55.9924 6.47011L55.9216 6.45217L55.8574 6.43234L55.7894 6.41629L55.7299 6.39836L55.6705 6.38514C55.4817 6.38514 55.2768 6.39269 55.0917 6.40874L54.9803 6.41629L54.8727 6.42385L54.7783 6.43046L54.7859 6.59189L54.8142 6.75145C54.9086 7.15646 55.0785 7.77767 55.3646 8.0845L55.4722 8.21195L55.6044 8.31202C55.9981 8.76047 56.0028 9.02576 56.0434 9.59127L56.0594 9.7461L56.0878 9.89998L55.9244 9.93397L55.7611 9.96796L55.5978 10.0057C54.395 10.2889 53.4415 10.4778 52.1924 10.4976L52.0131 10.5042H51.8337H51.6543C51.2096 10.5042 50.7404 10.5042 50.2986 10.4721L50.1627 10.4579L50.0239 10.4419C49.6179 10.3881 49.2195 10.3107 48.8117 10.2663L48.6767 10.254L48.5369 10.2455H48.3934H48.282L48.1621 10.2512C47.3861 10.3352 46.6185 10.5004 45.8331 10.4164L45.7169 10.4098L45.597 10.4041C44.7804 10.3673 43.9647 10.2795 43.1481 10.2304L43.0282 10.22L42.913 10.2125L42.7931 10.2068" fill="#ED1C24"/>
<path d="M60.9403 11.7108L63.2373 11.7646L63.3808 11.8241L63.5158 11.8864L63.6555 11.9487C64.4948 12.332 65.2973 12.7332 66.2046 12.9513L66.3122 12.9815L66.4198 13.0089C67.3497 13.2628 68.308 13.4139 69.2275 13.6962L69.355 13.7396L69.4777 13.7915L69.5816 13.8397L69.676 13.8897C70.4313 14.4222 70.4048 14.6761 71.4112 15.0179L71.5273 15.0594L71.6425 15.1019C72.3034 15.3295 72.8604 15.5541 73.5449 15.7194L73.6128 15.7458L73.6836 15.7694L73.7592 15.7996L73.5996 15.76L73.4401 15.726L73.2767 15.692C72.1665 15.4758 71.364 15.4531 70.3812 14.8074L70.2726 14.7385L70.1612 14.6667C69.2172 14.0427 68.1022 13.9001 67.0231 13.6282L66.8598 13.5886L66.6964 13.5461L66.569 13.5121L66.4368 13.4819C65.7382 13.2931 64.7526 13.1637 64.1634 12.7464L64.0955 12.6983L64.0303 12.6548C63.2798 12.0997 62.2885 12.0431 61.4095 11.8212L61.2509 11.7872L61.0989 11.7495L60.9441 11.7155" fill="#ED1C24"/>
<path d="M60.7006 11.9562L60.8526 11.9978L61.0121 12.0403L61.1754 12.0799C61.8693 12.2687 62.8748 12.4415 63.4922 12.787L63.564 12.8333L63.6395 12.8833C64.1115 13.3167 64.5713 13.5196 65.1906 13.6801L65.3266 13.7198L65.4654 13.7557L65.6004 13.7953L65.7401 13.8293C66.6842 14.0823 67.6387 14.2504 68.596 14.4194L68.799 14.459L68.9944 14.4968C69.9451 14.7026 70.0971 14.78 70.8693 15.2794L70.9534 15.3276L71.0364 15.3776L71.1214 15.422L71.027 15.4059L70.9269 15.3861L70.8325 15.3682C69.8705 15.1794 69.1568 15.2369 68.1891 15.3342L68.0777 15.3465L67.9578 15.3606L67.8464 15.3729C67.4593 15.4107 67.0769 15.4673 66.6899 15.5079L66.5785 15.5221L66.4586 15.5362C65.8534 15.6127 65.2813 15.6202 64.6752 15.6674L64.4599 15.6854L64.2532 15.7014L64.0379 15.7213L63.8264 15.743L63.615 15.7675L63.3997 15.7911C62.8795 15.843 62.3612 15.9563 61.841 15.9922L61.7249 16.0007L61.6135 16.0064H61.5021H61.3945H61.2944L61.2 16.0007L61.1197 15.9884L61.0518 15.9752L61.0093 15.9592L60.9734 15.9337L60.9658 15.9063L60.9734 15.8648L61.014 15.8251L61.0772 15.7855L61.1575 15.7458L61.2453 15.708L61.3491 15.6703L61.4568 15.6306L61.5682 15.5947L61.6767 15.5589L61.7759 15.5211L61.8703 15.4852L61.9505 15.4475L62.01 15.4135L62.0459 15.3776L62.0619 15.3417L62.0478 15.2983L61.9958 15.236C61.7296 14.9528 61.4521 14.6846 61.1622 14.4231L61.0744 14.3429L60.9904 14.2674L60.9073 14.1918L60.8233 14.1144V13.5725L60.811 13.0146L60.7799 12.467L60.7034 11.9543" fill="#004A91"/>
<path d="M64.0228 11.8996L64.1342 11.9194L64.2503 11.9373L64.374 11.9534C65.0991 12.0657 65.9374 12.0601 66.6351 12.2659L66.6946 12.2857L66.7465 12.3074L66.7984 12.3329L66.8381 12.3546L66.8702 12.3801L66.8938 12.4075L66.9061 12.4396V12.4613V12.4877L66.9297 12.5179L66.9778 12.5378L67.0533 12.5312L67.1336 12.5038L67.228 12.4641L67.3224 12.4197C67.5726 12.2914 67.8143 12.3612 68.0645 12.4358L68.1202 12.4556L68.1796 12.4773L68.2363 12.5009L68.2835 12.5227L68.343 12.5444L68.3911 12.5699C68.6545 12.6832 68.5573 12.6341 68.7376 12.8229L68.7735 12.8484L68.8329 12.8663C69.0556 12.9038 69.2814 12.9184 69.507 12.9097H69.7223H69.7931H69.8611H69.93L70.0055 12.9909L70.0735 13.0929L70.1415 13.2128L70.2009 13.3383L70.2765 13.4724L70.352 13.6102L70.4464 13.7481L70.554 13.8812L70.6343 13.9624L70.7174 14.0445C71.0296 14.3287 71.3584 14.5942 71.702 14.8395L71.7823 14.897L71.8503 14.9509L71.9069 14.9962L71.9541 15.032L71.7549 14.9905L71.5661 14.931L71.3867 14.8612C70.6796 14.5647 70.1528 13.8803 69.5165 13.6017L69.4409 13.5753L69.3465 13.5498C68.8745 13.4092 68.4024 13.3261 67.9304 13.2052L67.8105 13.175L67.6878 13.1448L67.5594 13.1165C66.4331 12.8644 65.3342 12.5614 64.2975 12.0365L64.1588 11.9628L64.0228 11.8873" fill="#004A91"/>
<path d="M56.741 12.2272L56.8005 12.331L56.8562 12.4424C57.1206 13.0768 57.1838 13.175 57.7182 13.5753L57.7899 13.6348L57.8655 13.6924C58.4187 14.1002 58.4159 14.5421 58.4319 15.1973V15.3766V15.5485L58.3045 15.6042L58.1657 15.6542L58.0099 15.7061C57.2546 15.9573 56.2161 16.1291 55.4288 15.9894L55.2975 15.962L55.1814 15.9318C54.3601 15.7071 54.2685 15.2615 53.347 15.3143H53.1837L53.0157 15.3247L52.841 15.3323L52.6692 15.3445C51.7921 15.439 51.0822 15.354 50.2146 15.3049L50.0635 15.2983L49.9125 15.2917C48.9684 15.2747 48.0243 15.4569 47.0972 15.607L46.9291 15.6325L46.7545 15.6599L46.5864 15.6854L46.6865 15.6457L46.7979 15.6023L46.9131 15.5541C47.5707 15.2309 48.2458 14.9447 48.9353 14.6969L49.0108 14.6714L49.0788 14.645C49.8851 14.3617 50.8197 14.2957 51.659 14.0993L51.8035 14.0672L51.9309 14.037L52.0536 14.003L52.1773 13.9643C52.9477 13.7377 53.6718 13.3431 54.4781 13.2487L54.5725 13.2345L54.6565 13.2251C55.424 13.1392 55.8659 12.838 56.4673 12.3962L56.5513 12.3405L56.6353 12.2829L56.7297 12.2253" fill="#004A91"/>
<path d="M42.4995 7.2556L42.7884 9.72817L42.8686 9.72061L42.9479 9.71306H43.032C43.572 9.70645 44.112 9.75366 44.652 9.77254L44.8153 9.78481L44.9824 9.79897C45.7519 9.85656 46.6648 10.0152 47.4239 9.88205L47.54 9.86789L47.6514 9.85468L47.7628 9.84051L47.878 9.82635C48.4897 9.73194 49.2611 9.91415 49.8879 9.97363L50.0229 9.98968L50.1579 10.0095C50.9616 10.1183 51.7707 10.1819 52.5814 10.2002H52.7334H52.8845H53.0431L52.8713 10.1624L52.6994 10.1266L52.5248 10.0926C51.6902 9.91321 50.5648 9.7952 49.8001 9.44116L49.7246 9.40907L49.6491 9.37697C49.0401 9.08713 48.6266 9.17021 47.9941 9.09374L47.9101 9.07769L47.826 9.06164L47.7316 9.04182L47.6476 9.0201C46.999 8.8209 46.5043 8.6132 45.8208 8.47819L45.7151 8.45742L45.6065 8.42721C44.7002 8.21763 43.9468 7.62379 42.9829 7.36795L42.8195 7.32641L42.6638 7.28675L42.5004 7.25277" fill="#004A91"/>
<path d="M44.1233 5.99618L44.2385 6.03016L44.3584 6.06226L44.4783 6.09059L44.5897 6.11797C45.0051 6.21237 45.4129 6.28979 45.817 6.44273L45.9246 6.48427L45.9964 6.51826C46.2692 6.65326 46.4684 6.86474 46.7139 7.02807L46.8489 7.11209L46.9206 7.14797L47.0009 7.18007C47.3039 7.29147 47.6523 7.31318 47.9695 7.36322L48.0639 7.37738L48.1517 7.3906C48.6785 7.45479 48.7106 7.70026 49.1525 7.7975L49.2365 7.81733L49.3205 7.83149L49.4149 7.84565L49.4989 7.85981L49.5933 7.87019L49.6802 7.88058C50.0213 7.90582 50.3592 7.96335 50.6894 8.0524L50.7933 8.08639L50.8924 8.1166C51.2616 8.245 51.6212 8.39983 51.9979 8.50934L52.1008 8.53578L52.2094 8.55749L52.317 8.57732L52.4209 8.59714C52.842 8.65284 53.264 8.6755 53.685 8.73215L53.7964 8.7482L53.9041 8.76802C54.2477 8.83977 54.5923 8.98611 54.9256 9.0994L55.0124 9.12678L55.0964 9.15132L55.1805 9.17492L55.2645 9.19475L55.2012 9.0673L55.1701 8.9238C55.1399 8.55655 54.9001 8.46403 54.6669 8.21667L54.5829 8.12699L54.5196 8.03919C54.3752 7.74557 54.3062 7.17912 54.2685 6.85247L54.2402 6.66365L54.2118 6.48049L54.0136 6.50787L53.8096 6.5362C51.9328 6.80243 50.2221 6.89778 48.35 6.52864L48.1867 6.50032L48.0233 6.46917L47.8676 6.43518C47.2133 6.30962 46.5647 6.16234 45.9038 6.04621L45.732 6.016L45.5564 5.98579C45.1788 5.9367 44.7502 5.97258 44.3716 5.98579H44.2847H44.2007H44.1214" fill="#004A91"/>
<path d="M61.2925 9.82256L61.3964 9.80085L61.5002 9.77536C62.2216 9.54877 62.955 9.3625 63.6971 9.2174L63.8132 9.19757L63.9246 9.17964C64.4316 9.08523 65.0726 9.0097 65.5589 9.23156L65.5947 9.27121L66.2679 9.52045L66.3793 9.50252C66.9163 9.42746 67.4432 9.29256 67.9502 9.10033L68.0192 9.07862L67.9153 9.25611L67.8001 9.44493L67.6963 9.62619L67.5877 9.80934L67.4725 9.99344L67.3687 10.1728L67.261 10.356L67.1534 10.5391L67.1298 10.6335L67.1015 10.7279L67.0779 10.8176L67.0581 10.912L66.9637 10.9045L66.8693 10.8941L66.7852 10.8865C66.2084 10.8346 66.3472 10.6977 65.9988 10.4362L65.9186 10.389L65.8506 10.3692C65.4928 10.2908 65.1246 10.3267 64.762 10.3012L64.6818 10.2937L64.6063 10.2814L64.526 10.2682L64.4458 10.2502C64.1408 10.1917 63.8633 10.069 63.5564 10.0114L63.4762 9.99533L63.3959 9.98306C62.8295 9.90375 62.263 9.88865 61.689 9.84805L61.5578 9.84144L61.4219 9.83106L61.2925 9.82256Z" fill="#004A91"/>
<path d="M46.2645 8.25353L46.373 8.28751L46.4807 8.3215C46.9527 8.46972 47.4304 8.59812 47.8968 8.75012L48.0044 8.7841L48.0847 8.79354C48.4189 8.84453 48.7455 8.91439 49.0816 8.96348L49.1609 8.97764L49.2412 8.98992V9.04373L49.2015 9.09376L49.1657 9.14569V9.20139L49.0977 9.18345L49.0259 9.16929C48.5907 9.08716 48.0818 9.16929 47.6816 9.03806L47.6136 9.01824L47.5541 8.99841C47.1689 8.86435 46.8054 8.7775 46.4212 8.63588L46.3447 8.61134L46.2654 8.59151V8.34133V8.25353" fill="#E9EAEB"/>
<path d="M49.8058 9.44494L49.8294 9.52519L49.8492 9.59316L49.8813 9.65547L49.9172 9.71495L49.9766 9.77631L50.0446 9.84051L50.139 9.92076L50.2542 10.0152L50.3779 10.0388L50.493 10.0548L50.5931 10.0728L50.6875 10.0831L50.7819 10.0973C51.0652 10.1294 51.3484 10.1502 51.6316 10.1709L51.7666 10.1832L51.9148 10.1936L51.8865 10.1351L51.8629 10.0831L51.8431 10.0331L51.8157 9.97741L51.7392 9.96136L51.6599 9.94531L51.5835 9.93114L51.5042 9.91793L51.4239 9.89999L51.3408 9.88394L51.2606 9.86978L51.1775 9.85184L51.0963 9.82257L51.0161 9.80464L50.9368 9.78859C50.6319 9.72715 50.3331 9.63901 50.0437 9.52519L49.9398 9.48931L49.8048 9.43739" fill="#004A91"/>
<path d="M46.2484 8.58863V8.7208L46.1871 8.87846L46.0927 9.05028L45.9813 9.22966L45.8736 9.41093L45.7896 9.57614L45.7452 9.72342L45.7613 9.8386V9.8471L45.7452 9.85465H45.7169H45.6773C45.5366 9.84313 45.3969 9.82231 45.259 9.79234L45.1646 9.77251L45.0702 9.7508L44.9758 9.72909L44.8757 9.70548L44.7813 9.68094L44.6784 9.65356L44.584 9.61579L44.5245 9.57142L44.4887 9.5195V9.46002L44.5123 9.40243L44.5566 9.33729C44.6834 9.19992 44.8257 9.07764 44.9805 8.97287L45.0362 8.92755L45.0806 8.8879L45.1089 8.86052V8.8407L44.9456 8.67737L44.7983 8.55369L44.6709 8.45929L44.551 8.37337L44.4518 8.27896L44.3574 8.17511L44.2781 8.03539L44.2186 7.84657L44.3263 7.90794C44.899 8.18615 45.5005 8.40079 46.12 8.54803L46.2437 8.58202" fill="#004A91"/>
<path d="M51.7912 8.44517L51.7355 8.58301V8.68875L51.7921 8.76616L51.8799 8.83225L51.963 8.88984L52.0338 8.95781L52.0744 9.04372L52.0508 9.15324L52.1452 9.16079C52.5568 9.19383 52.9241 9.24293 53.33 9.30429L53.4056 9.31656L53.2819 9.24293C53.0931 9.10037 52.976 8.99557 52.975 8.74633L52.9826 8.65193H52.9024C52.5481 8.6377 52.1972 8.57805 51.8582 8.47444L51.7864 8.45272" fill="#E9EAEB"/>
<path d="M52.0791 9.15225L52.0508 9.24666L52.0149 9.32691L51.9961 9.40905L51.9885 9.50346L51.9998 9.53178L52.0159 9.56388L52.0395 9.59786L52.0678 9.63185L52.0961 9.66773L52.132 9.69983L52.1603 9.73004L52.1877 9.75553L52.2595 9.76969L52.335 9.78196L52.4067 9.79235C52.6921 9.83288 52.9744 9.89281 53.2517 9.97172L53.3319 9.98966L53.4122 10.0095L53.3603 9.9519L53.2961 9.89242C53.1961 9.80785 53.1122 9.7058 53.0487 9.59126L53.0327 9.52611L53.0487 9.49779C53.1157 9.44964 53.2621 9.43359 53.3197 9.38261L53.348 9.34674V9.30048L53.2677 9.28443C52.9014 9.23061 52.5238 9.19002 52.1547 9.15886L52.0839 9.1532" fill="#ED1C24"/>
<path d="M48.4821 9.7999L48.5765 9.81217C49.0165 9.86788 49.4564 9.91886 49.8983 9.9755L49.9927 9.98589L50.0578 10.1058L50.1097 10.2257L50.1409 10.3456L50.1522 10.4834L50.0578 10.4655C49.5622 10.3796 49.0609 10.3314 48.5624 10.2663L48.4548 10.2521L48.502 10.1351L48.518 10.0237L48.5104 9.91791L48.4784 9.80462" fill="#E9EAEB"/>
<path d="M45.7698 9.86032L45.8415 9.86787C46.2136 9.91352 46.5884 9.93151 46.9631 9.92169H47.0509L47.0311 10.0435V10.2927L47.0235 10.4164L46.9433 10.4287C46.5272 10.4739 46.1075 10.4739 45.6914 10.4287L45.6083 10.4164L45.664 10.3465L45.7235 10.2748L45.7877 10.2068L45.8434 10.1369L45.8717 10.069L45.8793 10.001L45.8481 9.93302L45.7726 9.86315" fill="#E9EAEB"/>
<path d="M43.385 15.4427L43.0216 12.1488H43.2104H43.3992H43.588C44.5321 12.1488 45.5281 12.1762 46.4675 12.0893L46.611 12.0752L46.7507 12.0572C47.7061 11.9194 48.3991 11.8438 49.3743 11.9751L49.5424 11.9949L49.717 12.0147L49.8926 12.0346L50.0598 12.0544C50.7986 12.1575 51.5494 12.1387 52.2821 11.9987L52.402 11.9845L52.5134 11.9732L52.6333 11.9656C52.8977 11.943 53.1299 11.976 53.399 11.9477L53.5425 11.9335L53.6822 11.9175C53.9966 11.8693 54.2987 11.8117 54.6112 11.7542L54.7273 11.7306L54.8312 11.7145L54.9303 11.7013L55.0181 11.6909L54.935 11.7306L54.8406 11.7759C52.8373 12.6935 50.8509 12.989 48.7106 13.3884L48.5671 13.4186L48.451 13.4469L48.3311 13.4771C47.6108 13.648 46.8376 13.8604 46.1654 14.172L46.071 14.2163L45.9766 14.2607C45.243 14.6327 44.483 14.9471 43.7353 15.2888L43.6154 15.3389L43.4955 15.3927L43.3803 15.4465" fill="#004A91"/>
<path d="M43.4209 16.0356L43.5531 15.9743L43.6768 15.9119L43.808 15.8496C44.7039 15.4106 45.5866 14.9528 46.5043 14.5581L46.644 14.5005L46.7837 14.4411L46.9273 14.3854C47.3336 14.2127 47.7508 14.067 48.1763 13.9492L48.3793 13.9029L48.5785 13.8614C49.1893 13.7405 49.8058 13.6858 50.4204 13.5782L50.6319 13.5385L50.8396 13.496L51.0435 13.445L51.1662 13.4111L51.2899 13.379C52.0895 13.1288 52.7938 12.7946 53.6303 12.6454L53.7502 12.6171L53.8739 12.5906C54.9048 12.3744 55.1691 12.2527 55.9707 11.5965L56.0547 11.5352L56.1378 11.4757L56.2322 11.42L56.6193 11.9317L56.5201 11.9978L56.4257 12.062L56.3313 12.128C55.678 12.6218 55.1843 13.0023 54.3374 13.0882L54.243 13.0957L54.1486 13.1033C53.2781 13.1609 52.5011 13.5942 51.6836 13.8586L51.5599 13.8982L51.44 13.9322L51.2729 13.9756L51.0973 14.0153C49.7614 14.2985 48.6965 14.3589 47.4446 15.0141L47.269 15.0972L47.0972 15.1831L46.9301 15.269L46.762 15.3634L46.5902 15.4493L46.4231 15.5371L46.2598 15.6249L46.0842 15.7127L45.9124 15.7968L45.7405 15.8827L45.5923 15.9025L45.4441 15.9186L45.2978 15.9365C44.8606 15.978 44.4273 16.0016 43.9892 16.0224L43.8495 16.0281L43.7107 16.0347H43.5625H43.4181" fill="#ED1C24"/>
<path d="M66.2527 12.1734L66.3368 12.1875L66.417 12.2036C66.5455 12.233 66.6717 12.2715 66.7946 12.3188L66.8702 12.3499L66.8985 12.4198L66.9457 12.4859L67.0099 12.5435L67.0779 12.6029L67.1421 12.6653L67.177 12.7389L67.1855 12.8201L67.1572 12.9145L67.0628 12.89C66.8866 12.8536 66.7218 12.7752 66.5824 12.6615C66.443 12.5477 66.3331 12.402 66.2622 12.2366L66.2546 12.1687" fill="#004A91"/>
<path d="M63.0419 12.5982L63.1495 12.6378C63.5885 12.8012 63.9747 13.1259 64.3259 13.429L64.4061 13.4903L64.3863 13.6017C64.2919 14.357 64.1927 14.6874 63.5083 15.1368L63.3195 15.252L63.327 14.8895C63.2817 14.2286 62.9447 13.5829 62.9872 12.9192L63.0438 12.5982" fill="#004A91"/>
<path d="M59.5809 9.77062L59.561 9.71115C59.5374 9.60352 59.4072 9.46285 59.3656 9.34295L59.3496 9.28347L59.3892 9.26365L59.4374 9.2476C60.221 8.9927 61.047 8.94738 61.8457 8.78122L62.0449 8.73685L62.2338 8.6887L62.4169 8.63866C63.1779 8.4404 63.9331 8.2006 64.7186 8.11186L64.7866 8.1062H64.8508H64.9065C64.9931 8.11174 65.0789 8.12662 65.1623 8.15057L65.2058 8.16379L65.2577 8.17795C65.3527 8.20998 65.4503 8.23398 65.5494 8.2497L65.6174 8.3054L65.6334 8.39981L65.6174 8.50555L65.5853 8.59995L65.6533 8.58957L65.7222 8.58202C66.0224 8.54425 66.3236 8.51876 66.6238 8.48006L66.6918 8.4725L66.7758 8.49422C67.1879 8.58625 67.6106 8.62182 68.0324 8.59995H68.1523L68.2722 8.59335L68.0966 8.64716C67.3475 8.85791 66.5769 8.98302 65.7996 9.02007L65.6363 9.03046L65.6287 8.94832L65.6042 8.8728L65.5607 8.81521L65.4843 8.76706L65.4163 8.75667L65.3483 8.74912L65.2888 8.74157L65.2256 8.73024L65.1689 8.71608L65.1095 8.7038L65.05 8.69342L64.9905 8.68115L64.9348 8.67359L64.8782 8.66132C64.5156 8.6094 64.0965 8.72741 63.7377 8.785L63.5489 8.82465L63.3601 8.8643L63.1713 8.90584C62.0553 9.17963 60.9375 9.43453 59.8216 9.70926L59.7017 9.73758L59.5856 9.76779" fill="#ED1C24"/>
<path d="M66.0573 10.8403L66.1206 10.9168L66.1725 10.9961C66.2811 11.1849 66.4303 11.4086 66.6663 11.4322H66.7144L66.7579 11.4379H66.8098H66.8542H66.8976L66.9486 11.503L67.0052 11.5672L67.0571 11.6295L67.1128 11.6956L67.1695 11.757L67.2252 11.8231L67.2771 11.8863L67.3337 11.9524L67.262 11.9722C67.1228 12.029 66.9787 12.0729 66.8315 12.1035H66.7522L66.6247 11.9505C66.3982 11.6673 66.1612 11.3624 66.0819 10.9979L66.0583 10.828" fill="#ED1C24"/>
<path d="M67.2402 11.4719L68.9708 12.3763L68.2768 12.3905L68.1928 12.3367C67.8521 12.1182 67.5478 11.8474 67.2912 11.5342L67.2393 11.4719" fill="#ED1C24"/>
<path d="M67.4451 13.2657L68.5459 13.5111L68.8726 14.0927L67.5924 13.7764L67.4451 13.2657Z" fill="#ED1C24"/>
</g>
</g>
<path d="M55.8167 10.1521C57.1781 9.83488 58.5404 9.50917 59.9018 9.29297V10.7988C60.7826 10.1568 61.6635 9.5611 62.5453 9.04279C64.1172 9.01258 65.69 9.23161 67.2657 9.87265C66.0988 9.97366 64.931 10.3107 63.7641 10.8092C65.212 11.5633 66.5531 12.5068 67.7519 13.615C66.0714 12.8305 64.391 12.5557 62.7105 12.5699C61.8026 12.1036 60.866 11.6953 59.9065 11.3473V12.8229C58.5452 13.0391 57.1828 13.3648 55.8215 13.682L55.8167 10.1521Z" stroke="white" stroke-linecap="round" stroke-linejoin="round"/>
<path d="M44.4641 10.0851C45.7734 10.6932 47.1883 11.0414 48.6303 11.1104V13.0325C48.6303 13.3951 48.8088 13.6509 49.7812 13.6349C50.7375 13.5999 50.9481 13.3384 50.9481 12.974V11.05C52.3368 10.9168 53.7256 10.6298 55.1143 10.3126V12.2282C55.1143 12.6521 54.985 13.0193 54.4336 13.4073C53.5585 14.0087 51.8723 14.6762 49.7812 14.7461C47.69 14.8159 46.0048 14.0852 45.1287 13.3082C44.5774 12.8211 44.4678 12.4179 44.4678 11.9969L44.4641 10.0851Z" stroke="white" stroke-linecap="round" stroke-linejoin="round"/>
</svg>
