<svg width="102" height="33" viewBox="0 0 102 33" fill="none" xmlns="http://www.w3.org/2000/svg">
<path d="M8.75312 9.4836C9.1541 9.45926 8.92306 8.59716 8.92306 8.59716C11.0057 7.41285 16.6834 7.43147 16.6834 9.81155C16.6834 11.541 13.1691 11.8312 10.9981 11.8627C11.0053 11.6751 11.0172 11.4794 11.0358 11.2746C11.2182 9.29505 10.8902 9.3256 10.5623 9.25877C10.5623 9.25877 10.3499 9.1676 10.3317 9.69603C10.3317 9.69603 10.3117 10.7071 10.3002 11.8651C9.83528 11.8618 9.49875 11.8503 9.37654 11.8517C8.72687 11.858 9.26341 12.4589 9.26341 12.4589C9.61808 12.479 9.96226 12.4928 10.2954 12.5014C10.2873 13.797 10.2954 15.0815 10.3565 15.2219C10.484 15.5135 10.8425 16.1875 11.2311 15.999C11.6196 15.8109 11.7289 15.7441 11.4984 15.0882C11.3203 14.5822 11.0344 13.7655 10.9962 12.51C15.0699 12.5086 17.3278 11.5419 17.3278 9.59292C17.3278 7.38278 13.9882 6.73883 11.875 6.73883C9.41569 6.73883 8.41993 7.25485 8.04951 7.49161C7.67908 7.72838 8.3531 9.50747 8.75408 9.48313L8.75312 9.4836Z" fill="white"/>
<path d="M16.8251 15.903C17.7884 16.4052 19.4888 15.3283 20.7275 14.5588C21.9662 13.7898 23.0594 12.9964 23.6422 13.9597C24.2251 14.923 24.5654 14.5588 24.8566 14.3807C25.1483 14.2027 25.407 13.984 24.2088 13.1177C23.0107 12.2513 21.8932 12.8666 20.1766 14.0409C18.4601 15.2147 17.1082 15.5712 17.0027 14.8017C16.8977 14.0327 18.4357 13.3282 19.4477 13.0045C20.4597 12.6809 20.328 11.6775 19.7069 11.887C15.416 13.3363 15.8609 15.4008 16.8247 15.903H16.8251Z" fill="white"/>
<path d="M29.5285 15.2504C31.0426 14.0685 33.585 13.0885 34.8557 13.9387C34.8557 13.9387 35.1474 14.3435 35.5684 13.9549C35.9894 13.5663 35.8114 13.1453 34.6132 13.0804C33.4151 13.0155 31.8279 13.1453 30.0144 14.2141C28.201 15.2829 27.6974 15.5077 27.6487 14.7468C27.6 13.9859 28.1198 12.951 27.051 13.0809C26.102 13.1959 26.2009 14.6194 26.7274 15.3641C27.2539 16.1087 28.0148 16.4328 29.529 15.2509L29.5285 15.2504Z" fill="white"/>
<path d="M36.5966 6.71588C37.0907 6.95885 37.2687 9.89791 37.2119 12.2536C37.1551 14.6099 36.6453 16.7956 36.9203 16.6257C37.1952 16.4558 37.6492 16.6176 37.7461 12.9014C37.8435 9.18522 38.1752 5.6552 37.2439 5.58217C36.4286 5.5182 36.1021 6.47291 36.5961 6.71588H36.5966Z" fill="white"/>
<path d="M43.5354 16.9823C43.5354 16.9823 43.8939 17.0449 44.0051 16.6907C44.1579 16.2042 43.0738 15.8973 42.1754 15.8486C41.2766 15.7999 39.4412 15.7183 39.3256 14.2132C39.2364 13.0556 41.6747 12.859 43.1311 11.7033C44.1512 10.8937 43.9488 10.4565 43.0499 10.6507C42.1511 10.845 39.0908 12.594 37.8521 14.1645C37.5962 14.4886 40.8799 16.6826 43.5359 16.9819L43.5354 16.9823Z" fill="white"/>
<path d="M51.1749 16.1994C52.6929 16.3937 56.3122 15.3373 57.3929 15.3249C57.3929 15.3249 57.7085 14.8633 56.6158 14.985C55.5227 15.1063 53.3245 15.7746 52.0008 15.4466C50.6771 15.1187 50.6408 14.0867 51.2962 12.5563C51.9521 11.0259 53.3001 7.45529 52.8266 7.43142C52.1478 7.39658 51.3573 8.02668 51.2962 9.22865C51.2074 10.9887 50.6527 13.0179 50.446 13.6251C50.2393 14.2323 49.6565 16.0056 51.1745 16.1999L51.1749 16.1994Z" fill="white"/>
<path d="M63.7604 8.31265C63.7035 8.1346 63.5255 8.02099 63.3231 8.11837C63.1207 8.21575 62.8777 7.98089 63.1613 7.76226C63.4448 7.54364 63.5336 7.2682 63.3069 7.21188C62.6772 7.05435 61.8657 8.06204 62.3837 8.63677C62.9021 9.21151 63.8167 8.49118 63.7599 8.31313L63.7604 8.31265Z" fill="white"/>
<path d="M61.9951 16.1179C62.303 16.1179 62.2925 15.7737 61.5741 15.5837C61.0237 15.4381 59.2179 14.7903 58.8374 13.8671C58.457 12.9439 59.1611 12.1668 59.8575 11.7782C60.554 11.3897 61.3068 11.2598 60.6996 11.9888C60.0924 12.7177 59.1854 13.3168 59.6145 13.6404C59.9119 13.8648 61.25 13.017 61.8653 12.0537C62.4806 11.0904 62.44 10.5152 61.4442 10.5314C60.4485 10.5476 57.8736 12.0212 58.0273 13.7698C58.1811 15.5188 60.7392 16.1179 61.9946 16.1179H61.9951Z" fill="white"/>
<path d="M64.3432 13.7535C64.6186 13.9802 65.3146 14.0208 65.1041 13.1219C64.8936 12.2231 64.3188 10.782 64.1164 10.9519C63.9389 11.1013 64.0677 13.5267 64.3432 13.7535Z" fill="white"/>
<path d="M73.484 14.9679C74.4921 14.9192 75.8645 13.0733 76.107 12.806C76.35 12.5387 76.9572 13.4738 77.3214 14.1659C77.6856 14.8581 78.0985 14.6151 78.4389 14.4089C78.7788 14.2022 79.0098 14.1416 78.7062 13.753C78.4026 13.3645 77.8074 13.6074 77.8074 13.6074C77.8074 13.6074 76.8603 12.2594 76.35 12.1257C75.8397 11.9921 74.8807 13.2552 74.3098 13.996C73.7389 14.7369 73.0104 14.4576 72.2452 14.1903C71.4801 13.923 71.7111 13.4494 71.7111 13.1458C71.7111 12.8422 71.6782 11.7353 71.2982 11.8097C70.5573 11.9553 70.2537 12.4169 70.764 13.4857C71.2743 14.5545 72.4763 15.0161 73.4845 14.9674L73.484 14.9679Z" fill="white"/>
<path d="M81.9245 14.786C82.5074 14.4705 85.3977 12.4178 87.1954 12.3816C88.9927 12.3453 88.3855 13.2074 88.9927 12.8675C89.5999 12.5276 89.8672 11.8593 88.5554 11.8474C87.2437 11.8355 85.5801 11.8593 83.6492 13.0374C81.7183 14.2155 81.2324 14.1425 81.3417 13.5477C81.451 12.953 81.7789 11.5075 80.6371 11.8231C79.9297 12.0188 79.9693 13.1711 80.2242 13.7907C80.4791 14.4103 81.3417 15.1025 81.9245 14.7865V14.786Z" fill="white"/>
<path d="M93.6564 16.1216C94.4335 16.219 94.446 15.8911 94.361 15.83C94.276 15.7693 92.0172 14.8586 91.2276 14.0327C90.4381 13.2069 92.284 11.6402 92.8549 11.5309C93.4258 11.4216 93.1705 12.0775 93.0249 12.2112C92.8793 12.3448 91.7255 13.5105 91.9804 13.6685C92.2353 13.8265 92.685 13.5349 93.3891 13.037C94.0937 12.5391 95.0751 11.1891 94.4092 10.6564C93.4378 9.87929 90.2558 11.8952 90.4014 13.7411C90.5469 15.587 92.8788 16.0242 93.6559 16.1216H93.6564Z" fill="white"/>
<path d="M76.7963 22.0413C58.2569 22.0413 46.4892 23.8729 29.1986 23.8729C22.287 23.8729 14.1147 23.4051 8.58128 23.0217C7.01795 22.9048 8.78368 24.2218 9.5589 24.3287C10.3341 24.4357 21.4598 24.8987 29.3962 24.8987C44.7798 24.8987 64.8974 22.5177 77.3224 22.5177C89.7474 22.5177 96.5191 23.7263 96.5191 23.7263C96.5191 23.7263 89.945 22.0413 76.7963 22.0413Z" fill="white"/>
<path d="M68.6761 14.6934C69.5053 15.3498 67.9749 17.4878 67.5562 17.77C67.1376 18.0521 67.3429 18.1853 67.3429 18.1853C68.3854 17.7618 69.891 15.8147 69.5793 14.8595C69.2671 13.9044 67.8388 12.9492 67.3462 12.6337C66.8536 12.3181 67.6417 11.9773 67.8551 11.9525C68.0684 11.9276 69.0289 11.5787 69.3659 11.3376C69.7024 11.0966 69.259 10.2163 68.8895 10.3409C68.52 10.4655 66.4431 11.4374 66.4431 12.0522C66.4431 13.2318 67.8469 14.0375 68.6761 14.6934Z" fill="white"/>
</svg>
